<svg width="20" height="20" viewBox="0 0 20 20" fill="none" xmlns="http://www.w3.org/2000/svg">
<path d="M3.05944 2.35938C3.0589 2.35938 3.0583 2.35938 3.05776 2.35938C2.8686 2.35938 2.69069 2.43311 2.55634 2.56712C2.42052 2.70261 2.3457 2.88301 2.3457 3.07507V13.8068C2.3457 14.2003 2.66712 14.5212 3.06227 14.5222C4.72814 14.5262 7.51912 14.8734 9.44452 16.8883V5.6573C9.44452 5.5239 9.41044 5.39858 9.34613 5.29487C7.76586 2.74995 4.72908 2.36328 3.05944 2.35938Z" fill="#37AAAF"/>
<path d="M17.6544 13.8068V3.07507C17.6544 2.88301 17.5796 2.70261 17.4438 2.56712C17.3094 2.43311 17.1314 2.35938 16.9424 2.35938C16.9418 2.35938 16.9412 2.35938 16.9407 2.35938C15.2711 2.36335 12.2343 2.75002 10.654 5.29494C10.5897 5.39864 10.5557 5.52397 10.5557 5.65737V16.8883C12.4811 14.8734 15.272 14.5262 16.9379 14.5222C17.333 14.5212 17.6544 14.2003 17.6544 13.8068Z" fill="#37AAAF"/>
<path d="M19.2846 4.83398H18.7657V13.8065C18.7657 14.8113 17.9471 15.6306 16.9407 15.6331C15.5277 15.6364 13.1979 15.9127 11.5479 17.4744C14.4016 16.7757 17.41 17.2299 19.1244 17.6206C19.3385 17.6694 19.5597 17.619 19.7312 17.4823C19.9022 17.3459 20.0002 17.1421 20.0002 16.9233V5.54954C20.0003 5.155 19.6792 4.83398 19.2846 4.83398Z" fill="#37AAAF"/>
<path d="M1.23448 13.8065V4.83398H0.715558C0.321079 4.83398 0 5.155 0 5.54954V16.9231C0 17.142 0.0980475 17.3457 0.268957 17.4821C0.440338 17.6187 0.661349 17.6693 0.875761 17.6204C2.59024 17.2296 5.59867 16.7755 8.45228 17.4742C6.80231 15.9126 4.47247 15.6364 3.05947 15.633C2.05321 15.6306 1.23448 14.8113 1.23448 13.8065Z" fill="#37AAAF"/>
</svg>
