<svg width="30" height="30" viewBox="0 0 30 30" fill="none" xmlns="http://www.w3.org/2000/svg">
<g clip-path="url(#clip0_352_1613)">
<path d="M8.84754 24.6679C8.84754 22.729 7.27086 21.1523 5.33196 21.1523C3.39306 21.1523 1.81638 22.729 1.81638 24.6679V26.4257C1.81638 27.3947 0.96901 28.2421 0 28.2421V29.9999H3.57417C6.48208 29.9999 8.84754 27.5758 8.84754 24.6679Z" fill="white"/>
<path d="M14.7104 7.35829C14.2414 7.48444 13.9626 7.96479 14.089 8.4346C14.2101 8.88659 14.674 9.1839 15.1653 9.05599C15.6376 8.92895 15.9118 8.44626 15.7867 7.97968C15.6598 7.50817 15.1744 7.23319 14.7104 7.35829Z" fill="white"/>
<path d="M9.73834 14.0286C10.2047 14.1523 10.6873 13.8809 10.8146 13.4072C10.9416 12.9337 10.6591 12.4559 10.1941 12.3309H10.1932C9.94389 12.2637 9.8765 12.3143 9.7002 12.3718C9.71016 12.9015 9.71713 13.4511 9.72082 14.02C9.72727 14.0219 9.73178 14.0269 9.73834 14.0286Z" fill="white"/>
<path d="M19.4261 21.563C19.299 21.0904 18.8139 20.8172 18.3498 20.9424C17.8727 21.0708 17.6044 21.5576 17.7284 22.0188C17.8538 22.4865 18.3309 22.7629 18.8047 22.6401C19.2738 22.514 19.5525 22.0336 19.4261 21.5638V21.563Z" fill="white"/>
<path d="M22.351 10.6497C22.6935 10.3064 22.6935 9.74844 22.351 9.40596C22.0084 9.0633 21.4515 9.06189 21.1073 9.40596C20.7649 9.74844 20.7649 10.3072 21.1082 10.6497C21.4498 10.9913 22.0077 10.9913 22.351 10.6497Z" fill="white"/>
<path d="M16.8092 1.76941C13.922 1.87347 11.2717 3.0148 9.15918 4.46381C9.39595 6.07558 9.56324 8.08174 9.6523 10.5629C9.98136 10.5236 10.3179 10.5444 10.6475 10.6331C12.056 11.0096 12.8908 12.4535 12.5126 13.8619C12.1937 15.0533 11.1175 15.8171 9.97028 15.8171C9.88585 15.8171 9.80171 15.7918 9.71728 15.7837C9.70667 17.1894 9.6748 18.5803 9.61415 19.9086C10.5144 20.2826 11.218 20.7808 11.6774 21.4261C12.6078 22.7333 12.3598 24.2662 12.2619 24.7057C11.936 26.1654 12.7966 27.6514 14.2712 27.9354C15.1046 28.0951 15.9423 28.174 16.774 28.174C24.0025 28.174 30.0586 22.3024 29.9997 14.8936C29.9381 7.37951 23.4356 1.51974 16.8092 1.76941ZM19.8639 8.16284C20.8938 7.13459 22.5658 7.13459 23.594 8.16284C24.6223 9.19108 24.6223 10.8639 23.594 11.8921V11.893C22.5659 12.9194 20.8929 12.9195 19.8648 11.893C18.8373 10.8639 18.8373 9.19108 19.8639 8.16284ZM12.3915 8.88892C12.0174 7.49945 12.8333 6.04107 14.2557 5.66086C15.6539 5.28581 17.107 6.12005 17.4846 7.52505C17.8621 8.93064 17.0291 10.3768 15.6204 10.7539C14.2153 11.1305 12.7691 10.3011 12.3915 8.88892ZM19.2596 24.3374C17.8548 24.7138 16.4075 23.8771 16.0307 22.4732C15.6532 21.0676 16.4862 19.6214 17.8949 19.2443C19.3096 18.868 20.748 19.7038 21.1238 21.1094C21.5024 22.5172 20.6653 23.9615 19.2596 24.3374ZM26.0959 17.5011C25.7194 18.9095 24.2721 19.7431 22.867 19.3653C21.4623 18.9892 20.6237 17.5475 21.0028 16.1364C21.3833 14.7151 22.8391 13.899 24.2317 14.2722C25.6367 14.649 26.4728 16.0978 26.0959 17.5011Z" fill="white"/>
<path d="M23.7766 15.9697C23.3163 15.8455 22.8288 16.1138 22.7003 16.5911C22.5734 17.0646 22.8559 17.5424 23.3209 17.6674C23.8022 17.7917 24.2734 17.5096 24.3981 17.046C24.5234 16.5782 24.2444 16.095 23.7766 15.9697Z" fill="white"/>
<path d="M7.95807 15.8787C7.96053 15.5846 7.96868 15.2952 7.96868 14.9998C7.96868 8.18409 7.51118 0 5.332 0C3.15281 0 2.69531 8.18409 2.69531 14.9998C2.69531 15.2952 2.70346 15.5846 2.70592 15.8787H7.95807Z" fill="white"/>
<path d="M5.33186 19.3945C6.24767 19.3945 7.09674 19.6501 7.84796 20.0624C7.88593 19.2736 7.91493 18.4611 7.9352 17.6367H2.72852C2.74879 18.4611 2.77773 19.2736 2.81576 20.0624C3.56698 19.65 4.41605 19.3945 5.33186 19.3945Z" fill="white"/>
</g>
<defs>
<clipPath id="clip0_352_1613">
<rect width="30" height="30" fill="white"/>
</clipPath>
</defs>
</svg>
