<svg width="20" height="20" viewBox="0 0 20 20" fill="none" xmlns="http://www.w3.org/2000/svg">
<g clip-path="url(#clip0_344_1596)">
<path d="M18.2119 5.71977C15.5702 1.37971 11.5908 4.39914 11.5908 4.39914C11.3327 4.5942 10.8568 4.75457 10.5335 4.75531L9.46758 4.75606C9.14423 4.75643 8.66835 4.59606 8.41063 4.40101C8.41063 4.40101 4.43085 1.38083 1.78885 5.72089C-0.852409 10.0595 0.212 14.7844 0.212 14.7844C0.398476 15.9413 1.0131 16.7133 2.17299 16.6163C3.32952 16.5198 5.83987 13.5007 5.83987 13.5007C6.04723 13.2519 6.48172 13.0487 6.80432 13.0487L13.1945 13.0476C13.5175 13.0476 13.9516 13.2508 14.1586 13.4996C14.1586 13.4996 16.6693 16.5186 17.8277 16.6152C18.9861 16.7122 19.6022 15.9394 19.7876 14.7833C19.7876 14.7833 20.8535 10.0591 18.2119 5.71977ZM7.59872 9.25238H6.22848V10.573C6.22848 10.573 5.93833 10.7945 5.48929 10.789C5.041 10.7822 4.83811 10.5473 4.83811 10.5473V9.25276H3.54397C3.54397 9.25276 3.38248 9.08717 3.33921 8.65118C3.2967 8.2152 3.51786 7.86276 3.51786 7.86276H4.88846V6.49253C4.88846 6.49253 5.17042 6.34148 5.57582 6.35304C5.98159 6.36572 6.27883 6.51826 6.27883 6.51826L6.27324 7.86239H7.56739C7.56739 7.86239 7.7934 8.15255 7.81204 8.50312C7.83069 8.85407 7.59872 9.25238 7.59872 9.25238ZM13.8837 10.7576C13.2836 10.7576 12.7999 10.2724 12.7999 9.67308C12.7999 9.07262 13.2836 8.58853 13.8837 8.58853C14.4812 8.58853 14.9686 9.07262 14.9686 9.67308C14.9686 10.2728 14.4812 10.7576 13.8837 10.7576ZM13.8837 7.77362C13.2836 7.77362 12.7999 7.28878 12.7999 6.68945C12.7999 6.08899 13.2836 5.6049 13.8837 5.6049C14.4812 5.6049 14.9686 6.08899 14.9686 6.68945C14.9686 7.28916 14.4812 7.77362 13.8837 7.77362ZM16.5847 9.37546C15.9846 9.37546 15.5009 8.89062 15.5009 8.29091C15.5009 7.69083 15.9846 7.20636 16.5847 7.20636C17.1821 7.20636 17.6696 7.69083 17.6696 8.29091C17.6696 8.89062 17.1821 9.37546 16.5847 9.37546Z" fill="#37AAAF"/>
</g>
<defs>
<clipPath id="clip0_344_1596">
<rect width="20" height="20" fill="white"/>
</clipPath>
</defs>
</svg>
