<svg width="500" height="500" viewBox="0 0 500 500" fill="none" xmlns="http://www.w3.org/2000/svg">
<path d="M30.7099 160.76C32.0999 159.92 33.5899 159.28 35.1199 158.84L36.0299 154.48L43.3999 154.35L44.4599 158.68C45.9999 159.06 47.5099 159.65 48.9299 160.44L52.6599 158L57.9599 163.12L55.6499 166.93C56.4899 168.32 57.1299 169.81 57.5699 171.34L61.9299 172.25L62.0599 179.62L57.7299 180.68C57.3499 182.22 56.7599 183.73 55.9699 185.15L58.4099 188.88L53.2899 194.18L49.4799 191.87C48.0899 192.71 46.5999 193.35 45.0699 193.79L44.1599 198.15L36.7899 198.28L35.7299 193.95C34.1899 193.57 32.6799 192.98 31.2599 192.19L27.5299 194.63L22.2299 189.51L24.5399 185.7C23.6999 184.31 23.0599 182.82 22.6199 181.29L18.2599 180.38L18.1299 173.01L22.4599 171.95C22.8399 170.41 23.4299 168.9 24.2199 167.48L21.7799 163.75L26.8999 158.45L30.7099 160.76ZM34.6399 170.58C31.6099 173.72 31.6899 178.73 34.8399 181.76C37.9799 184.79 42.9899 184.71 46.0199 181.56C49.0499 178.42 48.9699 173.41 45.8199 170.38C42.6799 167.35 37.6699 167.44 34.6399 170.58Z" fill="#F5F5F5"/>
<path d="M286.14 37.2C287.33 36.48 288.59 35.94 289.89 35.57L290.66 31.86L296.93 31.75L297.83 35.43C299.14 35.75 300.43 36.25 301.64 36.93L304.81 34.85L309.32 39.21L307.35 42.45C308.07 43.64 308.61 44.9 308.98 46.2L312.69 46.97L312.8 53.24L309.12 54.14C308.8 55.45 308.3 56.74 307.62 57.95L309.7 61.12L305.34 65.63L302.1 63.66C300.91 64.38 299.65 64.92 298.35 65.29L297.58 69L291.31 69.11L290.41 65.43C289.1 65.11 287.81 64.61 286.6 63.93L283.43 66.01L278.92 61.65L280.89 58.41C280.17 57.22 279.63 55.96 279.26 54.66L275.55 53.89L275.44 47.62L279.12 46.72C279.44 45.41 279.94 44.12 280.62 42.91L278.54 39.74L282.9 35.23L286.14 37.2ZM289.49 45.55C286.91 48.22 286.98 52.49 289.66 55.07C292.33 57.65 296.6 57.58 299.18 54.9C301.76 52.23 301.69 47.96 299.01 45.38C296.33 42.81 292.07 42.88 289.49 45.55Z" fill="#F5F5F5"/>
<path d="M73.9901 41.4596C75.9201 40.2996 77.9701 39.4096 80.0801 38.8096L81.3401 32.7796L91.5301 32.5996L93.0001 38.5896C95.1401 39.1196 97.2201 39.9296 99.1801 41.0196L104.33 37.6396L111.66 44.7196L108.47 49.9896C109.64 51.9196 110.52 53.9696 111.12 56.0896L117.15 57.3496L117.33 67.5396L111.35 68.9996C110.82 71.1396 110.01 73.2196 108.92 75.1796L112.3 80.3296L105.22 87.6596L99.9501 84.4696C98.0201 85.6296 95.9701 86.5196 93.8501 87.1196L92.5901 93.1496L82.4001 93.3296L80.9301 87.3496C78.7901 86.8196 76.7101 86.0096 74.7501 84.9196L69.6001 88.2996L62.2701 81.2196L65.4601 75.9496C64.3001 74.0196 63.4101 71.9696 62.8101 69.8496L56.7801 68.5896L56.6001 58.3996L62.5801 56.9296C63.1101 54.7896 63.9201 52.7096 65.0101 50.7496L61.6301 45.5996L68.7101 38.2696L73.9901 41.4596ZM79.4301 55.0396C75.2301 59.3796 75.3601 66.3096 79.7001 70.4996C84.0401 74.6896 90.9701 74.5696 95.1601 70.2296C99.3501 65.8896 99.2301 58.9596 94.8901 54.7696C90.5401 50.5696 83.6201 50.6896 79.4301 55.0396Z" fill="#F5F5F5"/>
<path d="M238.38 215.98C239.77 215.14 241.26 214.5 242.79 214.06L243.7 209.7L251.07 209.57L252.13 213.9C253.67 214.28 255.18 214.87 256.6 215.66L260.33 213.22L265.63 218.34L263.32 222.15C264.16 223.54 264.8 225.03 265.24 226.56L269.6 227.47L269.73 234.84L265.4 235.9C265.02 237.44 264.43 238.95 263.64 240.37L266.08 244.1L260.96 249.4L257.15 247.09C255.76 247.93 254.27 248.57 252.74 249.01L251.83 253.37L244.46 253.5L243.4 249.17C241.86 248.79 240.35 248.2 238.93 247.41L235.2 249.85L229.9 244.73L232.21 240.92C231.37 239.53 230.73 238.04 230.29 236.51L225.93 235.6L225.8 228.23L230.13 227.17C230.51 225.63 231.1 224.12 231.89 222.7L229.45 218.97L234.57 213.67L238.38 215.98ZM242.31 225.8C239.28 228.94 239.36 233.95 242.51 236.98C245.65 240.01 250.66 239.93 253.69 236.78C256.72 233.64 256.64 228.63 253.49 225.6C250.35 222.57 245.35 222.66 242.31 225.8Z" fill="#F5F5F5"/>
<path d="M259.15 347.92C260.54 347.08 262.03 346.44 263.56 346L264.47 341.64L271.84 341.51L272.9 345.84C274.44 346.22 275.95 346.81 277.37 347.6L281.1 345.16L286.4 350.28L284.09 354.09C284.93 355.48 285.57 356.97 286.01 358.5L290.37 359.41L290.5 366.78L286.17 367.84C285.79 369.38 285.2 370.89 284.41 372.31L286.85 376.04L281.73 381.34L277.92 379.03C276.53 379.87 275.04 380.51 273.51 380.95L272.6 385.31L265.23 385.44L264.17 381.11C262.63 380.73 261.12 380.14 259.7 379.35L255.97 381.79L250.67 376.67L252.98 372.86C252.14 371.47 251.5 369.98 251.06 368.45L246.7 367.54L246.57 360.17L250.9 359.11C251.28 357.57 251.87 356.06 252.66 354.64L250.22 350.91L255.34 345.61L259.15 347.92ZM263.08 357.74C260.05 360.88 260.13 365.89 263.28 368.92C266.42 371.95 271.43 371.87 274.46 368.72C277.49 365.58 277.41 360.57 274.26 357.54C271.12 354.51 266.11 354.6 263.08 357.74Z" fill="#F5F5F5"/>
<path d="M82.1597 265.359C83.0997 264.789 84.0997 264.359 85.1297 264.069L85.7397 261.129L90.7097 261.039L91.4297 263.959C92.4697 264.219 93.4897 264.609 94.4497 265.149L96.9597 263.499L100.54 266.949L98.9797 269.519C99.5497 270.459 99.9797 271.459 100.27 272.489L103.21 273.099L103.3 278.069L100.38 278.789C100.12 279.829 99.7297 280.849 99.1897 281.809L100.84 284.319L97.3897 287.899L94.8197 286.339C93.8797 286.909 92.8797 287.339 91.8497 287.629L91.2397 290.569L86.2697 290.659L85.5497 287.739C84.5097 287.479 83.4897 287.089 82.5297 286.549L80.0197 288.199L76.4397 284.749L77.9997 282.179C77.4297 281.239 76.9997 280.239 76.7097 279.209L73.7697 278.599L73.6797 273.629L76.5997 272.909C76.8597 271.869 77.2497 270.849 77.7897 269.889L76.1397 267.379L79.5897 263.799L82.1597 265.359ZM84.8097 271.979C82.7597 274.099 82.8197 277.479 84.9397 279.519C87.0597 281.569 90.4397 281.509 92.4797 279.389C94.5297 277.269 94.4697 273.889 92.3497 271.849C90.2297 269.799 86.8597 269.859 84.8097 271.979Z" fill="#F5F5F5"/>
<path d="M89.5398 303.659C91.2498 302.619 93.0798 301.839 94.9598 301.309L96.0798 295.949L105.14 295.789L106.44 301.109C108.34 301.579 110.19 302.299 111.94 303.269L116.52 300.269L123.04 306.569L120.2 311.249C121.24 312.959 122.02 314.789 122.55 316.669L127.91 317.789L128.07 326.849L122.75 328.149C122.28 330.049 121.56 331.899 120.59 333.649L123.59 338.229L117.3 344.749L112.62 341.909C110.91 342.949 109.08 343.729 107.2 344.259L106.08 349.619L97.0198 349.779L95.7198 344.459C93.8198 343.989 91.9698 343.269 90.2198 342.299L85.6398 345.299L79.1199 338.999L81.9598 334.319C80.9198 332.609 80.1398 330.779 79.6098 328.899L74.2498 327.779L74.0898 318.719L79.4099 317.419C79.8799 315.519 80.5998 313.669 81.5698 311.919L78.5698 307.339L84.8598 300.819L89.5398 303.659ZM94.3699 315.729C90.6399 319.589 90.7498 325.749 94.6098 329.479C98.4698 333.209 104.63 333.099 108.36 329.239C112.09 325.379 111.98 319.219 108.12 315.489C104.26 311.759 98.0999 311.869 94.3699 315.729Z" fill="#F5F5F5"/>
<path d="M478.69 46.0801H341.15V277.83H478.69V46.0801Z" fill="#E0E0E0"/>
<path d="M474.52 50.4395H344.86V274.019H474.52V50.4395Z" fill="#F5F5F5"/>
<path d="M461.39 62.3809H409.69V142.601H461.39V62.3809Z" fill="white"/>
<path d="M438.29 69.471C438.29 70.541 437.43 71.401 436.36 71.401C435.29 71.401 434.43 70.541 434.43 69.471C434.43 68.401 435.29 67.541 436.36 67.541C437.42 67.541 438.29 68.411 438.29 69.471Z" fill="#E0E0E0"/>
<path d="M409.28 164.93H357.58V245.15H409.28V164.93Z" fill="white"/>
<path d="M386.18 172.03C386.18 173.1 385.32 173.96 384.25 173.96C383.18 173.96 382.32 173.1 382.32 172.03C382.32 170.96 383.18 170.1 384.25 170.1C385.32 170.1 386.18 170.96 386.18 172.03Z" fill="#E0E0E0"/>
<path d="M401.03 62.3809H356.88V125.031H401.03V62.3809Z" fill="white"/>
<path d="M380.56 68.0707C380.56 68.9607 379.84 69.6707 378.96 69.6707C378.07 69.6707 377.36 68.9507 377.36 68.0707C377.36 67.1807 378.08 66.4707 378.96 66.4707C379.84 66.4707 380.56 67.1907 380.56 68.0707Z" fill="#E0E0E0"/>
<path d="M463.086 166.038L415.866 171.365L418.817 197.529L466.038 192.202L463.086 166.038Z" fill="white"/>
<path d="M440.03 175.3C440.935 175.3 441.67 174.565 441.67 173.66C441.67 172.754 440.935 172.02 440.03 172.02C439.124 172.02 438.39 172.754 438.39 173.66C438.39 174.565 439.124 175.3 440.03 175.3Z" fill="#E0E0E0"/>
<path d="M402.38 183.23C402.38 183.44 394.26 183.62 384.25 183.62C374.23 183.62 366.12 183.45 366.12 183.23C366.12 183.02 374.24 182.84 384.25 182.84C394.27 182.85 402.38 183.02 402.38 183.23Z" fill="#E0E0E0"/>
<path d="M402.38 188.97C402.38 189.18 394.26 189.36 384.25 189.36C374.23 189.36 366.12 189.19 366.12 188.97C366.12 188.76 374.24 188.58 384.25 188.58C394.27 188.59 402.38 188.76 402.38 188.97Z" fill="#E0E0E0"/>
<path d="M402.38 194.71C402.38 194.92 394.26 195.1 384.25 195.1C374.23 195.1 366.12 194.93 366.12 194.71C366.12 194.5 374.24 194.32 384.25 194.32C394.27 194.33 402.38 194.5 402.38 194.71Z" fill="#E0E0E0"/>
<path d="M402.38 200.451C402.38 200.661 394.26 200.841 384.25 200.841C374.23 200.841 366.12 200.671 366.12 200.451C366.12 200.241 374.24 200.061 384.25 200.061C394.27 200.071 402.38 200.241 402.38 200.451Z" fill="#E0E0E0"/>
<path d="M402.38 206.191C402.38 206.401 394.26 206.581 384.25 206.581C374.23 206.581 366.12 206.411 366.12 206.191C366.12 205.981 374.24 205.801 384.25 205.801C394.27 205.811 402.38 205.981 402.38 206.191Z" fill="#E0E0E0"/>
<path d="M402.38 211.931C402.38 212.141 394.26 212.321 384.25 212.321C374.23 212.321 366.12 212.151 366.12 211.931C366.12 211.711 374.24 211.541 384.25 211.541C394.27 211.551 402.38 211.721 402.38 211.931Z" fill="#E0E0E0"/>
<path d="M402.38 217.669C402.38 217.879 394.26 218.059 384.25 218.059C374.23 218.059 366.12 217.889 366.12 217.669C366.12 217.449 374.24 217.279 384.25 217.279C394.27 217.289 402.38 217.459 402.38 217.669Z" fill="#E0E0E0"/>
<path d="M458.66 177.079C458.69 177.289 450.67 178.599 440.76 179.989C430.84 181.389 422.78 182.349 422.75 182.139C422.72 181.929 430.73 180.619 440.65 179.229C450.57 177.839 458.63 176.869 458.66 177.079Z" fill="#E0E0E0"/>
<path d="M459.38 180.669C459.41 180.879 451.39 182.189 441.48 183.579C431.56 184.979 423.5 185.939 423.47 185.729C423.44 185.519 431.45 184.209 441.37 182.809C451.29 181.429 459.35 180.459 459.38 180.669Z" fill="#E0E0E0"/>
<path d="M460.04 183.99C460.07 184.2 452.06 185.51 442.14 186.91C432.22 188.31 424.16 189.27 424.13 189.06C424.1 188.85 432.11 187.54 442.03 186.14C451.95 184.74 460.01 183.78 460.04 183.99Z" fill="#E0E0E0"/>
<path d="M456.84 79.1595C456.84 79.3695 447.67 79.5495 436.36 79.5495C425.04 79.5495 415.87 79.3795 415.87 79.1595C415.87 78.9495 425.04 78.7695 436.36 78.7695C447.67 78.7795 456.84 78.9495 456.84 79.1595Z" fill="#E0E0E0"/>
<path d="M456.84 82.5795C456.84 82.7895 447.67 82.9695 436.36 82.9695C425.04 82.9695 415.87 82.7995 415.87 82.5795C415.87 82.3595 425.04 82.1895 436.36 82.1895C447.67 82.1895 456.84 82.3595 456.84 82.5795Z" fill="#E0E0E0"/>
<path d="M456.84 85.9896C456.84 86.1996 447.67 86.3796 436.36 86.3796C425.04 86.3796 415.87 86.2096 415.87 85.9896C415.87 85.7796 425.04 85.5996 436.36 85.5996C447.67 85.5996 456.84 85.7796 456.84 85.9896Z" fill="#E0E0E0"/>
<path d="M456.84 89.3998C456.84 89.6098 447.67 89.7898 436.36 89.7898C425.04 89.7898 415.87 89.6198 415.87 89.3998C415.87 89.1898 425.04 89.0098 436.36 89.0098C447.67 89.0198 456.84 89.1898 456.84 89.3998Z" fill="#E0E0E0"/>
<path d="M456.84 92.8197C456.84 93.0297 447.67 93.2097 436.36 93.2097C425.04 93.2097 415.87 93.0397 415.87 92.8197C415.87 92.6097 425.04 92.4297 436.36 92.4297C447.67 92.4297 456.84 92.5997 456.84 92.8197Z" fill="#E0E0E0"/>
<path d="M456.84 96.2299C456.84 96.4399 447.67 96.6199 436.36 96.6199C425.04 96.6199 415.87 96.4499 415.87 96.2299C415.87 96.0099 425.04 95.8398 436.36 95.8398C447.67 95.8398 456.84 96.0199 456.84 96.2299Z" fill="#E0E0E0"/>
<path d="M456.84 99.64C456.84 99.85 447.67 100.03 436.36 100.03C425.04 100.03 415.87 99.86 415.87 99.64C415.87 99.43 425.04 99.25 436.36 99.25C447.67 99.26 456.84 99.43 456.84 99.64Z" fill="#E0E0E0"/>
<path d="M456.84 109.771C456.84 109.981 447.67 110.161 436.36 110.161C425.04 110.161 415.87 109.991 415.87 109.771C415.87 109.561 425.04 109.381 436.36 109.381C447.67 109.381 456.84 109.561 456.84 109.771Z" fill="#E0E0E0"/>
<path d="M457.13 113.37C457.13 113.58 447.96 113.76 436.65 113.76C425.33 113.76 416.16 113.59 416.16 113.37C416.16 113.15 425.33 112.98 436.65 112.98C447.96 112.99 457.13 113.16 457.13 113.37Z" fill="#E0E0E0"/>
<path d="M457.42 116.98C457.42 117.19 448.25 117.37 436.94 117.37C425.62 117.37 416.45 117.2 416.45 116.98C416.45 116.77 425.62 116.59 436.94 116.59C448.24 116.59 457.42 116.77 457.42 116.98Z" fill="#E0E0E0"/>
<path d="M457.7 120.579C457.7 120.789 448.53 120.969 437.22 120.969C425.9 120.969 416.73 120.799 416.73 120.579C416.73 120.359 425.9 120.189 437.22 120.189C448.53 120.199 457.7 120.369 457.7 120.579Z" fill="#E0E0E0"/>
<path d="M457.99 124.191C457.99 124.401 448.82 124.581 437.51 124.581C426.19 124.581 417.02 124.411 417.02 124.191C417.02 123.981 426.19 123.801 437.51 123.801C448.82 123.801 457.99 123.981 457.99 124.191Z" fill="#E0E0E0"/>
<path d="M458.28 127.79C458.28 128 449.11 128.18 437.8 128.18C426.48 128.18 417.32 128.01 417.32 127.79C417.32 127.58 426.49 127.4 437.8 127.4C449.11 127.41 458.28 127.58 458.28 127.79Z" fill="#E0E0E0"/>
<path d="M170.93 91.7603H141.3C139.25 91.7603 137.59 90.1003 137.59 88.0503V47.0303C137.59 44.9803 139.25 43.3203 141.3 43.3203H160.1L174.65 58.3203V88.0503C174.64 90.1003 172.98 91.7603 170.93 91.7603Z" fill="#F5F5F5"/>
<path d="M170.11 91.7603H142.11C139.61 91.7603 137.58 89.7303 137.58 87.2303V77.0703H174.63V87.2403C174.64 89.7403 172.61 91.7603 170.11 91.7603Z" fill="#E0E0E0"/>
<path d="M150.72 86.5505L151.65 85.4305C152.04 85.9605 152.48 86.2305 153 86.2305C153.67 86.2305 154.03 85.8305 154.03 85.0305V81.5805H151.48V80.2305H155.7V84.9305C155.7 86.7205 154.8 87.6005 153.09 87.6005C152.11 87.6005 151.25 87.2305 150.72 86.5505Z" fill="#FAFAFA"/>
<path d="M156.7 86.9603L157.24 85.8003C157.74 86.1203 158.49 86.3403 159.18 86.3403C159.93 86.3403 160.21 86.1403 160.21 85.8303C160.21 84.9203 156.84 85.8503 156.84 83.6203C156.84 82.5603 157.79 81.8203 159.42 81.8203C160.19 81.8203 161.04 82.0003 161.56 82.3103L161.02 83.4603C160.47 83.1503 159.92 83.0503 159.41 83.0503C158.68 83.0503 158.37 83.2803 158.37 83.5703C158.37 84.5203 161.74 83.6003 161.74 85.8003C161.74 86.8403 160.78 87.5703 159.11 87.5703C158.17 87.5603 157.21 87.3003 156.7 86.9603Z" fill="#FAFAFA"/>
<path d="M145.44 69.3512L146.6 67.9912C147.36 69.0712 148.34 69.6512 149.52 69.6512C151.1 69.6512 151.92 68.6912 151.92 66.8112V58.9412H146.85V57.2012H153.9V66.7212C153.9 69.8412 152.38 71.3912 149.51 71.3912C147.86 71.3812 146.34 70.6512 145.44 69.3512Z" fill="#FAFAFA"/>
<path d="M156.38 70.0919L157.18 68.572C158.08 69.212 159.52 69.672 160.91 69.672C162.69 69.672 163.43 69.132 163.43 68.232C163.43 65.852 156.72 67.912 156.72 63.682C156.72 61.782 158.42 60.502 161.15 60.502C162.53 60.502 164.09 60.862 165.02 61.462L164.2 62.982C163.24 62.362 162.18 62.142 161.14 62.142C159.46 62.142 158.64 62.762 158.64 63.602C158.64 66.102 165.37 64.062 165.37 68.192C165.37 70.112 163.61 71.3419 160.78 71.3419C159 71.3419 157.26 70.7919 156.38 70.0919Z" fill="#FAFAFA"/>
<path d="M160.09 43.3301V54.8801C160.09 56.7801 161.63 58.3301 163.54 58.3301H174.64L160.09 43.3301Z" fill="#EBEBEB"/>
<path d="M160.24 55.8809C160.24 55.8809 160.09 58.6809 163.28 59.6009C163.4 59.6309 163.52 59.6609 163.65 59.6809C165.1 59.9409 174.64 61.6409 174.64 61.4209C174.64 61.1809 174.64 58.3209 174.64 58.3209H163.54C163.54 58.3209 160.77 58.2309 160.24 55.8809Z" fill="#E0E0E0"/>
<path d="M15.8799 445.46L68.6599 409.82L324.41 408.6L336.11 446L15.8799 445.46Z" fill="#455A64"/>
<path d="M335.45 460.06L15.3501 459.83V444.76L335.59 445.76L335.45 460.06Z" fill="#455A64"/>
<path d="M327.6 445.679C327.6 445.819 258.48 445.909 173.23 445.869C87.9601 445.829 18.8501 445.679 18.8501 445.539C18.8501 445.399 87.9601 445.309 173.23 445.349C258.48 445.379 327.6 445.529 327.6 445.679Z" fill="#263238"/>
<path d="M247.97 115.07H197.72C194.25 115.07 191.43 112.25 191.43 108.78V39.2197C191.43 35.7497 194.25 32.9297 197.72 32.9297H229.59L254.26 58.3597V108.78C254.26 112.25 251.44 115.07 247.97 115.07Z" fill="#37AAAF"/>
<g opacity="0.2">
<path d="M247.78 115.07H197.91C194.33 115.07 191.43 112.17 191.43 108.59V91.3904C191.43 90.7104 191.98 90.1504 192.67 90.1504H253.02C253.7 90.1504 254.26 90.7004 254.26 91.3904V108.59C254.26 112.17 251.36 115.07 247.78 115.07Z" fill="black"/>
</g>
<g opacity="0.2">
<path d="M229.59 32.9395V52.5195C229.59 55.7495 232.21 58.3695 235.44 58.3695H254.26L229.59 32.9395Z" fill="white"/>
</g>
<g opacity="0.2">
<path d="M229.84 54.2305C229.84 54.2305 229.59 58.9805 235 60.5405C235.2 60.6005 235.41 60.6405 235.62 60.6805C238.08 61.1205 254.26 64.0005 254.26 63.6305C254.26 63.2305 254.26 58.3705 254.26 58.3705H235.44C235.43 58.3605 230.73 58.2005 229.84 54.2305Z" fill="black"/>
</g>
<path d="M209.41 101.009C209.41 98.059 211.67 95.959 214.71 95.959C216.4 95.959 217.81 96.569 218.73 97.689L217.28 99.029C216.62 98.279 215.8 97.879 214.82 97.879C212.99 97.879 211.69 99.159 211.69 101.009C211.69 102.849 212.99 104.139 214.82 104.139C215.8 104.139 216.62 103.749 217.28 102.979L218.73 104.319C217.81 105.449 216.4 106.069 214.7 106.069C211.68 106.059 209.41 103.949 209.41 101.009Z" fill="#FAFAFA"/>
<path d="M219.4 104.929L220.17 103.229C220.99 103.829 222.22 104.249 223.39 104.249C224.73 104.249 225.27 103.799 225.27 103.199C225.27 101.369 219.59 102.629 219.59 98.999C219.59 97.339 220.93 95.959 223.71 95.959C224.94 95.959 226.19 96.249 227.1 96.829L226.4 98.549C225.49 98.029 224.56 97.779 223.69 97.779C222.35 97.779 221.83 98.279 221.83 98.899C221.83 100.699 227.51 99.459 227.51 103.049C227.51 104.679 226.16 106.079 223.36 106.079C221.83 106.059 220.27 105.599 219.4 104.929Z" fill="#FAFAFA"/>
<path d="M228.31 104.929L229.08 103.229C229.9 103.829 231.13 104.249 232.31 104.249C233.65 104.249 234.19 103.799 234.19 103.199C234.19 101.369 228.51 102.629 228.51 98.999C228.51 97.339 229.85 95.959 232.63 95.959C233.86 95.959 235.12 96.249 236.02 96.829L235.32 98.549C234.41 98.029 233.48 97.779 232.61 97.779C231.27 97.779 230.75 98.279 230.75 98.899C230.75 100.699 236.43 99.459 236.43 103.049C236.43 104.679 235.08 106.079 232.28 106.079C230.73 106.059 229.17 105.599 228.31 104.929Z" fill="#FAFAFA"/>
<path d="M212.6 69.3794C213.63 69.6894 214.1 70.3494 214.1 71.8894V75.4794C214.1 76.5294 214.64 77.1394 215.74 77.1394H216.14V79.8794H214.84C212.03 79.8794 210.6 78.4394 210.6 75.8594V71.7994C210.6 71.0794 210.22 70.7394 209.61 70.7394H208.87V67.9994H209.61C210.22 67.9994 210.6 67.6594 210.6 66.9394V62.8794C210.6 60.2994 212.04 58.8594 214.84 58.8594H216.14V61.5994H215.74C214.64 61.5994 214.1 62.2094 214.1 63.2594V66.8494C214.11 68.4194 213.64 69.0694 212.6 69.3794Z" fill="#FAFAFA"/>
<path d="M236.81 68.0087V70.7487H236.07C235.46 70.7487 235.08 71.0887 235.08 71.8087V75.8687C235.08 78.4487 233.64 79.8887 230.84 79.8887H229.54V77.1487H229.94C231.04 77.1487 231.58 76.5387 231.58 75.4887V71.8987C231.58 70.3487 232.05 69.6987 233.08 69.3887C232.05 69.0787 231.58 68.4187 231.58 66.8787V63.2887C231.58 62.2287 231.04 61.6287 229.94 61.6287H229.54V58.8887H230.84C233.65 58.8887 235.08 60.3287 235.08 62.9087V66.9687C235.08 67.6887 235.46 68.0287 236.07 68.0287H236.81V68.0087Z" fill="#FAFAFA"/>
<path d="M318.34 165.569H267.33C263.8 165.569 260.95 162.709 260.95 159.189V88.5695C260.95 85.0395 263.81 82.1895 267.33 82.1895H299.68L324.73 107.999V159.179C324.73 162.709 321.87 165.569 318.34 165.569Z" fill="#37AAAF"/>
<g opacity="0.2">
<path d="M317.83 165.57H267.84C264.03 165.57 260.94 162.48 260.94 158.67V140.27H324.72V158.67C324.73 162.48 321.64 165.57 317.83 165.57Z" fill="black"/>
</g>
<g opacity="0.2">
<path d="M299.681 82.1895V102.059C299.681 105.339 302.341 107.999 305.621 107.999H324.731L299.681 82.1895Z" fill="white"/>
</g>
<g opacity="0.2">
<path d="M299.94 103.809C299.94 103.809 299.69 108.629 305.18 110.209C305.39 110.269 305.6 110.309 305.81 110.349C308.3 110.799 324.73 113.719 324.73 113.339C324.73 112.929 324.73 107.999 324.73 107.999H305.62C305.62 107.999 300.85 107.839 299.94 103.809Z" fill="black"/>
</g>
<path d="M287.14 119.379L279.48 122.189L287.14 124.969V127.839L276.2 123.679V120.689L287.14 116.529V119.379Z" fill="#FAFAFA"/>
<path d="M295.37 110.869H298.57L290.98 132.529H287.78L295.37 110.869Z" fill="#FAFAFA"/>
<path d="M309.92 120.689V123.679L298.98 127.839V124.969L306.64 122.189L298.98 119.379V116.529L309.92 120.689Z" fill="#FAFAFA"/>
<path d="M284.531 149.68V158.25H282.551V154.74H278.661V158.25H276.681V149.68H278.661V153.06H282.551V149.68H284.531Z" fill="#FAFAFA"/>
<path d="M288.341 151.3H285.601V149.68H293.071V151.3H290.331V158.26H288.351V151.3H288.341Z" fill="#FAFAFA"/>
<path d="M301.931 158.25L301.921 153.11L299.401 157.35H298.511L296.001 153.22V158.25H294.141V149.68H295.781L298.991 155.01L302.151 149.68H303.781L303.801 158.25H301.931Z" fill="#FAFAFA"/>
<path d="M305.821 149.68H307.801V156.64H312.101V158.26H305.821V149.68Z" fill="#FAFAFA"/>
<path d="M138.71 267.519H46.0898C44.3998 267.519 43.0298 266.149 43.0298 264.459V111.429C43.0298 109.739 44.3998 108.369 46.0898 108.369H138.71C140.4 108.369 141.77 109.739 141.77 111.429V264.459C141.77 266.149 140.4 267.519 138.71 267.519Z" fill="white"/>
<path d="M141.77 126.149H43.0298V111.969C43.0298 109.979 44.6498 108.359 46.6398 108.359H138.3C140.22 108.359 141.77 109.909 141.77 111.829V126.149Z" fill="#E0E0E0"/>
<path d="M138.46 267.519C138.45 267.489 138.93 267.559 139.73 267.239C140.13 267.069 140.59 266.769 140.99 266.279C141.38 265.779 141.71 265.079 141.71 264.229C141.7 260.819 141.68 255.819 141.66 249.369C141.64 236.449 141.61 217.779 141.58 194.709C141.56 171.629 141.55 144.149 141.52 113.649V112.219C141.52 111.729 141.53 111.289 141.4 110.859C141.17 109.999 140.52 109.259 139.71 108.899C139.3 108.709 138.86 108.619 138.4 108.629H136.95C135.98 108.629 135.01 108.629 134.03 108.629C130.12 108.629 126.17 108.629 122.18 108.629C114.19 108.629 106.04 108.629 97.7398 108.639C81.1398 108.639 63.9498 108.639 46.3498 108.649C45.3298 108.639 44.3398 109.179 43.7798 110.029C43.5098 110.459 43.3298 110.939 43.2898 111.449C43.2598 111.959 43.2798 112.529 43.2798 113.069C43.2798 115.259 43.2798 117.439 43.2798 119.609C43.2798 123.959 43.2798 128.279 43.2798 132.559C43.2798 141.139 43.2798 149.579 43.2798 157.889C43.2698 174.489 43.2698 190.509 43.2598 205.769C43.2498 221.029 43.2398 235.529 43.2398 249.089C43.2398 252.479 43.2398 255.819 43.2298 259.089C43.2298 260.729 43.2298 262.349 43.2298 263.949C43.0998 265.509 44.2198 266.959 45.6898 267.259C46.3998 267.389 47.2298 267.309 47.9898 267.329C48.7698 267.329 49.5398 267.329 50.3198 267.329C51.8598 267.329 53.3898 267.329 54.8998 267.329C57.9198 267.329 60.8698 267.339 63.7598 267.339C86.8298 267.379 105.5 267.399 118.42 267.419C124.87 267.439 129.87 267.459 133.28 267.469C134.97 267.479 136.26 267.489 137.14 267.499C138.01 267.499 138.46 267.519 138.46 267.519C138.46 267.519 138.01 267.539 137.14 267.549C136.26 267.559 134.97 267.559 133.28 267.579C129.87 267.589 124.87 267.609 118.42 267.629C105.51 267.649 86.8398 267.679 63.7598 267.709C60.8798 267.709 57.9198 267.719 54.8998 267.719C53.3898 267.719 51.8598 267.719 50.3198 267.719C49.5498 267.719 48.7698 267.719 47.9898 267.719C47.1998 267.689 46.4498 267.789 45.5998 267.639C44.7798 267.469 44.0298 266.989 43.5198 266.309C43.0098 265.649 42.7598 264.759 42.8098 263.939C42.8098 262.329 42.8098 260.709 42.8098 259.079C42.8098 255.809 42.8098 252.469 42.7998 249.079C42.7898 235.509 42.7798 221.009 42.7798 205.759C42.7798 190.499 42.7698 174.489 42.7598 157.879C42.7598 149.579 42.7598 141.129 42.7598 132.549C42.7598 128.259 42.7598 123.939 42.7598 119.599C42.7598 117.429 42.7598 115.249 42.7598 113.059C42.7698 112.499 42.7498 111.989 42.7698 111.399C42.8098 110.809 43.0198 110.239 43.3398 109.739C43.9798 108.739 45.1498 108.109 46.3398 108.119C63.9398 108.119 81.1298 108.119 97.7298 108.129C106.03 108.129 114.18 108.129 122.17 108.139C126.16 108.139 130.11 108.139 134.02 108.139C135 108.139 135.97 108.139 136.94 108.139H138.39C138.9 108.129 139.43 108.239 139.9 108.459C140.84 108.889 141.59 109.739 141.85 110.729C142 111.229 141.99 111.759 141.98 112.219V113.649C141.96 144.159 141.94 171.639 141.92 194.709C141.88 217.779 141.86 236.449 141.84 249.369C141.82 255.819 141.8 260.819 141.79 264.229C141.78 265.099 141.43 265.819 141.03 266.329C140.61 266.829 140.13 267.129 139.72 267.289C139.31 267.459 138.98 267.489 138.76 267.519C138.57 267.519 138.46 267.519 138.46 267.519Z" fill="#263238"/>
<path d="M57.5895 118.648C57.5895 120.258 56.2895 121.558 54.6795 121.558C53.0695 121.558 51.7695 120.258 51.7695 118.648C51.7695 117.038 53.0695 115.738 54.6795 115.738C56.2895 115.738 57.5895 117.038 57.5895 118.648Z" fill="white"/>
<path d="M63.64 121.558C65.2471 121.558 66.55 120.255 66.55 118.648C66.55 117.041 65.2471 115.738 63.64 115.738C62.0328 115.738 60.73 117.041 60.73 118.648C60.73 120.255 62.0328 121.558 63.64 121.558Z" fill="white"/>
<path d="M72.5999 121.558C74.2071 121.558 75.5099 120.255 75.5099 118.648C75.5099 117.041 74.2071 115.738 72.5999 115.738C70.9928 115.738 69.6899 117.041 69.6899 118.648C69.6899 120.255 70.9928 121.558 72.5999 121.558Z" fill="white"/>
<path d="M85.9998 150.258H67.8098C66.7198 150.258 65.8398 149.378 65.8398 148.288C65.8398 147.198 66.7198 146.318 67.8098 146.318H85.9998C87.0898 146.318 87.9698 147.198 87.9698 148.288C87.9698 149.378 87.0898 150.258 85.9998 150.258Z" fill="#263238"/>
<path d="M85.9998 160.588H67.8098C66.7198 160.588 65.8398 159.708 65.8398 158.618C65.8398 157.528 66.7198 156.648 67.8098 156.648H85.9998C87.0898 156.648 87.9698 157.528 87.9698 158.618C87.9698 159.708 87.0898 160.588 85.9998 160.588Z" fill="#E0E0E0"/>
<path d="M86.5199 188.879H68.3299C67.2399 188.879 66.3599 187.999 66.3599 186.909C66.3599 185.819 67.2399 184.939 68.3299 184.939H86.5099C87.5999 184.939 88.4799 185.819 88.4799 186.909C88.4899 187.999 87.6099 188.879 86.5199 188.879Z" fill="#E0E0E0"/>
<path d="M85.9998 171.258H67.8098C66.7198 171.258 65.8398 170.378 65.8398 169.288C65.8398 168.198 66.7198 167.318 67.8098 167.318H85.9998C87.0898 167.318 87.9698 168.198 87.9698 169.288C87.9698 170.378 87.0898 171.258 85.9998 171.258Z" fill="#37AAAF"/>
<path d="M85.9998 230.78H67.8098C66.7198 230.78 65.8398 229.9 65.8398 228.81C65.8398 227.72 66.7198 226.84 67.8098 226.84H85.9998C87.0898 226.84 87.9698 227.72 87.9698 228.81C87.9698 229.89 87.0898 230.78 85.9998 230.78Z" fill="#37AAAF"/>
<path d="M115.13 150.258H96.9397C95.8497 150.258 94.9697 149.378 94.9697 148.288C94.9697 147.198 95.8497 146.318 96.9397 146.318H115.12C116.21 146.318 117.09 147.198 117.09 148.288C117.1 149.378 116.22 150.258 115.13 150.258Z" fill="#455A64"/>
<path d="M134.82 160.588H96.7697C95.7697 160.588 94.9697 159.708 94.9697 158.618C94.9697 157.528 95.7797 156.648 96.7697 156.648H134.81C135.81 156.648 136.61 157.528 136.61 158.618C136.62 159.708 135.81 160.588 134.82 160.588Z" fill="#263238"/>
<path d="M133.79 171.258H95.4896C94.4696 171.258 93.6396 170.378 93.6396 169.288C93.6396 168.198 94.4696 167.318 95.4896 167.318H133.79C134.81 167.318 135.64 168.198 135.64 169.288C135.65 170.378 134.82 171.258 133.79 171.258Z" fill="#E0E0E0"/>
<path d="M106.12 179.889H67.8197C66.7997 179.889 65.9697 179.009 65.9697 177.919C65.9697 176.829 66.7997 175.949 67.8197 175.949H106.12C107.14 175.949 107.97 176.829 107.97 177.919C107.98 179.009 107.15 179.889 106.12 179.889Z" fill="#E0E0E0"/>
<path d="M58.8999 148.289C58.8999 149.399 57.9999 150.289 56.8999 150.289C55.7899 150.289 54.8999 149.389 54.8999 148.289C54.8999 147.179 55.7999 146.289 56.8999 146.289C57.9999 146.289 58.8999 147.179 58.8999 148.289Z" fill="#455A64"/>
<path d="M58.8999 138.41C58.8999 139.52 57.9999 140.41 56.8999 140.41C55.7899 140.41 54.8999 139.51 54.8999 138.41C54.8999 137.31 55.7999 136.41 56.8999 136.41C57.9999 136.41 58.8999 137.3 58.8999 138.41Z" fill="#455A64"/>
<path d="M58.8999 158.59C58.8999 159.7 57.9999 160.59 56.8999 160.59C55.7899 160.59 54.8999 159.69 54.8999 158.59C54.8999 157.48 55.7999 156.59 56.8999 156.59C57.9999 156.58 58.8999 157.48 58.8999 158.59Z" fill="#455A64"/>
<path d="M58.8999 169.289C58.8999 170.399 57.9999 171.289 56.8999 171.289C55.7899 171.289 54.8999 170.389 54.8999 169.289C54.8999 168.189 55.7999 167.289 56.8999 167.289C57.9999 167.289 58.8999 168.179 58.8999 169.289Z" fill="#455A64"/>
<path d="M86.5199 217.758H68.3299C67.2399 217.758 66.3599 216.878 66.3599 215.788C66.3599 214.698 67.2399 213.818 68.3299 213.818H86.5099C87.5999 213.818 88.4799 214.698 88.4799 215.788C88.4899 216.878 87.6099 217.758 86.5199 217.758Z" fill="#E0E0E0"/>
<path d="M85.9998 200.139H67.8098C66.7198 200.139 65.8398 199.259 65.8398 198.169C65.8398 197.079 66.7198 196.199 67.8098 196.199H85.9998C87.0898 196.199 87.9698 197.079 87.9698 198.169C87.9698 199.259 87.0898 200.139 85.9998 200.139Z" fill="#37AAAF"/>
<path d="M133.79 200.139H95.4896C94.4696 200.139 93.6396 199.259 93.6396 198.169C93.6396 197.079 94.4696 196.199 95.4896 196.199H133.79C134.81 196.199 135.64 197.079 135.64 198.169C135.65 199.259 134.82 200.139 133.79 200.139Z" fill="#E0E0E0"/>
<path d="M106.12 208.77H67.8197C66.7997 208.77 65.9697 207.89 65.9697 206.8C65.9697 205.71 66.7997 204.83 67.8197 204.83H106.12C107.14 204.83 107.97 205.71 107.97 206.8C107.98 207.89 107.15 208.77 106.12 208.77Z" fill="#E0E0E0"/>
<path d="M58.8999 198.17C58.8999 199.28 57.9999 200.17 56.8999 200.17C55.7899 200.17 54.8999 199.27 54.8999 198.17C54.8999 197.07 55.7999 196.17 56.8999 196.17C57.9999 196.17 58.8999 197.07 58.8999 198.17Z" fill="#455A64"/>
<path d="M78.2897 140.789H66.9097C66.3797 140.789 65.9497 140.359 65.9497 139.829V137.939C65.9497 137.409 66.3797 136.979 66.9097 136.979H78.2897C78.8197 136.979 79.2497 137.409 79.2497 137.939V139.829C79.2497 140.359 78.8197 140.789 78.2897 140.789Z" fill="#455A64"/>
<path d="M85.9998 241.288H67.8098C66.7198 241.288 65.8398 240.408 65.8398 239.318C65.8398 238.228 66.7198 237.348 67.8098 237.348H85.9998C87.0898 237.348 87.9698 238.228 87.9698 239.318C87.9698 240.408 87.0898 241.288 85.9998 241.288Z" fill="#263238"/>
<path d="M115.13 241.288H96.9397C95.8497 241.288 94.9697 240.408 94.9697 239.318C94.9697 238.228 95.8497 237.348 96.9397 237.348H115.12C116.21 237.348 117.09 238.228 117.09 239.318C117.1 240.408 116.22 241.288 115.13 241.288Z" fill="#455A64"/>
<path d="M58.8999 239.318C58.8999 240.428 57.9999 241.318 56.8999 241.318C55.7899 241.318 54.8999 240.418 54.8999 239.318C54.8999 238.208 55.7999 237.318 56.8999 237.318C57.9999 237.308 58.8999 238.208 58.8999 239.318Z" fill="#455A64"/>
<path d="M58.8999 248.818C58.8999 249.928 57.9999 250.818 56.8999 250.818C55.7899 250.818 54.8999 249.918 54.8999 248.818C54.8999 247.708 55.7999 246.818 56.8999 246.818C57.9999 246.818 58.8999 247.708 58.8999 248.818Z" fill="#455A64"/>
<path d="M78.2897 251.199H66.9097C66.3797 251.199 65.9497 250.769 65.9497 250.239V248.349C65.9497 247.819 66.3797 247.389 66.9097 247.389H78.2897C78.8197 247.389 79.2497 247.819 79.2497 248.349V250.239C79.2497 250.779 78.8197 251.199 78.2897 251.199Z" fill="#455A64"/>
<path d="M328.71 242.949H148.36V357.669H328.71V242.949Z" fill="white"/>
<path d="M180.84 242.949H148.36V357.669H180.84V242.949Z" fill="#EBEBEB"/>
<path d="M162.64 255.329C162.81 255.229 162.99 255.149 163.18 255.089L163.29 254.549L164.19 254.529L164.32 255.059C164.51 255.109 164.69 255.179 164.87 255.279L165.33 254.979L165.98 255.609L165.7 256.079C165.8 256.249 165.88 256.429 165.94 256.619L166.48 256.729L166.5 257.629L165.97 257.759C165.92 257.949 165.85 258.129 165.75 258.309L166.05 258.769L165.42 259.419L164.95 259.139C164.78 259.239 164.6 259.319 164.41 259.369L164.3 259.909L163.4 259.929L163.27 259.399C163.08 259.349 162.9 259.279 162.72 259.179L162.26 259.479L161.61 258.849L161.89 258.379C161.79 258.209 161.71 258.029 161.65 257.839L161.11 257.729L161.09 256.829L161.62 256.699C161.67 256.509 161.74 256.329 161.84 256.149L161.54 255.689L162.17 255.039L162.64 255.329ZM163.12 256.539C162.75 256.929 162.76 257.539 163.14 257.909C163.53 258.279 164.14 258.269 164.51 257.889C164.88 257.499 164.87 256.889 164.49 256.519C164.11 256.139 163.49 256.149 163.12 256.539Z" fill="#E0E0E0"/>
<path d="M170.14 280.678H155.98C155.18 280.678 154.52 280.028 154.52 279.218C154.52 278.418 155.17 277.758 155.98 277.758H170.14C170.94 277.758 171.6 278.408 171.6 279.218C171.6 280.028 170.95 280.678 170.14 280.678Z" fill="#E0E0E0"/>
<path d="M170.14 273.268H155.98C155.18 273.268 154.52 272.618 154.52 271.808C154.52 271.008 155.17 270.348 155.98 270.348H170.14C170.94 270.348 171.6 270.998 171.6 271.808C171.6 272.608 170.95 273.268 170.14 273.268Z" fill="#E0E0E0"/>
<path d="M170.14 266.479H155.98C155.18 266.479 154.52 265.829 154.52 265.019C154.52 264.219 155.17 263.559 155.98 263.559H170.14C170.94 263.559 171.6 264.209 171.6 265.019C171.6 265.829 170.95 266.479 170.14 266.479Z" fill="#E0E0E0"/>
<path d="M208.19 259.898H194.78C193.98 259.898 193.32 259.249 193.32 258.439C193.32 257.639 193.97 256.979 194.78 256.979H208.19C208.99 256.979 209.65 257.629 209.65 258.439C209.64 259.249 208.99 259.898 208.19 259.898Z" fill="#263238"/>
<path d="M208.19 267.518H194.78C193.98 267.518 193.32 266.868 193.32 266.058C193.32 265.258 193.97 264.598 194.78 264.598H208.19C208.99 264.598 209.65 265.248 209.65 266.058C209.64 266.868 208.99 267.518 208.19 267.518Z" fill="#E0E0E0"/>
<path d="M208.19 275.389H194.78C193.98 275.389 193.32 274.739 193.32 273.929C193.32 273.129 193.97 272.469 194.78 272.469H208.19C208.99 272.469 209.65 273.119 209.65 273.929C209.64 274.739 208.99 275.389 208.19 275.389Z" fill="#37AAAF"/>
<path d="M202.47 290.609H194.78C193.98 290.609 193.32 289.959 193.32 289.149C193.32 288.349 193.97 287.689 194.78 287.689H202.47C203.27 287.689 203.93 288.339 203.93 289.149C203.92 289.959 203.27 290.609 202.47 290.609Z" fill="#263238"/>
<path d="M202.47 298.498H194.78C193.98 298.498 193.32 297.848 193.32 297.038C193.32 296.238 193.97 295.578 194.78 295.578H202.47C203.27 295.578 203.93 296.228 203.93 297.038C203.92 297.848 203.27 298.498 202.47 298.498Z" fill="#263238"/>
<path d="M225.32 298.498H211.22C210.42 298.498 209.76 297.848 209.76 297.038C209.76 296.238 210.41 295.578 211.22 295.578H225.32C226.12 295.578 226.78 296.228 226.78 297.038C226.78 297.848 226.13 298.498 225.32 298.498Z" fill="#E0E0E0"/>
<path d="M217.35 305.508H203.25C202.45 305.508 201.79 304.858 201.79 304.048C201.79 303.248 202.44 302.588 203.25 302.588H217.35C218.15 302.588 218.81 303.238 218.81 304.048C218.8 304.858 218.15 305.508 217.35 305.508Z" fill="#37AAAF"/>
<path d="M220.47 313.519H210.78C210.23 313.519 209.79 313.079 209.79 312.529V311.609C209.79 311.059 210.23 310.619 210.78 310.619H220.47C221.02 310.619 221.46 311.059 221.46 311.609V312.529C221.46 313.069 221.02 313.519 220.47 313.519Z" fill="#37AAAF"/>
<path d="M220.01 329.199H211.25C210.45 329.199 209.79 328.549 209.79 327.739C209.79 326.939 210.44 326.279 211.25 326.279H220.01C220.81 326.279 221.47 326.929 221.47 327.739C221.46 328.549 220.81 329.199 220.01 329.199Z" fill="#37AAAF"/>
<path d="M220.01 345.758H211.25C210.45 345.758 209.79 345.108 209.79 344.298C209.79 343.498 210.44 342.838 211.25 342.838H220.01C220.81 342.838 221.47 343.488 221.47 344.298C221.46 345.108 220.81 345.758 220.01 345.758Z" fill="#37AAAF"/>
<path d="M241.55 345.758H226.19C225.39 345.758 224.73 345.108 224.73 344.298C224.73 343.498 225.38 342.838 226.19 342.838H241.55C242.35 342.838 243.01 343.488 243.01 344.298C243 345.108 242.35 345.758 241.55 345.758Z" fill="#455A64"/>
<path d="M252.3 345.758H250.09C249.29 345.758 248.63 345.108 248.63 344.298C248.63 343.498 249.28 342.838 250.09 342.838H252.3C253.1 342.838 253.76 343.488 253.76 344.298C253.76 345.108 253.1 345.758 252.3 345.758Z" fill="#E0E0E0"/>
<path d="M240.63 329.199H227.65C226.85 329.199 226.19 328.549 226.19 327.739C226.19 326.939 226.84 326.279 227.65 326.279H240.63C241.43 326.279 242.09 326.929 242.09 327.739C242.08 328.549 241.43 329.199 240.63 329.199Z" fill="#E0E0E0"/>
<path d="M269.1 336.469H227.65C226.85 336.469 226.19 335.819 226.19 335.009C226.19 334.209 226.84 333.549 227.65 333.549H269.1C269.9 333.549 270.55 334.199 270.55 335.009C270.55 335.819 269.9 336.469 269.1 336.469Z" fill="#E0E0E0"/>
<path d="M273.88 329.199H247.42C246.62 329.199 245.96 328.549 245.96 327.739C245.96 326.939 246.61 326.279 247.42 326.279H273.88C274.68 326.279 275.34 326.929 275.34 327.739C275.34 328.549 274.69 329.199 273.88 329.199Z" fill="#455A64"/>
<path d="M238.16 313.519H226.27C225.72 313.519 225.28 313.079 225.28 312.529V311.609C225.28 311.059 225.72 310.619 226.27 310.619H238.16C238.71 310.619 239.15 311.059 239.15 311.609V312.529C239.15 313.069 238.7 313.519 238.16 313.519Z" fill="#455A64"/>
<path d="M247.65 313.519H244C243.45 313.519 243.01 313.079 243.01 312.529V311.609C243.01 311.059 243.45 310.619 244 310.619H247.65C248.2 310.619 248.64 311.059 248.64 311.609V312.529C248.64 313.069 248.19 313.519 247.65 313.519Z" fill="#E0E0E0"/>
<path d="M268.55 313.519H253.92C253.37 313.519 252.93 313.079 252.93 312.529V311.609C252.93 311.059 253.37 310.619 253.92 310.619H268.55C269.1 310.619 269.54 311.059 269.54 311.609V312.529C269.54 313.069 269.1 313.519 268.55 313.519Z" fill="#E0E0E0"/>
<path d="M226.9 305.508H223.76C222.96 305.508 222.3 304.858 222.3 304.048C222.3 303.248 222.95 302.588 223.76 302.588H226.9C227.7 302.588 228.36 303.238 228.36 304.048C228.35 304.858 227.7 305.508 226.9 305.508Z" fill="#263238"/>
<path d="M253.52 305.508H233.51C232.71 305.508 232.05 304.858 232.05 304.048C232.05 303.248 232.7 302.588 233.51 302.588H253.52C254.32 302.588 254.98 303.238 254.98 304.048C254.98 304.858 254.32 305.508 253.52 305.508Z" fill="#E0E0E0"/>
<path d="M229.67 259.898H216.26C215.46 259.898 214.8 259.249 214.8 258.439C214.8 257.639 215.45 256.979 216.26 256.979H229.67C230.47 256.979 231.13 257.629 231.13 258.439C231.13 259.249 230.48 259.898 229.67 259.898Z" fill="#455A64"/>
<path d="M246.95 267.518H216.26C215.46 267.518 214.8 266.868 214.8 266.058C214.8 265.258 215.45 264.598 216.26 264.598H246.95C247.75 264.598 248.41 265.248 248.41 266.058C248.41 266.868 247.76 267.518 246.95 267.518Z" fill="#263238"/>
<path d="M280 275.389H216.26C215.46 275.389 214.8 274.739 214.8 273.929C214.8 273.129 215.45 272.469 216.26 272.469H280C280.8 272.469 281.46 273.119 281.46 273.929C281.45 274.739 280.8 275.389 280 275.389Z" fill="#E0E0E0"/>
<path d="M246.31 280.94H216.26C215.46 280.94 214.8 280.29 214.8 279.48C214.8 278.68 215.45 278.02 216.26 278.02H246.31C247.11 278.02 247.77 278.67 247.77 279.48C247.77 280.28 247.12 280.94 246.31 280.94Z" fill="#E0E0E0"/>
<path d="M240.17 290.609H210.12C209.32 290.609 208.66 289.959 208.66 289.149C208.66 288.349 209.31 287.689 210.12 287.689H240.17C240.97 287.689 241.63 288.339 241.63 289.149C241.62 289.959 240.97 290.609 240.17 290.609Z" fill="#455A64"/>
<path d="M256.99 290.609H246.92C246.12 290.609 245.46 289.959 245.46 289.149C245.46 288.349 246.11 287.689 246.92 287.689H256.99C257.79 287.689 258.45 288.339 258.45 289.149C258.45 289.959 257.79 290.609 256.99 290.609Z" fill="#37AAAF"/>
<path d="M282.75 290.559H263.72C262.92 290.559 262.26 289.909 262.26 289.099C262.26 288.299 262.91 287.639 263.72 287.639H282.75C283.55 287.639 284.21 288.289 284.21 289.099C284.2 289.909 283.55 290.559 282.75 290.559Z" fill="#263238"/>
<path d="M308.64 290.559H289.61C288.81 290.559 288.15 289.909 288.15 289.099C288.15 288.299 288.8 287.639 289.61 287.639H308.64C309.44 287.639 310.1 288.289 310.1 289.099C310.1 289.909 309.45 290.559 308.64 290.559Z" fill="#E0E0E0"/>
<path d="M164.01 288.529H155.98C155.18 288.529 154.52 287.879 154.52 287.069C154.52 286.269 155.17 285.609 155.98 285.609H164.01C164.81 285.609 165.47 286.259 165.47 287.069C165.46 287.869 164.81 288.529 164.01 288.529Z" fill="#E0E0E0"/>
<path d="M161.61 312.068H155.99C155.19 312.068 154.53 311.418 154.53 310.608C154.53 309.808 155.18 309.148 155.99 309.148H161.61C162.41 309.148 163.07 309.798 163.07 310.608C163.06 311.418 162.41 312.068 161.61 312.068Z" fill="#E0E0E0"/>
<path d="M171.6 296.369H155.99C155.19 296.369 154.53 295.719 154.53 294.909C154.53 294.109 155.18 293.449 155.99 293.449H171.6C172.4 293.449 173.06 294.099 173.06 294.909C173.05 295.719 172.4 296.369 171.6 296.369Z" fill="#E0E0E0"/>
<path d="M168.86 304.219H155.98C155.18 304.219 154.52 303.569 154.52 302.759C154.52 301.959 155.17 301.299 155.98 301.299H168.86C169.66 301.299 170.32 301.949 170.32 302.759C170.31 303.569 169.66 304.219 168.86 304.219Z" fill="#E0E0E0"/>
<path d="M188.2 258.449C188.2 259.269 187.54 259.929 186.72 259.929C185.9 259.929 185.24 259.269 185.24 258.449C185.24 257.629 185.9 256.969 186.72 256.969C187.54 256.969 188.2 257.629 188.2 258.449Z" fill="#455A64"/>
<path d="M186.72 252.159C187.537 252.159 188.2 251.497 188.2 250.679C188.2 249.862 187.537 249.199 186.72 249.199C185.902 249.199 185.24 249.862 185.24 250.679C185.24 251.497 185.902 252.159 186.72 252.159Z" fill="#455A64"/>
<path d="M186.72 267.519C187.537 267.519 188.2 266.856 188.2 266.039C188.2 265.221 187.537 264.559 186.72 264.559C185.902 264.559 185.24 265.221 185.24 266.039C185.24 266.856 185.902 267.519 186.72 267.519Z" fill="#455A64"/>
<path d="M186.72 275.419C187.537 275.419 188.2 274.756 188.2 273.939C188.2 273.122 187.537 272.459 186.72 272.459C185.902 272.459 185.24 273.122 185.24 273.939C185.24 274.756 185.902 275.419 186.72 275.419Z" fill="#455A64"/>
<path d="M186.72 283.308C187.537 283.308 188.2 282.645 188.2 281.828C188.2 281.01 187.537 280.348 186.72 280.348C185.902 280.348 185.24 281.01 185.24 281.828C185.24 282.645 185.902 283.308 186.72 283.308Z" fill="#455A64"/>
<path d="M188.2 289.718C188.2 290.538 187.54 291.198 186.72 291.198C185.9 291.198 185.24 290.538 185.24 289.718C185.24 288.898 185.9 288.238 186.72 288.238C187.54 288.248 188.2 288.908 188.2 289.718Z" fill="#455A64"/>
<path d="M186.72 299.099C187.537 299.099 188.2 298.436 188.2 297.619C188.2 296.801 187.537 296.139 186.72 296.139C185.902 296.139 185.24 296.801 185.24 297.619C185.24 298.436 185.902 299.099 186.72 299.099Z" fill="#455A64"/>
<path d="M186.72 306.989C187.537 306.989 188.2 306.327 188.2 305.509C188.2 304.692 187.537 304.029 186.72 304.029C185.902 304.029 185.24 304.692 185.24 305.509C185.24 306.327 185.902 306.989 186.72 306.989Z" fill="#455A64"/>
<path d="M188.2 313.408C188.2 314.228 187.54 314.888 186.72 314.888C185.9 314.888 185.24 314.228 185.24 313.408C185.24 312.588 185.9 311.928 186.72 311.928C187.54 311.928 188.2 312.588 188.2 313.408Z" fill="#455A64"/>
<path d="M188.2 321.298C188.2 322.118 187.54 322.778 186.72 322.778C185.9 322.778 185.24 322.118 185.24 321.298C185.24 320.478 185.9 319.818 186.72 319.818C187.54 319.818 188.2 320.488 188.2 321.298Z" fill="#455A64"/>
<path d="M186.72 330.679C187.537 330.679 188.2 330.016 188.2 329.199C188.2 328.381 187.537 327.719 186.72 327.719C185.902 327.719 185.24 328.381 185.24 329.199C185.24 330.016 185.902 330.679 186.72 330.679Z" fill="#455A64"/>
<path d="M188.2 337.089C188.2 337.909 187.54 338.569 186.72 338.569C185.9 338.569 185.24 337.909 185.24 337.089C185.24 336.269 185.9 335.609 186.72 335.609C187.54 335.609 188.2 336.279 188.2 337.089Z" fill="#455A64"/>
<path d="M186.72 346.468C187.537 346.468 188.2 345.805 188.2 344.988C188.2 344.17 187.537 343.508 186.72 343.508C185.902 343.508 185.24 344.17 185.24 344.988C185.24 345.805 185.902 346.468 186.72 346.468Z" fill="#455A64"/>
<path d="M324.88 227.309H153.77C150.79 227.309 148.37 229.729 148.37 232.709V242.949H328.72V231.139C328.71 229.029 327 227.309 324.88 227.309Z" fill="#E0E0E0"/>
<path d="M157.68 237.759C158.867 237.759 159.83 236.796 159.83 235.609C159.83 234.422 158.867 233.459 157.68 233.459C156.492 233.459 155.53 234.422 155.53 235.609C155.53 236.796 156.492 237.759 157.68 237.759Z" fill="white"/>
<path d="M166.44 235.609C166.44 236.799 165.48 237.759 164.29 237.759C163.1 237.759 162.14 236.799 162.14 235.609C162.14 234.419 163.1 233.459 164.29 233.459C165.48 233.459 166.44 234.419 166.44 235.609Z" fill="white"/>
<path d="M173.05 235.609C173.05 236.799 172.09 237.759 170.9 237.759C169.71 237.759 168.75 236.799 168.75 235.609C168.75 234.419 169.71 233.459 170.9 233.459C172.09 233.459 173.05 234.419 173.05 235.609Z" fill="white"/>
<path d="M186.72 355.889L201.97 372.359L215.8 355.889H186.72Z" fill="white"/>
<path d="M323.82 357.679C323.81 357.639 324.39 357.729 325.4 357.389C325.9 357.219 326.5 356.909 327.08 356.379C327.66 355.859 328.21 355.079 328.48 354.079C328.63 353.579 328.66 353.039 328.65 352.449C328.65 351.869 328.65 351.249 328.64 350.609C328.64 349.319 328.63 347.919 328.63 346.389C328.62 343.339 328.61 339.819 328.61 335.859C328.59 320.009 328.56 297.089 328.53 268.759C328.52 261.679 328.52 254.259 328.51 246.529C328.51 242.659 328.5 238.719 328.5 234.699C328.49 233.709 328.53 232.659 328.47 231.699C328.36 230.739 327.96 229.799 327.29 229.079C326.64 228.339 325.74 227.839 324.78 227.629C323.83 227.459 322.75 227.559 321.72 227.529C305.06 227.539 287.27 227.549 268.54 227.549C249.81 227.549 230.15 227.559 209.78 227.569C199.59 227.569 189.22 227.569 178.7 227.569C173.44 227.569 168.14 227.569 162.8 227.569C160.13 227.569 157.46 227.569 154.77 227.569C154.11 227.579 153.4 227.549 152.78 227.589C152.15 227.649 151.53 227.849 150.97 228.169C149.86 228.799 149.03 229.899 148.74 231.149C148.53 231.999 148.64 232.969 148.62 233.899V236.719C148.62 238.599 148.62 240.469 148.62 242.339C148.62 246.079 148.62 249.799 148.62 253.499C148.62 260.899 148.62 268.239 148.62 275.489C148.62 289.989 148.61 304.159 148.61 317.929C148.61 324.809 148.61 331.599 148.6 338.269C148.6 341.609 148.6 344.909 148.6 348.189C148.61 349.819 148.58 351.479 148.61 353.069C148.68 354.619 149.61 356.069 150.95 356.829C151.61 357.219 152.37 357.409 153.13 357.439C153.93 357.439 154.73 357.439 155.52 357.449C157.11 357.449 158.7 357.449 160.28 357.449C163.44 357.449 166.56 357.449 169.66 357.449C175.85 357.449 181.9 357.459 187.82 357.459H187.92L187.99 357.529C192.79 362.579 197.44 367.479 201.95 372.229L201.64 372.239C205.92 367.149 210.03 362.269 213.98 357.559L214.04 357.489H214.13C247.89 357.529 275.31 357.559 294.3 357.579C303.79 357.599 311.17 357.619 316.18 357.629C318.68 357.639 320.59 357.649 321.88 357.659C323.16 357.659 323.82 357.679 323.82 357.679C323.82 357.679 323.16 357.699 321.88 357.709C320.59 357.719 318.68 357.729 316.18 357.739C311.16 357.749 303.78 357.769 294.3 357.789C275.31 357.809 247.89 357.839 214.13 357.879L214.28 357.809C210.33 362.519 206.23 367.409 201.95 372.509L201.8 372.689L201.64 372.519C197.12 367.779 192.46 362.879 187.66 357.839L187.82 357.909C181.91 357.909 175.85 357.919 169.66 357.919C166.57 357.919 163.44 357.919 160.28 357.919C158.7 357.919 157.11 357.919 155.52 357.919C154.72 357.919 153.92 357.919 153.12 357.909C152.28 357.879 151.44 357.669 150.71 357.239C149.24 356.409 148.21 354.809 148.13 353.099C148.1 351.449 148.12 349.839 148.11 348.189C148.11 344.909 148.11 341.599 148.11 338.269C148.11 331.599 148.11 324.819 148.1 317.929C148.1 304.159 148.1 289.989 148.09 275.489C148.09 268.239 148.09 260.909 148.09 253.499C148.09 249.799 148.09 246.079 148.09 242.339C148.09 240.469 148.09 238.599 148.09 236.719V233.899V232.489C148.08 232.029 148.11 231.509 148.23 231.029C148.55 229.639 149.47 228.409 150.71 227.719C151.33 227.369 152.02 227.149 152.72 227.079C153.44 227.029 154.08 227.069 154.76 227.049C157.44 227.049 160.12 227.049 162.79 227.049C168.13 227.049 173.43 227.049 178.69 227.049C189.21 227.049 199.58 227.049 209.77 227.049C230.15 227.059 249.81 227.059 268.53 227.069C287.26 227.079 305.05 227.089 321.71 227.089C322.75 227.119 323.77 227.009 324.86 227.199C325.91 227.429 326.89 227.979 327.6 228.789C328.32 229.579 328.76 230.599 328.88 231.649C328.94 232.709 328.9 233.679 328.91 234.699C328.91 238.719 328.9 242.659 328.9 246.529C328.89 254.259 328.89 261.679 328.88 268.759C328.85 297.079 328.82 320.009 328.8 335.859C328.79 339.819 328.78 343.339 328.78 346.389C328.78 347.909 328.77 349.319 328.77 350.609C328.77 351.249 328.77 351.869 328.76 352.449C328.77 353.029 328.73 353.599 328.57 354.099C328.28 355.119 327.72 355.899 327.12 356.429C326.53 356.969 325.91 357.269 325.4 357.429C324.89 357.599 324.48 357.649 324.21 357.669C323.96 357.679 323.82 357.679 323.82 357.679Z" fill="#263238"/>
<path d="M298.149 203.978H162.529C160.779 203.978 159.359 202.558 159.359 200.808V131.658C159.359 129.908 160.779 128.488 162.529 128.488H298.779C300.529 128.488 301.949 129.908 301.949 131.658V200.188C301.939 202.278 300.239 203.978 298.149 203.978Z" fill="white"/>
<path d="M301.939 144.698H159.359V131.958C159.359 130.038 160.909 128.488 162.829 128.488H298.469C300.389 128.488 301.939 130.038 301.939 131.958V144.698Z" fill="#E0E0E0"/>
<path d="M297.93 203.979C297.93 203.959 298.31 203.989 299.02 203.799C299.7 203.599 300.77 203.069 301.44 201.799C301.78 201.169 301.93 200.379 301.88 199.499C301.88 198.619 301.87 197.649 301.87 196.599C301.86 194.509 301.86 192.089 301.85 189.369C301.83 178.479 301.8 162.749 301.77 143.309C301.77 140.879 301.76 138.389 301.76 135.849C301.76 134.579 301.76 133.289 301.76 131.989C301.87 130.729 301.18 129.489 300.03 128.959C299.46 128.679 298.84 128.669 298.16 128.679C297.49 128.679 296.82 128.679 296.14 128.679C294.79 128.679 293.42 128.679 292.04 128.679C289.28 128.679 286.47 128.679 283.61 128.689C272.18 128.699 259.96 128.709 247.11 128.709C221.4 128.719 193.14 128.719 163.47 128.729C162.99 128.729 162.56 128.719 162.15 128.819C161.73 128.919 161.34 129.099 160.99 129.349C160.29 129.849 159.81 130.629 159.68 131.479C159.61 131.889 159.64 132.359 159.63 132.819V134.199V136.949C159.63 140.609 159.63 144.249 159.63 147.869C159.63 155.099 159.63 162.219 159.63 169.209C159.63 176.209 159.63 183.079 159.62 189.809C159.62 193.179 159.62 196.499 159.62 199.799C159.55 201.369 160.53 202.889 161.97 203.439C162.68 203.749 163.45 203.719 164.27 203.719C165.08 203.719 165.88 203.719 166.69 203.719C192.4 203.739 215.55 203.759 235 203.779C254.44 203.809 270.17 203.839 281.05 203.859C286.48 203.879 290.7 203.899 293.57 203.909C294.99 203.919 296.08 203.929 296.83 203.939C297.55 203.959 297.93 203.979 297.93 203.979C297.93 203.979 297.55 203.999 296.82 204.009C296.08 204.019 294.99 204.019 293.56 204.039C290.69 204.049 286.47 204.069 281.04 204.089C270.16 204.109 254.42 204.139 234.99 204.169C215.54 204.189 192.39 204.199 166.68 204.229C165.88 204.229 165.07 204.229 164.26 204.229C163.48 204.239 162.58 204.269 161.77 203.919C160.14 203.299 159.03 201.559 159.11 199.829C159.11 196.539 159.11 193.209 159.11 189.839C159.11 183.109 159.11 176.239 159.1 169.239C159.1 162.239 159.1 155.119 159.1 147.899C159.1 144.289 159.1 140.649 159.1 136.979V134.229V132.849C159.11 132.389 159.07 131.929 159.15 131.429C159.3 130.449 159.86 129.539 160.67 128.959C161.07 128.669 161.53 128.459 162.02 128.339C162.51 128.219 163.01 128.239 163.46 128.229C193.13 128.239 221.39 128.239 247.1 128.249C259.95 128.259 272.17 128.269 283.6 128.269C286.46 128.269 289.27 128.269 292.03 128.279C293.41 128.279 294.78 128.279 296.13 128.279C296.81 128.279 297.48 128.279 298.15 128.279C298.8 128.259 299.56 128.279 300.19 128.599C301.49 129.179 302.28 130.649 302.15 131.989C302.15 133.289 302.15 134.579 302.15 135.849C302.15 138.389 302.14 140.879 302.14 143.309C302.11 162.749 302.08 178.479 302.06 189.369C302.05 192.089 302.04 194.499 302.04 196.599C302.04 197.649 302.03 198.609 302.03 199.499C302.03 199.939 302.03 200.369 301.94 200.769C301.85 201.169 301.72 201.529 301.55 201.849C300.84 203.139 299.75 203.659 299.05 203.849C298.31 204.029 297.93 203.979 297.93 203.979Z" fill="#263238"/>
<path d="M169.97 140.519C171.439 140.519 172.63 139.328 172.63 137.859C172.63 136.39 171.439 135.199 169.97 135.199C168.5 135.199 167.31 136.39 167.31 137.859C167.31 139.328 168.5 140.519 169.97 140.519Z" fill="white"/>
<path d="M180.79 137.859C180.79 139.329 179.6 140.519 178.13 140.519C176.66 140.519 175.47 139.329 175.47 137.859C175.47 136.389 176.66 135.199 178.13 135.199C179.6 135.199 180.79 136.389 180.79 137.859Z" fill="white"/>
<path d="M186.309 140.519C187.778 140.519 188.969 139.328 188.969 137.859C188.969 136.39 187.778 135.199 186.309 135.199C184.84 135.199 183.649 136.39 183.649 137.859C183.649 139.328 184.84 140.519 186.309 140.519Z" fill="white"/>
<path d="M200.44 167.537H183.86C182.87 167.537 182.06 166.728 182.06 165.738C182.06 164.748 182.87 163.938 183.86 163.938H200.44C201.43 163.938 202.24 164.748 202.24 165.738C202.24 166.738 201.43 167.537 200.44 167.537Z" fill="#263238"/>
<path d="M200.44 176.957H183.86C182.87 176.957 182.06 176.147 182.06 175.157C182.06 174.167 182.87 173.357 183.86 173.357H200.44C201.43 173.357 202.24 174.167 202.24 175.157C202.24 176.147 201.43 176.957 200.44 176.957Z" fill="#E0E0E0"/>
<path d="M287.94 167.537H239.86C238.87 167.537 238.06 166.728 238.06 165.738C238.06 164.748 238.87 163.938 239.86 163.938H287.94C288.93 163.938 289.74 164.748 289.74 165.738C289.74 166.738 288.93 167.537 287.94 167.537Z" fill="#E0E0E0"/>
<path d="M200.44 186.688H183.86C182.87 186.688 182.06 185.878 182.06 184.888C182.06 183.898 182.87 183.088 183.86 183.088H200.44C201.43 183.088 202.24 183.898 202.24 184.888C202.24 185.878 201.43 186.688 200.44 186.688Z" fill="#37AAAF"/>
<path d="M276.469 176.957H259.889C258.899 176.957 258.089 176.147 258.089 175.157C258.089 174.167 258.899 173.357 259.889 173.357H276.469C277.459 173.357 278.269 174.167 278.269 175.157C278.269 176.147 277.459 176.957 276.469 176.957Z" fill="#37AAAF"/>
<path d="M227 167.537H210.42C209.43 167.537 208.62 166.728 208.62 165.738C208.62 164.748 209.43 163.938 210.42 163.938H227C227.99 163.938 228.8 164.748 228.8 165.738C228.79 166.738 227.99 167.537 227 167.537Z" fill="#455A64"/>
<path d="M248.35 176.957H210.42C209.43 176.957 208.62 176.147 208.62 175.157C208.62 174.167 209.43 173.357 210.42 173.357H248.35C249.34 173.357 250.15 174.167 250.15 175.157C250.15 176.147 249.35 176.957 248.35 176.957Z" fill="#263238"/>
<path d="M285.56 186.688H210.34C209.39 186.688 208.62 185.878 208.62 184.888C208.62 183.898 209.39 183.088 210.34 183.088H285.56C286.51 183.088 287.28 183.898 287.28 184.888C287.27 185.878 286.51 186.688 285.56 186.688Z" fill="#E0E0E0"/>
<path d="M247.56 193.537H210.42C209.43 193.537 208.62 192.728 208.62 191.738C208.62 190.748 209.43 189.938 210.42 189.938H247.56C248.55 189.938 249.36 190.748 249.36 191.738C249.36 192.728 248.56 193.537 247.56 193.537Z" fill="#E0E0E0"/>
<path d="M175.74 165.748C175.74 166.758 174.92 167.578 173.91 167.578C172.9 167.578 172.08 166.758 172.08 165.748C172.08 164.738 172.9 163.918 173.91 163.918C174.92 163.918 175.74 164.738 175.74 165.748Z" fill="#455A64"/>
<path d="M175.74 156.738C175.74 157.748 174.92 158.568 173.91 158.568C172.9 158.568 172.08 157.748 172.08 156.738C172.08 155.728 172.9 154.908 173.91 154.908C174.92 154.908 175.74 155.728 175.74 156.738Z" fill="#455A64"/>
<path d="M173.91 176.959C174.92 176.959 175.74 176.14 175.74 175.129C175.74 174.118 174.92 173.299 173.91 173.299C172.899 173.299 172.08 174.118 172.08 175.129C172.08 176.14 172.899 176.959 173.91 176.959Z" fill="#455A64"/>
<path d="M173.91 186.719C174.92 186.719 175.74 185.899 175.74 184.889C175.74 183.878 174.92 183.059 173.91 183.059C172.899 183.059 172.08 183.878 172.08 184.889C172.08 185.899 172.899 186.719 173.91 186.719Z" fill="#455A64"/>
<path d="M193.609 158.048H183.399C182.869 158.048 182.439 157.618 182.439 157.088V155.538C182.439 155.008 182.869 154.578 183.399 154.578H193.609C194.139 154.578 194.569 155.008 194.569 155.538V157.088C194.569 157.618 194.139 158.048 193.609 158.048Z" fill="#455A64"/>
<path d="M89.5302 439.009C81.1902 442.639 73.1502 442.979 65.5102 439.009L59.9302 392.279H94.5802L89.5302 439.009Z" fill="#B7B7B7"/>
<path d="M92.2998 389.569L91.2598 386.229L65.1598 383.039C64.4498 382.949 63.7698 383.379 63.5398 384.049L61.6398 389.559H58.2998V395.609C71.4098 397.919 83.9598 398.059 95.8398 395.609V389.559H92.2998V389.569Z" fill="#E0E0E0"/>
<path d="M92.3 389.57C92.31 389.56 92.39 389.56 92.54 389.55C92.73 389.54 92.95 389.54 93.23 389.53C93.87 389.52 94.74 389.5 95.84 389.48H95.94V389.58C95.95 391.14 95.97 393.18 96 395.63V395.76L95.87 395.79C91.71 396.66 86.19 397.5 79.76 397.63C73.33 397.78 66.02 397.25 58.4 395.92L58.26 395.9L58.04 395.86V395.64C58.04 393.59 58.04 391.56 58.04 389.59V389.33H58.3C59.43 389.33 60.54 389.33 61.64 389.33L61.4 389.5C62.04 387.65 62.66 385.85 63.27 384.1C63.4 383.61 63.79 383.14 64.28 382.95C64.52 382.85 64.79 382.8 65.05 382.81C65.31 382.83 65.51 382.86 65.74 382.89C66.63 383 67.51 383.11 68.38 383.22C71.83 383.65 75.05 384.06 77.97 384.43C83.74 385.18 88.33 385.77 91.27 386.16L91.33 386.17L91.35 386.23C91.66 387.28 91.89 388.1 92.07 388.71C92.14 388.97 92.2 389.19 92.25 389.36C92.29 389.48 92.3 389.56 92.3 389.57C92.29 389.58 92.27 389.51 92.22 389.37C92.16 389.2 92.09 389 92 388.75C91.8 388.15 91.52 387.32 91.17 386.26L91.25 386.33C88.3 385.99 83.71 385.47 77.93 384.81C75.01 384.46 71.79 384.08 68.33 383.67C67.46 383.57 66.58 383.46 65.69 383.35C65.22 383.3 64.82 383.21 64.47 383.38C64.11 383.54 63.85 383.83 63.73 384.24C63.13 386 62.51 387.8 61.88 389.65L61.82 389.82H61.64C60.55 389.82 59.43 389.82 58.3 389.82L58.56 389.56C58.56 391.53 58.56 393.55 58.56 395.61L58.34 395.35L58.48 395.37C66.07 396.7 73.34 397.25 79.74 397.13C86.14 397.03 91.65 396.25 95.8 395.45L95.68 395.6C95.7 393.15 95.72 391.11 95.74 389.55L95.84 389.65C94.71 389.63 93.83 389.61 93.18 389.6C92.91 389.59 92.69 389.58 92.51 389.58C92.37 389.58 92.29 389.57 92.3 389.57Z" fill="#263238"/>
<path d="M91.9802 423.52C82.9302 424.98 72.9302 424.77 62.3502 423.52L60.9102 409.35C72.0702 410.55 83.0202 410.6 93.7302 409.35L91.9802 423.52Z" fill="#878787"/>
<path d="M75.3101 413.898C73.9601 414.718 73.4101 416.448 74.0901 417.918L75.0301 419.948C75.7101 421.418 77.3901 422.108 78.8901 421.608L75.3101 413.898Z" fill="#B7B7B7"/>
<path d="M75.9399 413.609L79.5199 421.309C80.8799 420.489 81.4199 418.759 80.7399 417.289L79.7999 415.259C79.1099 413.799 77.4399 413.099 75.9399 413.609Z" fill="#B7B7B7"/>
<path d="M92.5903 389.66C92.6003 389.7 92.1803 389.82 91.4103 390.02C90.6403 390.22 89.5203 390.46 88.1203 390.71C85.3303 391.21 81.4203 391.66 77.0903 391.65C72.7503 391.64 68.8503 391.17 66.0603 390.66C64.6703 390.41 63.5403 390.16 62.7803 389.96C62.0103 389.76 61.5903 389.63 61.6003 389.6C61.6103 389.56 62.0403 389.62 62.8203 389.76C63.6003 389.9 64.7203 390.09 66.1203 390.3C68.9103 390.72 72.7903 391.12 77.0903 391.13C81.3903 391.13 85.2703 390.75 88.0603 390.35C89.4603 390.15 90.5803 389.97 91.3603 389.82C92.1503 389.68 92.5903 389.62 92.5903 389.66Z" fill="#263238"/>
<path d="M110.4 320.16C110.4 320.16 104.69 321.39 103.7 325.44C102.71 329.49 111.65 426.44 112.01 428.8C112.57 432.51 115.7 437.22 122.75 436.97C128.89 436.75 212.6 436.94 233.68 436.99C236.48 437 238.16 434.61 238.53 431.77L134.89 425.65L110.4 320.16Z" fill="#E0E0E0"/>
<path d="M107.8 323.4L116.78 427.95C116.95 429.66 118.38 430.97 120.09 430.99L238.53 431.52L215.78 408.94L138.84 408.4L130.61 326.49C130.5 325.4 129.7 324.51 128.64 324.26L111.4 320.24C109.44 319.79 107.61 321.39 107.8 323.4Z" fill="#E0E0E0"/>
<path d="M107.8 323.4C107.8 323.4 107.77 323.23 107.78 322.9C107.79 322.57 107.88 322.05 108.24 321.49C108.59 320.94 109.27 320.33 110.25 320.16C110.74 320.06 111.29 320.15 111.82 320.29C112.37 320.42 112.95 320.55 113.57 320.69C116.06 321.26 119.12 321.96 122.72 322.79C124.52 323.21 126.46 323.65 128.52 324.13C129.6 324.31 130.59 325.27 130.71 326.46C130.83 327.58 130.94 328.73 131.07 329.92C133 348.86 135.75 375.92 139.05 408.39L138.83 408.19C161.92 408.34 187.97 408.52 215.77 408.7H215.87L215.94 408.77C223.23 416 230.89 423.61 238.7 431.35L239.15 431.8H238.51C236.85 431.79 235.06 431.78 233.26 431.78C202.46 431.63 173.12 431.5 146.43 431.37C139.76 431.34 133.25 431.3 126.93 431.27C125.35 431.26 123.78 431.25 122.22 431.25C121.44 431.24 120.68 431.25 119.88 431.23C119.06 431.18 118.26 430.84 117.66 430.28C117.06 429.73 116.66 428.96 116.55 428.16C116.46 427.38 116.42 426.64 116.35 425.89C116.22 424.39 116.1 422.9 115.97 421.42C114.97 409.6 114.03 398.58 113.18 388.53C111.49 368.43 110.12 352.16 109.17 340.9C108.71 335.28 108.35 330.92 108.11 327.95C107.99 326.48 107.91 325.35 107.85 324.58C107.82 323.79 107.8 323.4 107.8 323.4C107.8 323.4 107.85 323.79 107.92 324.54C107.99 325.31 108.1 326.43 108.23 327.9C108.5 330.87 108.89 335.23 109.39 340.84C110.38 352.09 111.8 368.36 113.56 388.45C114.43 398.5 115.39 409.51 116.42 421.34C116.55 422.82 116.68 424.31 116.81 425.81C116.88 426.56 116.93 427.33 117.01 428.06C117.11 428.76 117.46 429.43 117.99 429.92C118.52 430.41 119.21 430.71 119.93 430.75C120.68 430.77 121.47 430.76 122.24 430.77C123.8 430.78 125.37 430.78 126.95 430.79C133.27 430.81 139.78 430.84 146.45 430.87C173.14 430.98 202.48 431.11 233.28 431.24C235.08 431.25 236.87 431.26 238.53 431.26L238.35 431.71C230.55 423.97 222.89 416.36 215.6 409.13L215.78 409.2C187.97 408.99 161.93 408.8 138.84 408.62H138.64L138.62 408.42C135.4 375.94 132.71 348.88 130.83 329.93C130.71 328.75 130.6 327.6 130.49 326.48C130.38 325.4 129.5 324.52 128.49 324.35C126.43 323.86 124.5 323.41 122.7 322.98C119.11 322.13 116.05 321.41 113.57 320.82C112.95 320.67 112.37 320.53 111.82 320.4C111.27 320.25 110.77 320.17 110.29 320.26C109.34 320.41 108.67 320.99 108.32 321.52C107.96 322.06 107.86 322.57 107.84 322.9C107.79 323.23 107.82 323.4 107.8 323.4Z" fill="#263238"/>
<path d="M194.5 428.8H205.51L191.59 410.75H185.06L194.5 428.8Z" fill="#263238"/>
<path d="M111.87 328.12L120.28 418.96L135.95 406.5L129.21 329.97C129.16 329.36 128.69 328.86 128.07 328.77L113.39 326.67C112.53 326.55 111.79 327.26 111.87 328.12Z" fill="#263238"/>
<path d="M128.7 428.8H140.06L151.61 410.75H145.07L128.7 428.8Z" fill="#263238"/>
<path d="M142.65 428.8H153.66L159.69 410.75H153.15L142.65 428.8Z" fill="#263238"/>
<path d="M156.12 428.8H167.13L167.72 410.75H161.19L156.12 428.8Z" fill="#263238"/>
<path d="M168.62 428.8H179.63L175.56 410.75H169.03L168.62 428.8Z" fill="#263238"/>
<path d="M181.64 428.8H192.65L183.68 410.75H177.15L181.64 428.8Z" fill="#263238"/>
<path d="M204.96 425.279C204.96 425.369 188.17 425.439 167.47 425.439C146.76 425.439 129.97 425.369 129.97 425.279C129.97 425.189 146.76 425.119 167.47 425.119C188.17 425.129 204.96 425.199 204.96 425.279Z" fill="#E0E0E0"/>
<path d="M202.96 421.971C202.96 422.061 187.02 422.131 167.35 422.131C147.68 422.131 131.74 422.061 131.74 421.971C131.74 421.881 147.68 421.811 167.35 421.811C187.02 421.821 202.96 421.891 202.96 421.971Z" fill="#E0E0E0"/>
<path d="M202.96 418.97C202.96 419.14 187.96 419.28 169.45 419.28C150.94 419.28 135.94 419.14 135.94 418.97C135.94 418.8 150.94 418.66 169.45 418.66C187.96 418.66 202.96 418.8 202.96 418.97Z" fill="#E0E0E0"/>
<path d="M203.42 416.23C203.42 416.4 188.74 416.54 170.64 416.54C152.53 416.54 137.85 416.4 137.85 416.23C137.85 416.06 152.53 415.92 170.64 415.92C188.74 415.91 203.42 416.05 203.42 416.23Z" fill="#E0E0E0"/>
<path d="M204.96 414.23C204.96 414.4 190.18 414.54 171.96 414.54C153.73 414.54 138.96 414.4 138.96 414.23C138.96 414.06 153.73 413.92 171.96 413.92C190.18 413.91 204.96 414.05 204.96 414.23Z" fill="#E0E0E0"/>
<path d="M206.58 412.13C206.58 412.3 191.53 412.44 172.96 412.44C154.39 412.44 139.34 412.3 139.34 412.13C139.34 411.96 154.39 411.82 172.96 411.82C191.53 411.82 206.58 411.96 206.58 412.13Z" fill="#E0E0E0"/>
<path d="M118.44 427.94C125.28 421.54 132.12 415.14 138.96 408.74Z" fill="#E0E0E0"/>
<path d="M138.96 408.75C139.06 408.85 134.54 413.24 128.88 418.54C123.21 423.84 118.54 428.05 118.44 427.95C118.34 427.85 122.85 423.46 128.52 418.16C134.19 412.85 138.86 408.64 138.96 408.75Z" fill="#263238"/>
<path d="M478.51 337.24C478.51 337.24 477.5 326.63 451.05 319.83C438.28 316.55 407.79 314.97 404.34 334.79C404.23 335.43 389.17 460.06 389.17 460.06H445.53L478.51 337.24Z" fill="#455A64"/>
<path d="M469.581 460.06H443.581L452.261 337.95C452.901 332.01 459.051 327.72 466.001 328.38L468.331 328.6C475.281 329.26 479.681 335.949 479.481 343.579L469.581 460.06Z" fill="#455A64"/>
<path d="M445.53 455.67C445.39 455.66 447.22 431.61 449.63 401.95C452.04 372.29 454.11 348.26 454.25 348.27C454.39 348.28 452.56 372.33 450.15 401.99C447.74 431.65 445.67 455.68 445.53 455.67Z" fill="#263238"/>
<path d="M473.521 331.47C473.481 331.57 472.171 330.9 469.871 330.61C467.601 330.31 464.261 330.55 461.201 332.3C458.141 334.06 456.251 336.83 455.361 338.94C454.451 341.07 454.361 342.55 454.261 342.53C454.231 342.53 454.231 342.161 454.311 341.511C454.391 340.861 454.601 339.91 455.021 338.81C455.831 336.61 457.751 333.7 460.941 331.86C464.141 330.03 467.611 329.851 469.921 330.261C471.091 330.461 472.011 330.751 472.611 331.011C473.221 331.261 473.531 331.44 473.521 331.47Z" fill="#263238"/>
<path d="M391.41 178.81C391.67 171.66 386.83 170.7 383.1 171.52C378.57 168.19 371.69 168.56 367.55 172.37C364.15 170.52 359.79 170.59 356.46 172.55C353.13 174.51 350.95 178.3 350.92 182.16C347.03 181.68 342.96 183.92 341.28 187.46C339.6 191 340.45 195.57 343.28 198.28C339.12 199.8 336.53 204.7 337.62 208.99C338.71 213.28 343.33 216.35 347.71 215.7L391.57 186.49C394.19 183.73 391.27 182.63 391.41 178.81Z" fill="#263238"/>
<path d="M346.43 217.019C347.33 197.059 363.4 181.139 383.36 180.429L385.34 180.359C406.77 180.849 418.33 199.329 417.25 220.739L416.68 292.079L416.54 305.629L367.53 317.279L367.03 289.039C367.03 289.039 346.35 286.569 345.37 266.019C344.91 256.099 345.6 235.579 346.43 217.019Z" fill="#AE7461"/>
<path d="M366.88 289.02C366.88 289.02 380.04 289.34 393.54 280.18C393.54 280.18 387.73 295.2 367.15 294.08L366.88 289.02Z" fill="#6F4439"/>
<path d="M352.42 237.761C352.42 239.311 353.74 240.591 355.36 240.621C356.98 240.651 358.29 239.421 358.29 237.871C358.29 236.321 356.98 235.041 355.36 235.011C353.73 234.971 352.41 236.201 352.42 237.761Z" fill="#263238"/>
<path d="M351.02 227.98C351.4 228.35 353.56 226.62 356.72 226.52C359.87 226.37 362.25 227.91 362.58 227.51C362.74 227.33 362.35 226.65 361.31 225.96C360.29 225.26 358.57 224.61 356.6 224.69C354.63 224.77 353 225.55 352.08 226.33C351.13 227.11 350.83 227.81 351.02 227.98Z" fill="#263238"/>
<path d="M377.81 237.11C377.81 238.66 379.13 239.94 380.75 239.97C382.37 240 383.68 238.77 383.68 237.21C383.68 235.66 382.36 234.38 380.75 234.35C379.13 234.32 377.81 235.55 377.81 237.11Z" fill="#263238"/>
<path d="M381.23 226.461C381.61 226.831 383.78 225.111 386.93 225.001C390.08 224.851 392.46 226.391 392.79 225.991C392.95 225.811 392.56 225.131 391.52 224.441C390.5 223.741 388.78 223.091 386.81 223.171C384.84 223.251 383.21 224.031 382.29 224.811C381.35 225.591 381.04 226.301 381.23 226.461Z" fill="#263238"/>
<path d="M371.65 250.25C371.66 250.07 369.68 249.8 366.49 249.51C365.68 249.46 364.91 249.32 364.76 248.78C364.55 248.2 364.86 247.32 365.21 246.37C365.9 244.39 366.62 242.32 367.38 240.14C370.38 231.28 372.52 224 372.17 223.88C371.81 223.76 369.09 230.85 366.09 239.72C365.37 241.9 364.68 243.99 364.02 245.98C363.75 246.91 363.26 247.97 363.71 249.16C363.95 249.76 364.56 250.17 365.08 250.29C365.6 250.43 366.06 250.42 366.46 250.43C369.66 250.48 371.65 250.43 371.65 250.25Z" fill="#263238"/>
<path d="M381.03 252.1C380.52 252.09 380.63 255.52 377.78 258.06C374.94 260.61 371.27 260.35 371.26 260.83C371.22 261.05 372.1 261.47 373.64 261.45C375.15 261.45 377.35 260.88 379.09 259.33C380.83 257.77 381.53 255.75 381.59 254.34C381.67 252.91 381.26 252.07 381.03 252.1Z" fill="#263238"/>
<path d="M380.86 217.439C381.26 218.249 383.96 217.409 387.27 217.349C390.58 217.209 393.36 217.879 393.67 217.049C393.8 216.659 393.22 215.929 392.04 215.269C390.86 214.609 389.07 214.089 387.09 214.149C385.11 214.209 383.38 214.839 382.29 215.569C381.18 216.289 380.68 217.049 380.86 217.439Z" fill="#263238"/>
<path d="M351.42 219.281C351.94 220.021 354.15 219.381 356.77 219.471C359.39 219.471 361.58 220.181 362.12 219.451C362.36 219.101 362.05 218.361 361.11 217.641C360.19 216.921 358.62 216.291 356.82 216.261C355.02 216.231 353.43 216.811 352.49 217.501C351.53 218.201 351.19 218.921 351.42 219.281Z" fill="#263238"/>
<path d="M348.07 207.52C348.07 207.52 353.03 194.45 359.14 191.23C366.53 187.33 370.06 195.46 377.15 193.2C384.24 190.94 391.29 187.2 398.81 192.47C407.04 198.25 403.43 202.63 404.25 211.74C407.57 248.65 414.7 258.87 416 241.38C416.14 239.46 421.39 237.76 421.88 229.67C422.53 219.18 422.48 206.47 419.88 199.13C417.69 192.95 413.97 188.75 407.41 184.21C397.05 177.05 383.18 177.38 373.79 178.66C364.41 179.95 346.64 191.43 348.07 207.52Z" fill="#263238"/>
<path d="M414.67 240.869C414.69 237.689 417.33 235.089 420.5 235.279C424.35 235.509 428.69 237.529 428.72 245.469C428.77 259.539 414.63 256.689 414.61 256.289C414.59 256.009 414.64 246.759 414.67 240.869Z" fill="#AE7461"/>
<path d="M417.65 250.979C417.71 250.929 417.9 251.149 418.31 251.339C418.71 251.519 419.41 251.649 420.14 251.369C421.62 250.819 422.87 248.449 422.93 245.919C422.96 244.639 422.69 243.419 422.23 242.409C421.8 241.379 421.13 240.669 420.38 240.539C419.63 240.369 419.11 240.819 418.94 241.219C418.75 241.609 418.84 241.889 418.77 241.919C418.73 241.959 418.47 241.679 418.58 241.099C418.64 240.819 418.8 240.489 419.13 240.219C419.47 239.939 419.96 239.799 420.48 239.859C421.57 239.929 422.55 240.929 423.05 242.029C423.61 243.139 423.95 244.509 423.91 245.949C423.83 248.789 422.39 251.439 420.36 252.039C419.37 252.299 418.54 252.009 418.12 251.679C417.68 251.319 417.61 250.999 417.65 250.979Z" fill="#6F4439"/>
<path d="M413.43 213.65C411.65 214.96 409.77 216.31 407.57 216.61C405.38 216.91 402.82 215.73 402.37 213.57C402.17 212.6 402.37 211.45 401.7 210.72C400.9 209.85 399.49 210.18 398.32 210.34C394.25 210.92 389.96 208.18 388.78 204.24C387.79 205.84 385.36 205.86 383.74 204.9C382.13 203.94 381.05 202.31 379.77 200.94C378.49 199.57 376.71 198.37 374.86 198.7C373.83 198.88 372.88 199.54 371.83 199.48C369.98 199.38 369 197.25 368.66 195.43C368.32 193.61 368.02 191.48 366.42 190.54C364.94 189.67 363.08 190.27 361.39 190.58C359.7 190.89 357.49 190.57 357 188.92C356.74 188.06 357.08 187.13 357.54 186.35C359.61 182.83 364.32 181.13 368.16 182.52C369.37 177.83 373.58 174.06 378.38 173.38C383.18 172.7 388.27 175.15 390.74 179.32C393.62 176.52 397.89 175.23 401.83 175.99C405.77 176.74 409.27 179.51 410.92 183.18C414.31 182.16 418.25 183.34 420.52 186.06C422.79 188.78 423.24 192.87 421.63 196.02C424.21 197.37 426.46 199.81 426.62 202.71C426.78 205.62 424.04 208.62 421.21 207.95C422.42 210.17 421.61 213.28 419.46 214.63C417.31 215.97 414.16 215.34 412.69 213.28" fill="#263238"/>
<path d="M422.23 207.88C422.28 207.84 422.53 209.05 421.45 210.61C420.91 211.35 419.98 212.14 418.69 212.39C417.43 212.65 415.87 212.39 414.64 211.37L415.23 211.26C414.58 212.49 413.7 213.76 412.55 214.87C411.81 215.57 410.97 216.18 410.05 216.55C409.14 216.95 408.09 217.02 407.23 216.91C405.44 216.78 403.85 215.88 403.09 214.73C402.3 213.61 402.03 212.55 401.85 211.85C401.68 211.14 401.65 210.73 401.7 210.72C401.76 210.7 401.89 211.09 402.15 211.76C402.41 212.42 402.77 213.42 403.54 214.39C404.94 216.36 409.32 217.23 411.99 214.29C413.06 213.26 413.91 212.07 414.55 210.91L414.78 210.49L415.14 210.8C416.14 211.67 417.48 211.94 418.57 211.76C419.68 211.59 420.53 210.96 421.07 210.33C422.15 209 422.1 207.85 422.23 207.88Z" fill="#455A64"/>
<path d="M256.02 391.949C256.02 391.949 229.49 391.159 227.9 390.659C226.31 390.159 222.44 390.059 220.55 390.659C218.66 391.259 211.11 393.939 211.11 393.939L195.08 398.209C195.08 398.209 178.98 408.739 179.31 410.849C179.65 412.959 181.4 414.399 184.28 413.309C187.16 412.219 201.7 404.669 201.7 404.669L217.66 402.979C217.66 402.979 239.49 410.819 243.89 410.429C248.3 410.039 259.59 408.129 259.59 408.129C259.59 408.129 261.18 396.819 260.38 395.029C259.6 393.249 256.02 391.949 256.02 391.949Z" fill="#AE7461"/>
<path d="M180.47 420.219C180.47 420.219 193.91 405.799 197.64 403.859C201.37 401.919 222.1 398.509 222.1 398.509C222.1 398.509 228.74 395.759 231.17 396.729C233.6 397.699 259.35 401.589 260.49 401.749C261.62 401.909 254.98 424.429 254.98 424.429C254.98 424.429 246.07 426.049 235.71 423.619C225.34 421.189 221.78 417.949 221.78 417.949L211.43 415.229L205.1 417.639C205.1 417.639 203.96 427.009 199.43 426.529L197.32 425.069L198.94 414.699L192.3 417.449C192.3 417.449 187.12 425.219 183.23 424.089C179.34 422.979 180.47 420.219 180.47 420.219Z" fill="#AE7461"/>
<path d="M180.47 420.219C180.5 420.219 180.31 420.599 180.37 421.339C180.41 421.709 180.54 422.169 180.87 422.609C181.2 423.049 181.73 423.439 182.39 423.719C183.05 423.999 183.85 424.239 184.72 424.049C185.58 423.849 186.45 423.369 187.29 422.739C188.98 421.469 190.62 419.619 192.17 417.379L192.2 417.339L192.24 417.319C194.23 416.489 196.47 415.549 198.87 414.539L199.14 414.429L199.1 414.719C198.62 417.839 198.08 421.339 197.51 425.089L197.43 424.899C198.07 425.339 198.8 425.839 199.54 426.349L199.45 426.319C200.3 426.399 201.14 426.069 201.79 425.459C202.44 424.859 202.95 424.069 203.34 423.209C204.12 421.499 204.61 419.569 204.89 417.599L204.91 417.469L205.03 417.419C207 416.659 209.15 415.839 211.36 414.999L211.43 414.969L211.5 414.989C214.77 415.839 218.26 416.759 221.85 417.699L221.9 417.709L221.95 417.749C223.98 419.339 226.54 420.439 229.11 421.399C231.71 422.329 234.45 423.089 237.26 423.669C240.08 424.249 243 424.559 245.96 424.649C248.92 424.729 251.95 424.619 254.94 424.149L254.74 424.329C255.2 422.739 255.69 421.029 256.19 419.319C257.61 414.229 259.04 409.209 260.08 404.259C260.2 403.639 260.31 403.019 260.36 402.409C260.37 402.259 260.37 402.109 260.36 401.989C260.37 401.929 260.3 401.889 260.4 401.969C260.42 401.979 260.44 401.989 260.46 401.989H260.43L260.37 401.979L260.25 401.959L259.32 401.819C258.08 401.629 256.84 401.439 255.62 401.249C253.17 400.859 250.75 400.479 248.37 400.109C243.61 399.339 239 398.589 234.58 397.739C233.47 397.509 232.39 397.319 231.29 396.989C230.31 396.609 229.22 396.739 228.18 396.899C226.09 397.269 224.08 397.959 222.18 398.699L222.15 398.709H222.13C214.88 399.929 208.25 401.119 202.47 402.509C201.03 402.859 199.63 403.229 198.35 403.719C197.08 404.219 196.07 405.119 195.08 405.929C193.12 407.589 191.42 409.229 189.89 410.709C186.83 413.679 184.51 416.079 182.91 417.709C182.13 418.509 181.52 419.139 181.1 419.569C180.69 420.019 180.47 420.219 180.47 420.219C180.47 420.219 180.66 419.979 181.06 419.549C181.47 419.099 182.06 418.469 182.83 417.639C184.39 415.979 186.69 413.549 189.73 410.549C191.25 409.049 192.94 407.399 194.9 405.719C195.39 405.299 195.9 404.879 196.44 404.479C196.97 404.069 197.58 403.689 198.24 403.439C199.56 402.939 200.95 402.549 202.4 402.199C208.2 400.779 214.82 399.559 222.07 398.319L222.02 398.329C223.95 397.569 225.95 396.869 228.11 396.479C229.17 396.319 230.35 396.159 231.45 396.589C232.46 396.899 233.58 397.089 234.67 397.319C239.08 398.149 243.69 398.899 248.45 399.659C250.83 400.029 253.25 400.409 255.69 400.789C256.92 400.979 258.15 401.159 259.39 401.349L260.32 401.489L260.44 401.509L260.5 401.519L260.53 401.529C260.57 401.539 260.6 401.549 260.64 401.569C260.87 401.739 260.83 401.879 260.86 401.969C260.88 402.169 260.88 402.329 260.86 402.499C260.81 403.159 260.69 403.779 260.57 404.409C259.53 409.409 258.1 414.409 256.67 419.519C256.17 421.239 255.68 422.949 255.22 424.539L255.17 424.699L255.01 424.719C251.95 425.199 248.92 425.309 245.92 425.219C242.93 425.119 239.98 424.809 237.14 424.219C234.3 423.629 231.55 422.869 228.92 421.919C227.61 421.439 226.33 420.909 225.1 420.299C223.87 419.679 222.69 419.039 221.61 418.159L221.71 418.209C218.12 417.259 214.63 416.339 211.37 415.479L211.51 415.469C209.3 416.309 207.15 417.129 205.18 417.879L205.32 417.699C205.03 419.719 204.53 421.659 203.71 423.439C203.31 424.319 202.77 425.159 202.06 425.809C201.36 426.469 200.37 426.859 199.41 426.759L199.36 426.749L199.32 426.719C198.58 426.209 197.86 425.699 197.22 425.259L197.12 425.189L197.14 425.069C197.74 421.319 198.29 417.819 198.79 414.709L199.02 414.889C196.61 415.879 194.37 416.799 192.37 417.619L192.43 417.569C190.84 419.819 189.18 421.669 187.44 422.949C186.57 423.579 185.68 424.069 184.77 424.259C183.85 424.449 183 424.179 182.34 423.879C181.66 423.579 181.12 423.169 180.79 422.699C180.45 422.239 180.33 421.749 180.3 421.369C180.26 420.579 180.47 420.219 180.47 420.219Z" fill="#6F4439"/>
<path d="M221.18 408.03C221.18 408.07 220.81 408.05 220.16 408C219.51 407.95 218.56 407.86 217.4 407.74C216.19 407.61 214.82 407.45 213.32 407.29C212.93 407.24 212.54 407.2 212.14 407.15C211.74 407.09 211.39 407.12 210.97 407.17C210.16 407.28 209.31 407.48 208.45 407.69C205.08 408.67 201.7 409.32 200.4 411.32C199.71 412.23 199.39 413.12 199.2 413.74C199.02 414.36 198.97 414.72 198.93 414.72C198.9 414.72 198.88 414.35 199 413.69C199.13 413.04 199.41 412.1 200.1 411.1C200.45 410.61 200.9 410.11 201.47 409.69C202.04 409.28 202.75 408.93 203.48 408.67C204.94 408.14 206.57 407.63 208.31 407.18C209.18 406.96 210.04 406.77 210.89 406.66C211.3 406.6 211.78 406.58 212.18 406.65C212.58 406.7 212.97 406.76 213.36 406.81C214.86 407.02 216.23 407.21 217.43 407.38C218.59 407.55 219.53 407.69 220.17 407.81C220.83 407.91 221.19 407.99 221.18 408.03Z" fill="#6F4439"/>
<path d="M185.08 415.43C185.06 415.41 185.45 415 186.19 414.31C186.94 413.62 188.04 412.65 189.43 411.49C190.83 410.33 192.51 408.97 194.45 407.56C195.43 406.86 196.47 406.14 197.59 405.46C198.16 405.13 198.75 404.8 199.38 404.52C200.03 404.24 200.69 404.07 201.36 403.88C206.73 402.4 211.76 402.01 215.34 401.48C217.07 401.27 218.5 401.09 219.6 400.95C220.61 400.84 221.17 400.79 221.17 400.83C221.17 400.87 220.62 400.98 219.63 401.15C218.54 401.33 217.11 401.56 215.39 401.84C211.82 402.47 206.81 402.92 201.5 404.38C200.84 404.56 200.17 404.74 199.58 404.99C198.98 405.25 198.4 405.56 197.85 405.89C196.74 406.55 195.7 407.25 194.73 407.94C192.78 409.32 191.08 410.64 189.66 411.76C188.31 412.85 187.18 413.76 186.32 414.45C185.54 415.1 185.11 415.46 185.08 415.43Z" fill="#6F4439"/>
<path d="M352.61 321.501C352.61 321.501 345.54 331.211 339.93 342.881C335.13 352.881 319.58 386.931 319.58 386.931L256.25 390.251L257.18 414.721C257.18 414.721 318.34 436.511 332.04 432.311C345.73 428.111 360.32 412.321 360.32 412.321L366.87 309.121C366.88 309.111 361.45 308.091 352.61 321.501Z" fill="#37AAAF"/>
<path d="M365.85 309.351C365.85 309.351 349.61 346.181 347.24 361.781C342.53 392.751 340.95 412.141 340.95 412.141L335.43 460.071H443.58C443.58 460.071 447.16 371.241 444.86 341.451C443.14 319.141 426.05 305.241 419.05 297.601C418.63 297.141 416.7 290.891 416.7 290.891L366.3 303.801L365.85 309.351Z" fill="#37AAAF"/>
<path d="M360.62 314.941C360.63 314.941 360.59 315.061 360.5 315.291C360.4 315.541 360.26 315.871 360.09 316.291C359.71 317.201 359.17 318.491 358.47 320.141C357.08 323.491 355.07 328.341 353.06 334.491C351.03 340.641 349.04 348.101 347.47 356.521C345.86 364.931 344.56 374.271 343.47 384.091C341.48 403.771 339.67 421.581 338.36 434.501C337.69 440.931 337.15 446.141 336.77 449.771C336.57 451.551 336.42 452.941 336.31 453.921C336.25 454.371 336.21 454.731 336.18 455.001C336.15 455.241 336.13 455.371 336.12 455.371C336.11 455.371 336.11 455.241 336.13 455.001C336.15 454.731 336.18 454.371 336.21 453.921C336.3 452.941 336.42 451.541 336.57 449.761C336.91 446.121 337.4 440.901 338 434.471C339.25 421.561 340.9 403.731 342.95 384.041C344.04 374.201 345.36 364.861 347 356.441C348.6 348.011 350.63 340.531 352.71 334.381C354.78 328.231 356.84 323.391 358.29 320.061C359.01 318.391 359.6 317.121 360 316.251C360.19 315.841 360.35 315.511 360.46 315.271C360.56 315.051 360.61 314.941 360.62 314.941Z" fill="#263238"/>
<g opacity="0.3">
<path d="M416.81 372.922C415.81 363.112 411.41 353.262 403.33 347.602L337.39 441.772C349.03 448.052 361.96 454.532 374.89 451.762C381.85 450.272 388.03 446.172 393.05 441.122C403.48 430.632 409.14 416.342 413.11 402.102C415.76 392.602 417.8 382.732 416.81 372.922Z" fill="black"/>
</g>
<path d="M424.28 361.55C416.06 390.62 397.57 426.1 391.9 433.22C380.81 447.14 366.15 450.15 357.4 450.15C349.96 450.15 287.08 437.9 268.44 434.24C265.29 433.62 262.83 431.18 262.17 428.05L262.01 427.28L253.62 425.02L258.09 402.51L258.98 401.26L348.91 404.09L375.07 331.22C375.56 330.39 383.12 305.94 403.61 307.05" fill="#37AAAF"/>
<path d="M403.61 307.05C403.61 307.05 403.38 307.06 402.93 307.06C402.48 307.07 401.81 307.02 400.93 307.11C399.17 307.21 396.53 307.57 393.37 308.91C390.24 310.27 386.69 312.72 383.5 316.52C380.28 320.3 377.45 325.29 375.2 331.3L375.21 331.28C368.6 349.74 359.63 374.81 349.12 404.17L349.06 404.33L348.89 404.32C322.13 403.49 291.55 402.54 258.96 401.52L259.18 401.41C258.9 401.8 258.6 402.23 258.29 402.66L258.33 402.56C257.04 409.07 255.66 416 254.28 423C254.14 423.71 254 424.42 253.87 425.07L253.68 424.77C256.59 425.55 259.41 426.31 262.07 427.03L262.23 427.07L262.25 427.22C262.54 429.09 263.35 430.82 264.72 432.07C265.39 432.69 266.17 433.2 267.02 433.54C267.86 433.9 268.77 434.04 269.71 434.23C273.41 434.95 277.08 435.67 280.72 436.38C288.01 437.78 295.18 439.16 302.22 440.52C316.31 443.19 329.89 445.73 342.83 447.92C346.07 448.46 349.27 448.97 352.43 449.42C354.01 449.62 355.59 449.84 357.14 449.91C358.7 449.93 360.26 449.85 361.8 449.68C367.95 449.02 373.76 447.08 378.8 444.23C383.86 441.38 388.08 437.57 391.48 433.41C393.16 431.32 394.51 429.04 395.84 426.83C397.15 424.6 398.39 422.4 399.56 420.22C408.87 402.79 414.97 388.02 418.84 377.73C420.74 372.57 422.1 368.52 422.96 365.76C423.38 364.39 423.71 363.34 423.93 362.62C424.15 361.91 424.28 361.55 424.28 361.55C424.28 361.55 424.19 361.92 423.98 362.63C423.77 363.35 423.46 364.41 423.06 365.79C422.23 368.56 420.91 372.62 419.03 377.8C415.21 388.12 409.16 402.92 399.88 420.39C398.71 422.57 397.48 424.78 396.17 427.02C394.83 429.24 393.49 431.53 391.79 433.66C388.37 437.86 384.11 441.71 379.01 444.6C373.92 447.49 368.07 449.46 361.85 450.13C360.3 450.31 358.72 450.39 357.14 450.37C355.54 450.3 353.97 450.08 352.38 449.88C349.21 449.44 346.01 448.92 342.76 448.39C329.8 446.21 316.22 443.68 302.13 441.02C295.09 439.67 287.91 438.29 280.63 436.89C276.99 436.18 273.32 435.46 269.62 434.74C268.71 434.56 267.74 434.41 266.84 434.03C265.93 433.66 265.1 433.12 264.39 432.46C262.93 431.15 262.05 429.23 261.76 427.34L261.95 427.54C259.29 426.82 256.47 426.07 253.56 425.28L253.32 425.22L253.37 424.98C253.5 424.33 253.64 423.62 253.78 422.91C255.17 415.91 256.54 408.98 257.84 402.48L257.85 402.43L257.88 402.38C258.19 401.95 258.49 401.52 258.77 401.13L258.85 401.02H258.99C291.58 402.06 322.16 403.03 348.92 403.88L348.7 404.03C359.27 374.69 368.29 349.64 374.94 331.19L374.95 331.16C377.18 325.22 380.08 320.15 383.33 316.38C386.56 312.57 390.15 310.11 393.31 308.77C396.5 307.45 399.16 307.12 400.92 307.04C401.81 306.97 402.48 307.03 402.93 307.03C403.38 307.03 403.61 307.05 403.61 307.05Z" fill="#263238"/>
<path d="M329.1 398.321C328.95 398.401 327.7 395.071 324.76 391.961C321.86 388.811 318.63 387.331 318.72 387.181C318.74 387.131 319.58 387.421 320.81 388.131C322.04 388.841 323.65 390.011 325.14 391.601C326.62 393.201 327.68 394.881 328.3 396.161C328.92 397.451 329.15 398.301 329.1 398.321Z" fill="#263238"/>
<path d="M359.791 421.721C359.701 421.731 359.531 420.571 359.001 418.751C358.481 416.941 357.541 414.491 356.051 412.031C354.551 409.581 352.801 407.621 351.421 406.331C350.041 405.041 349.091 404.351 349.141 404.281C349.161 404.251 349.421 404.401 349.871 404.691C350.321 404.981 350.941 405.441 351.671 406.061C353.131 407.301 354.961 409.251 356.501 411.761C358.031 414.271 358.931 416.791 359.361 418.661C359.581 419.591 359.711 420.361 359.761 420.891C359.811 421.421 359.821 421.711 359.791 421.721Z" fill="#263238"/>
<g opacity="0.3">
<path d="M335.8 403.521L341.03 403.711C341.87 383.171 346.11 362.691 349.73 342.451C340.5 361.311 338.08 382.661 335.8 403.521Z" fill="black"/>
</g>
<path d="M417.3 297.6C417.3 297.62 417.13 297.68 416.81 297.77C416.42 297.88 415.95 298.01 415.37 298.16C414.04 298.51 412.25 298.99 410.07 299.57C405.59 300.76 399.42 302.47 392.57 304.19C385.71 305.92 379.44 307.26 374.86 308.01C372.57 308.39 370.71 308.65 369.42 308.79C368.82 308.85 368.33 308.9 367.93 308.94C367.59 308.97 367.41 308.97 367.41 308.96C367.41 308.94 367.58 308.9 367.92 308.84C368.31 308.77 368.8 308.69 369.39 308.59C370.67 308.4 372.52 308.08 374.79 307.65C379.34 306.81 385.59 305.42 392.44 303.69C399.29 301.96 405.48 300.31 409.98 299.21C412.23 298.65 414.06 298.23 415.33 297.96C415.92 297.84 416.4 297.74 416.79 297.66C417.11 297.61 417.29 297.58 417.3 297.6Z" fill="#263238"/>
</svg>
