<svg width="30" height="30" viewBox="0 0 30 30" fill="none" xmlns="http://www.w3.org/2000/svg">
<g clip-path="url(#clip0_351_1596)">
<path d="M19.7993 21.0247L21.1711 18.7986L23.6468 17.9543L23.9211 15.3541L25.7837 13.5204L24.8982 11.0591L25.7837 8.59775L23.9212 6.76406L23.6469 4.16391L21.1712 3.31957L19.7993 1.09342L17.2045 1.40672L15.0003 0L12.796 1.40684L10.2013 1.09354L8.82941 3.31963L6.35371 4.16396L6.07943 6.76412L4.2168 8.59781L5.10238 11.0592L4.2168 13.5205L6.07937 15.3541L6.35365 17.9544L8.82936 18.7987L10.2012 21.0248L12.796 20.7115L15.0003 22.1183L17.2045 20.7115L19.7993 21.0247ZM7.41654 11.0592C7.41654 6.8775 10.8186 3.47543 15.0003 3.47543C19.1819 3.47543 22.584 6.8775 22.584 11.0592C22.584 15.2408 19.1819 18.6429 15.0003 18.6429C10.8186 18.6429 7.41654 15.2408 7.41654 11.0592Z" fill="white"/>
<path d="M14.9996 5.23438C11.7878 5.23438 9.1748 7.84736 9.1748 11.0592C9.1748 14.271 11.7878 16.884 14.9996 16.884C18.2114 16.884 20.8244 14.271 20.8244 11.0592C20.8244 7.84736 18.2114 5.23438 14.9996 5.23438Z" fill="white"/>
<path d="M12.3811 22.5332L9.29441 22.9058L7.66357 20.2593L7.10916 20.0703L4.71777 27.5449L9.02295 27.3081L12.3912 29.9999L14.3733 23.8047L12.3811 22.5332Z" fill="white"/>
<path d="M22.3367 20.2594L20.7058 22.9058L17.6191 22.5332L15.627 23.8047L17.6091 29.9999L20.9773 27.3081L25.2825 27.5449L22.8911 20.0703L22.3367 20.2594Z" fill="white"/>
</g>
<defs>
<clipPath id="clip0_351_1596">
<rect width="30" height="30" fill="white"/>
</clipPath>
</defs>
</svg>
