<svg width="20" height="20" viewBox="0 0 20 20" fill="none" xmlns="http://www.w3.org/2000/svg">
<path d="M8.82812 10.5469H5.94063C6.22539 12.532 7.93711 14.0625 10 14.0625C12.0629 14.0625 13.7746 12.532 14.0594 10.5469H11.1719V9.375H14.1016V7.61719H11.1719V6.44531H14.1016V4.6875H11.1719V3.51562H14.0594C13.7746 1.53047 12.0629 0 10 0C7.93711 0 6.22539 1.53047 5.94063 3.51562H8.82812V4.6875H5.89844V6.44531H8.82812V7.61719H5.89844V9.375H8.82812V10.5469Z" fill="#37AAAF"/>
<path d="M10.5859 16.3801C13.8664 16.0828 16.4453 13.3172 16.4453 9.96094C16.2968 9.96094 15.6074 9.96094 15.2734 9.96094C15.2734 12.8716 12.9051 15.2344 10 15.2344C7.09219 15.2344 4.72656 12.8688 4.72656 9.96094H3.55469C3.55469 13.3172 6.13359 16.0828 9.41406 16.3801V18.8281H5.3125V20H14.6875V18.8281H10.5859V16.3801Z" fill="#37AAAF"/>
</svg>
