<svg width="30" height="30" viewBox="0 0 30 30" fill="none" xmlns="http://www.w3.org/2000/svg">
<g clip-path="url(#clip0_352_1599)">
<path d="M25.7543 4.02539H4.2457C1.90488 4.02539 0 5.93027 0 8.27168V21.7283C0 24.0697 1.90488 25.9746 4.2457 25.9746H25.7543C28.0951 25.9746 30 24.0697 30 21.7283V8.27168C30 5.93027 28.0951 4.02539 25.7543 4.02539ZM10.8873 10.7807L6.4207 15.2473L10.3928 19.2193C10.7361 19.5627 10.7361 20.1193 10.3928 20.4621C10.05 20.8055 9.49336 20.8055 9.15 20.4621L4.55625 15.8684C4.21289 15.525 4.21289 14.9689 4.55625 14.6256L9.64395 9.53789C9.9873 9.19453 10.5439 9.19453 10.8873 9.53789C11.2301 9.88066 11.2301 10.4373 10.8873 10.7807ZM18.1371 8.71289L13.4895 21.8725C13.3277 22.3307 12.8256 22.5703 12.368 22.4086C11.9104 22.2469 11.6701 21.7447 11.8318 21.2871L16.4795 8.12754C16.6412 7.66992 17.1428 7.42969 17.601 7.59141C18.0586 7.75313 18.2988 8.25527 18.1371 8.71289ZM25.4437 15.3744L20.3561 20.4621C20.0127 20.8055 19.4561 20.8055 19.1127 20.4621C18.7699 20.1193 18.7699 19.5627 19.1127 19.2193L23.5793 14.7527L19.6072 10.7807C19.2639 10.4373 19.2639 9.88066 19.6072 9.53789C19.95 9.19453 20.5066 9.19453 20.85 9.53789L25.4437 14.1316C25.7871 14.475 25.7871 15.0311 25.4437 15.3744Z" fill="white"/>
</g>
<defs>
<clipPath id="clip0_352_1599">
<rect width="30" height="30" fill="white"/>
</clipPath>
</defs>
</svg>
