<svg width="30" height="30" viewBox="0 0 30 30" fill="none" xmlns="http://www.w3.org/2000/svg">
<path d="M8.96531 7.93945L8.20313 6.76758C2.92969 10.3123 0 14.6191 0 18.1638C0 21.5913 2.52 23.2029 4.65844 23.2029C7.35375 23.2029 9.25781 20.9173 9.25781 18.5154C9.25781 16.4941 7.96875 14.7654 6.24 14.1204C5.74219 13.9441 5.27344 13.7979 5.27344 12.9485C5.27344 11.8648 6.06469 10.2541 8.96531 7.93945ZM20.5959 7.93945L19.8338 6.76758C14.6184 10.3123 11.6306 14.6191 11.6306 18.1638C11.6306 21.5913 14.2088 23.2029 16.3472 23.2029C19.0716 23.2029 21.0056 20.9173 21.0056 18.5154C21.0056 16.4941 19.6875 14.7654 17.8997 14.1204C17.4019 13.9441 16.9622 13.7979 16.9622 12.9485C16.9622 11.8648 17.7825 10.2532 20.595 7.93852L20.5959 7.93945Z" fill="#37AAAF"/>
</svg>
