<svg width="30" height="30" viewBox="0 0 30 30" fill="none" xmlns="http://www.w3.org/2000/svg">
<path fill-rule="evenodd" clip-rule="evenodd" d="M11.4709 26.185C11.7266 25.3828 11.8819 24.552 11.9333 23.7116H18.0199C18.0821 24.5536 18.2495 25.3845 18.5179 26.185H11.4709ZM19.9402 14.5795L21.8449 14.4293C21.8703 14.4269 21.8959 14.4302 21.9198 14.4391C21.9437 14.4479 21.9653 14.462 21.983 14.4802L23.5138 16.011C23.5366 16.0337 23.5651 16.0497 23.5962 16.0574C23.6274 16.0651 23.6601 16.064 23.6908 16.0544C23.7214 16.0448 23.7488 16.027 23.77 16.0029C23.7913 15.9788 23.8055 15.9493 23.8112 15.9177C23.9157 15.3364 23.8642 14.7378 23.6618 14.1829C23.4595 13.628 23.1136 13.1367 22.6594 12.7592C22.2052 12.3816 21.659 12.1313 21.0765 12.0337C20.494 11.9362 19.896 11.9949 19.3436 12.2039C19.312 12.2162 19.2775 12.219 19.2443 12.2119C19.2112 12.2048 19.1809 12.188 19.1572 12.1637L12.6374 5.64394C12.6131 5.62026 12.5964 5.58995 12.5892 5.5568C12.5821 5.52365 12.5849 5.48913 12.5972 5.45756C12.8062 4.90515 12.8648 4.30721 12.7673 3.72473C12.6697 3.14226 12.4193 2.59609 12.0418 2.14193C11.6642 1.68778 11.173 1.34189 10.6181 1.13956C10.0633 0.937224 9.46467 0.885684 8.8834 0.990193C8.85178 0.995854 8.82231 1.01007 8.79821 1.0313C8.7741 1.05253 8.75627 1.07996 8.74665 1.11061C8.73704 1.14126 8.73601 1.17396 8.74367 1.20515C8.75133 1.23635 8.7674 1.26485 8.79012 1.28756L10.3209 2.81832C10.3392 2.83605 10.3533 2.85768 10.3621 2.8816C10.371 2.90551 10.3743 2.93111 10.3719 2.95648L10.2216 4.86119C10.2185 4.90297 10.2005 4.94226 10.1709 4.97189C10.1413 5.00152 10.102 5.01952 10.0602 5.02261L8.15543 5.17291C8.13006 5.17528 8.10449 5.17193 8.08059 5.16311C8.05668 5.15429 8.03507 5.14022 8.01732 5.12193L6.4865 3.59088C6.46379 3.56817 6.43529 3.55212 6.4041 3.54447C6.37291 3.53682 6.34022 3.53786 6.30958 3.54748C6.27894 3.5571 6.25152 3.57493 6.23029 3.59904C6.20907 3.62314 6.19486 3.6526 6.1892 3.68422C6.08465 4.26551 6.13618 4.86414 6.33851 5.41903C6.54085 5.97392 6.88675 6.4652 7.34094 6.84276C7.79512 7.22033 8.34133 7.47065 8.92384 7.56821C9.50636 7.66576 10.1043 7.60705 10.6567 7.39806C10.6883 7.38569 10.7228 7.38289 10.756 7.39002C10.7892 7.39715 10.8195 7.41388 10.8432 7.43814L17.363 13.958C17.3872 13.9817 17.404 14.012 17.4111 14.0451C17.4183 14.0783 17.4154 14.1128 17.403 14.1444C17.1941 14.6968 17.1354 15.2948 17.2329 15.8773C17.3305 16.4598 17.5808 17.006 17.9584 17.4602C18.3359 17.9144 18.8272 18.2603 19.3821 18.4626C19.937 18.665 20.5356 18.7165 21.1169 18.612C21.1485 18.6063 21.178 18.5921 21.2021 18.5709C21.2262 18.5497 21.2441 18.5222 21.2537 18.4916C21.2633 18.4609 21.2643 18.4282 21.2567 18.397C21.249 18.3658 21.233 18.3373 21.2102 18.3146L19.6794 16.7838C19.6611 16.7661 19.647 16.7444 19.6382 16.7205C19.6294 16.6966 19.6261 16.671 19.6285 16.6457L19.7788 14.741C19.7819 14.6992 19.7999 14.6599 19.8295 14.6303C19.8591 14.6006 19.8984 14.5826 19.9402 14.5795ZM25.5277 6.00066C25.8569 6.00072 26.1726 6.13155 26.4054 6.36437C26.6381 6.59718 26.7689 6.91292 26.7689 7.24215V19.12H21.8136C21.9899 18.931 22.086 18.681 22.0816 18.4226C22.0772 18.1642 21.9727 17.9175 21.7901 17.7346L20.4695 16.4139L20.5531 15.354L21.613 15.2704L22.9337 16.5911C23.0623 16.7198 23.2238 16.8108 23.4006 16.8541C23.5774 16.8975 23.7626 16.8916 23.9363 16.8371C24.1099 16.7826 24.2654 16.6816 24.3856 16.545C24.5059 16.4084 24.5864 16.2414 24.6185 16.0623C24.7422 15.3738 24.6903 14.6652 24.4675 14.0022C24.2448 13.3391 23.8584 12.7429 23.3441 12.2688C22.8298 11.7946 22.2042 11.4579 21.5252 11.2897C20.8463 11.1214 20.1359 11.1272 19.4597 11.3063L17.4813 9.32808L20.7221 6.08738L21.565 6.00095L25.5277 6.00066ZM9.49869 27.0053H20.5021C20.7736 27.0073 21.0332 27.1166 21.2244 27.3093C21.4157 27.502 21.523 27.7624 21.523 28.0339C21.523 28.3053 21.4157 28.5658 21.2244 28.7585C21.0332 28.9511 20.7736 29.0604 20.5021 29.0625H9.49869C9.36296 29.0635 9.22837 29.0376 9.10268 28.9864C8.97699 28.9352 8.86268 28.8596 8.76634 28.764C8.67 28.6683 8.59354 28.5546 8.54136 28.4293C8.48918 28.304 8.46231 28.1696 8.46231 28.0339C8.46231 27.8981 8.48918 27.7638 8.54136 27.6384C8.59354 27.5131 8.67 27.3994 8.76634 27.3038C8.86268 27.2082 8.97699 27.1326 9.10268 27.0813C9.22837 27.0301 9.36296 27.0043 9.49869 27.0053ZM18.821 19.12H3.23145V7.69039C3.23144 7.46848 3.27514 7.24875 3.36006 7.04374C3.44498 6.83872 3.56944 6.65244 3.72636 6.49553C3.88327 6.33863 4.06956 6.21416 4.27457 6.12925C4.47959 6.04434 4.69933 6.00065 4.92123 6.00066H5.69039C6.09808 6.89397 6.80856 7.61432 7.69616 8.03431C8.58376 8.45429 9.59129 8.54685 10.5405 8.2956L11.7997 9.55484L6.83396 14.5206C6.37965 14.9782 6.12522 15.5972 6.12638 16.242C6.12755 16.8869 6.38422 17.505 6.84019 17.9609C7.29615 18.4169 7.91423 18.6736 8.55906 18.6747C9.20389 18.6759 9.8229 18.4215 10.2805 17.9671L15.2463 13.0014L16.5055 14.2606C16.2533 15.2136 16.3476 16.2252 16.7717 17.1151C17.1957 18.005 17.9218 18.7155 18.8208 19.12H18.821ZM14.1543 6.0009H16.7927L15.4735 7.32002L14.1543 6.0009ZM14.6664 12.4216L9.70066 17.3874C9.39745 17.6906 8.98622 17.8609 8.55741 17.8609C8.12861 17.8609 7.71737 17.6906 7.41416 17.3874C7.11095 17.0842 6.94061 16.6729 6.94061 16.2441C6.94061 15.8153 7.11095 15.4041 7.41416 15.1009L12.38 10.1351L14.6662 12.4214L14.6664 12.4216ZM16.0535 7.90009L19.4563 4.49732C19.4853 4.46908 19.5033 4.43134 19.5069 4.39097L19.6214 3.27412C19.6236 3.24847 19.6317 3.22367 19.6448 3.20157C19.658 3.17946 19.6761 3.16064 19.6976 3.1465L21.8545 1.68465C21.8882 1.66148 21.929 1.6509 21.9698 1.65478C22.0106 1.65866 22.0486 1.67674 22.0774 1.70586L23.0953 2.72375C23.1243 2.75249 23.1424 2.79053 23.1462 2.83123C23.1501 2.87192 23.1396 2.91269 23.1165 2.9464L21.6548 5.10347C21.6407 5.12499 21.6219 5.14302 21.5998 5.15622C21.5777 5.16941 21.5529 5.17742 21.5272 5.17965L20.4104 5.2942C20.3701 5.29779 20.3323 5.31573 20.3041 5.34476L16.9013 8.74801L16.0533 7.90009H16.0535ZM14.0712 21.6211C13.9624 21.6211 13.8581 21.5778 13.7812 21.5009C13.7043 21.424 13.6611 21.3197 13.6611 21.2109C13.6611 21.1021 13.7043 20.9978 13.7812 20.9209C13.8581 20.844 13.9624 20.8007 14.0712 20.8007H15.9292C16.038 20.8007 16.1423 20.844 16.2192 20.9209C16.2961 20.9978 16.3393 21.1021 16.3393 21.2109C16.3393 21.3197 16.2961 21.424 16.2192 21.5009C16.1423 21.5778 16.038 21.6211 15.9292 21.6211H14.0712ZM26.7689 19.9405H3.23145V21.2017C3.23144 21.4236 3.27514 21.6433 3.36006 21.8484C3.44498 22.0534 3.56944 22.2396 3.72636 22.3966C3.88327 22.5535 4.06956 22.6779 4.27457 22.7628C4.47959 22.8477 4.69933 22.8914 4.92123 22.8914H25.0791C25.301 22.8914 25.5208 22.8477 25.7258 22.7628C25.9308 22.6779 26.1171 22.5535 26.274 22.3966C26.4309 22.2396 26.5554 22.0534 26.6403 21.8484C26.7252 21.6433 26.7689 21.4236 26.7689 21.2017V19.9405Z" fill="white"/>
</svg>
