<svg width="20" height="20" viewBox="0 0 20 20" fill="none" xmlns="http://www.w3.org/2000/svg">
<g clip-path="url(#clip0_344_1614)">
<path d="M20 9.66317C20 14.2564 16.6121 18.0731 12.2039 18.7461C12.2411 18.5422 12.2515 18.3311 12.2265 18.1172C12.2265 18.1172 12.2002 17.8921 12.1657 17.5975C13.7308 17.3308 15.1438 16.6127 16.2638 15.5799C16.1965 15.524 16.1296 15.4515 16.0636 15.3552C15.7661 14.9212 16.1551 14.4906 16.1551 14.111C16.1551 13.7387 15.4045 13.7693 15.377 13.5228C15.2822 12.6689 15.901 12.6572 16.231 12.3273C16.5609 11.9974 15.9049 11.2473 15.4811 11.2957C15.0545 11.3412 13.8536 11.0986 13.9633 10.1798C14.097 9.06078 12.5376 9.15951 12.3143 8.63719C11.9888 7.87585 12.5299 6.94199 13.2358 6.72984C14.2355 6.42935 15.2204 5.61376 15.1434 4.70585C15.0563 3.67758 14.5908 2.75023 13.8243 2.19935C13.0266 1.87618 12.1664 1.67634 11.2665 1.62592C10.4633 1.65768 9.75716 1.83618 9.78938 2.20389C9.86836 3.105 12.4308 3.33905 12.0008 4.18141C11.7766 4.62052 10.0941 5.2403 10.4084 5.89382C10.6127 6.31882 11.1157 5.95458 10.9279 6.77049C10.8415 7.14592 10.5124 7.85131 10.0061 7.89683C9.48843 7.94516 9.05735 6.57373 7.64827 6.52876C6.98212 6.50745 6.04366 7.56811 6.84052 8.32059C7.32307 8.77628 8.22859 7.77291 8.49585 8.5567C8.68418 9.10902 8.47049 10.2693 9.34948 10.7542C9.6699 10.9309 10.1611 11.085 10.6469 11.3319C9.92585 11.4792 9.03984 11.7539 7.99359 12.1569L7.11209 11.9243C7.48111 11.6172 8.08068 11.4009 7.92984 10.7297C7.70823 9.7435 5.99591 10.1154 4.81542 8.93497C4.45327 8.57288 3.68082 7.37049 3.68399 5.92592C3.09555 7.04363 2.76065 8.31474 2.76065 9.6632C2.76065 10.0783 2.79232 10.4861 2.8532 10.8844C2.83931 10.8842 2.82559 10.8818 2.81173 10.8818C2.43997 10.8818 2.07536 10.9599 1.73745 11.1076C1.66281 10.6368 1.62297 10.1547 1.62297 9.66324C1.62297 4.59673 5.74497 0.474609 10.8114 0.474609C15.878 0.474544 20 4.59667 20 9.66317ZM13.1075 12.3413L10.8634 13.3729L10.8982 12.8839L12.352 12.2276C12.1446 12.2128 11.9298 12.2071 11.7153 12.2071C10.912 12.2071 9.55493 12.6137 8.05395 13.2095L3.24 11.9397C2.79013 11.821 2.31117 11.8942 1.91716 12.1417L1.68046 12.2904C1.44938 12.4356 1.44693 12.7715 1.67585 12.9201L4.56961 14.7975C3.87833 15.151 3.22248 15.51 2.64431 15.8529L1.15941 15.0668C0.916861 14.9384 0.630096 14.9232 0.375358 15.0252L0.234802 15.0815C0.0251941 15.1654 -0.0626164 15.4147 0.0481679 15.6115L0.866174 17.0648L0.866534 17.0647C0.557907 17.3302 0.382024 17.5504 0.382024 17.7028C0.382024 18.1589 0.943266 18.2728 1.43797 18.2728C2.32032 18.2728 13.9728 15.6048 13.9728 13.1877C13.9728 12.709 13.6454 12.4696 13.1075 12.3413ZM8.19448 17.0606L10.7586 16.1573C10.8716 16.1175 10.9923 16.1928 11.0062 16.3118L11.231 18.2338C11.2872 18.7141 11.0288 19.1763 10.5903 19.3802L10.3498 19.4919C10.1996 19.5617 10.0215 19.5243 9.91203 19.4L8.11634 17.3602C8.02892 17.2608 8.06964 17.1046 8.19448 17.0606Z" fill="#37AAAF"/>
</g>
<defs>
<clipPath id="clip0_344_1614">
<rect width="20" height="20" fill="white"/>
</clipPath>
</defs>
</svg>
