<svg width="500" height="500" viewBox="0 0 500 500" fill="none" xmlns="http://www.w3.org/2000/svg">
<g clip-path="url(#clip0_127_4)">
<path d="M144.536 386.852L140.758 373.034H142.458L145.346 384.288H145.481L148.423 373.034H150.312L153.254 384.288H153.389L156.276 373.034H157.977L154.198 386.852H152.471L149.421 375.841H149.313L146.264 386.852H144.536ZM163.226 387.068C162.227 387.068 161.366 386.848 160.642 386.407C159.922 385.962 159.367 385.341 158.975 384.545C158.588 383.744 158.395 382.813 158.395 381.751C158.395 380.69 158.588 379.754 158.975 378.945C159.367 378.13 159.911 377.496 160.608 377.042C161.31 376.583 162.128 376.354 163.064 376.354C163.604 376.354 164.137 376.444 164.663 376.624C165.189 376.804 165.668 377.096 166.1 377.501C166.532 377.901 166.876 378.432 167.133 379.093C167.389 379.754 167.517 380.568 167.517 381.536V382.21H159.528V380.834H165.898C165.898 380.249 165.781 379.727 165.547 379.268C165.318 378.81 164.989 378.448 164.562 378.182C164.139 377.917 163.64 377.784 163.064 377.784C162.43 377.784 161.881 377.942 161.418 378.256C160.959 378.567 160.606 378.972 160.358 379.471C160.111 379.97 159.987 380.505 159.987 381.077V381.994C159.987 382.777 160.122 383.44 160.392 383.985C160.666 384.525 161.047 384.936 161.532 385.219C162.018 385.498 162.583 385.638 163.226 385.638C163.644 385.638 164.022 385.579 164.359 385.462C164.701 385.341 164.996 385.161 165.243 384.923C165.491 384.68 165.682 384.378 165.817 384.018L167.355 384.45C167.193 384.972 166.921 385.431 166.539 385.827C166.156 386.218 165.684 386.524 165.122 386.744C164.56 386.96 163.928 387.068 163.226 387.068ZM178.333 387.095C177.676 387.095 177.08 386.971 176.545 386.724C176.01 386.472 175.584 386.11 175.27 385.638C174.955 385.161 174.797 384.585 174.797 383.911C174.797 383.317 174.914 382.835 175.148 382.467C175.382 382.093 175.695 381.801 176.086 381.59C176.477 381.378 176.909 381.221 177.381 381.117C177.858 381.009 178.337 380.924 178.819 380.861C179.448 380.78 179.959 380.719 180.35 380.679C180.746 380.634 181.034 380.559 181.214 380.456C181.398 380.353 181.49 380.173 181.49 379.916V379.862C181.49 379.197 181.308 378.679 180.944 378.31C180.584 377.942 180.038 377.757 179.304 377.757C178.544 377.757 177.948 377.924 177.516 378.256C177.085 378.589 176.781 378.945 176.606 379.322L175.094 378.783C175.364 378.153 175.724 377.663 176.174 377.312C176.628 376.956 177.123 376.709 177.658 376.57C178.198 376.426 178.729 376.354 179.25 376.354C179.583 376.354 179.966 376.394 180.397 376.475C180.834 376.552 181.254 376.711 181.659 376.954C182.068 377.197 182.408 377.564 182.678 378.054C182.948 378.544 183.083 379.201 183.083 380.024V386.852H181.49V385.449H181.409C181.302 385.674 181.122 385.914 180.87 386.171C180.618 386.427 180.283 386.645 179.864 386.825C179.446 387.005 178.936 387.095 178.333 387.095ZM178.576 385.665C179.205 385.665 179.736 385.541 180.168 385.294C180.604 385.046 180.933 384.727 181.153 384.336C181.378 383.944 181.49 383.533 181.49 383.101V381.643C181.423 381.724 181.275 381.799 181.045 381.866C180.82 381.929 180.559 381.985 180.262 382.035C179.97 382.08 179.684 382.12 179.406 382.156C179.131 382.188 178.909 382.215 178.738 382.237C178.324 382.291 177.937 382.379 177.577 382.5C177.222 382.617 176.934 382.795 176.713 383.033C176.498 383.267 176.39 383.587 176.39 383.991C176.39 384.545 176.594 384.963 177.004 385.246C177.417 385.525 177.941 385.665 178.576 385.665ZM185.989 386.852V376.489H187.527V378.054H187.635C187.824 377.541 188.166 377.125 188.661 376.806C189.156 376.486 189.714 376.327 190.334 376.327C190.451 376.327 190.597 376.329 190.773 376.333C190.948 376.338 191.081 376.345 191.171 376.354V377.973C191.117 377.96 190.993 377.939 190.8 377.912C190.611 377.881 190.411 377.865 190.199 377.865C189.696 377.865 189.246 377.971 188.85 378.182C188.459 378.389 188.148 378.677 187.919 379.046C187.694 379.41 187.581 379.826 187.581 380.294V386.852H185.989ZM197.088 387.068C196.09 387.068 195.228 386.848 194.504 386.407C193.784 385.962 193.229 385.341 192.837 384.545C192.451 383.744 192.257 382.813 192.257 381.751C192.257 380.69 192.451 379.754 192.837 378.945C193.229 378.13 193.773 377.496 194.47 377.042C195.172 376.583 195.991 376.354 196.926 376.354C197.466 376.354 197.999 376.444 198.525 376.624C199.052 376.804 199.531 377.096 199.962 377.501C200.394 377.901 200.738 378.432 200.995 379.093C201.251 379.754 201.379 380.568 201.379 381.536V382.21H193.391V380.834H199.76C199.76 380.249 199.643 379.727 199.409 379.268C199.18 378.81 198.851 378.448 198.424 378.182C198.001 377.917 197.502 377.784 196.926 377.784C196.292 377.784 195.743 377.942 195.28 378.256C194.821 378.567 194.468 378.972 194.221 379.471C193.973 379.97 193.85 380.505 193.85 381.077V381.994C193.85 382.777 193.985 383.44 194.254 383.985C194.529 384.525 194.909 384.936 195.395 385.219C195.88 385.498 196.445 385.638 197.088 385.638C197.507 385.638 197.884 385.579 198.222 385.462C198.564 385.341 198.858 385.161 199.106 384.923C199.353 384.68 199.544 384.378 199.679 384.018L201.217 384.45C201.056 384.972 200.783 385.431 200.401 385.827C200.019 386.218 199.546 386.524 198.984 386.744C198.422 386.96 197.79 387.068 197.088 387.068ZM218.429 373.034H220.103V382.183C220.103 383.128 219.88 383.971 219.435 384.713C218.994 385.451 218.371 386.034 217.566 386.461C216.761 386.884 215.816 387.095 214.732 387.095C213.648 387.095 212.703 386.884 211.898 386.461C211.093 386.034 210.468 385.451 210.023 384.713C209.582 383.971 209.361 383.128 209.361 382.183V373.034H211.035V382.048C211.035 382.723 211.183 383.324 211.48 383.85C211.777 384.372 212.2 384.783 212.748 385.085C213.302 385.381 213.963 385.53 214.732 385.53C215.501 385.53 216.162 385.381 216.716 385.085C217.269 384.783 217.692 384.372 217.984 383.85C218.281 383.324 218.429 382.723 218.429 382.048V373.034ZM224.821 380.618V386.852H223.228V376.489H224.767V378.108H224.902C225.145 377.582 225.513 377.159 226.008 376.84C226.503 376.516 227.142 376.354 227.924 376.354C228.626 376.354 229.24 376.498 229.766 376.786C230.293 377.069 230.702 377.501 230.994 378.081C231.287 378.657 231.433 379.385 231.433 380.267V386.852H229.841V380.375C229.841 379.561 229.629 378.927 229.206 378.472C228.784 378.014 228.203 377.784 227.466 377.784C226.957 377.784 226.503 377.894 226.103 378.115C225.707 378.335 225.394 378.657 225.165 379.08C224.935 379.502 224.821 380.015 224.821 380.618ZM238.256 387.068C237.392 387.068 236.63 386.85 235.969 386.414C235.307 385.973 234.79 385.352 234.417 384.552C234.044 383.746 233.857 382.795 233.857 381.697C233.857 380.609 234.044 379.664 234.417 378.864C234.79 378.063 235.31 377.445 235.975 377.008C236.641 376.572 237.41 376.354 238.283 376.354C238.958 376.354 239.491 376.466 239.882 376.691C240.278 376.911 240.579 377.163 240.786 377.447C240.998 377.726 241.162 377.955 241.279 378.135H241.414V373.034H243.006V386.852H241.468V385.26H241.279C241.162 385.449 240.995 385.687 240.779 385.975C240.564 386.259 240.255 386.513 239.855 386.738C239.455 386.958 238.922 387.068 238.256 387.068ZM238.472 385.638C239.111 385.638 239.65 385.471 240.091 385.139C240.532 384.801 240.867 384.336 241.097 383.742C241.326 383.144 241.441 382.453 241.441 381.67C241.441 380.897 241.328 380.22 241.103 379.64C240.878 379.055 240.546 378.601 240.105 378.277C239.664 377.948 239.12 377.784 238.472 377.784C237.797 377.784 237.235 377.957 236.785 378.304C236.34 378.646 236.005 379.111 235.78 379.7C235.559 380.285 235.449 380.942 235.449 381.67C235.449 382.408 235.562 383.078 235.787 383.681C236.016 384.279 236.353 384.756 236.799 385.112C237.248 385.462 237.806 385.638 238.472 385.638ZM250.489 387.068C249.49 387.068 248.629 386.848 247.904 386.407C247.185 385.962 246.629 385.341 246.238 384.545C245.851 383.744 245.658 382.813 245.658 381.751C245.658 380.69 245.851 379.754 246.238 378.945C246.629 378.13 247.173 377.496 247.871 377.042C248.572 376.583 249.391 376.354 250.327 376.354C250.866 376.354 251.399 376.444 251.926 376.624C252.452 376.804 252.931 377.096 253.363 377.501C253.795 377.901 254.139 378.432 254.395 379.093C254.652 379.754 254.78 380.568 254.78 381.536V382.21H246.791V380.834H253.16C253.16 380.249 253.044 379.727 252.81 379.268C252.58 378.81 252.252 378.448 251.825 378.182C251.402 377.917 250.902 377.784 250.327 377.784C249.692 377.784 249.144 377.942 248.68 378.256C248.222 378.567 247.868 378.972 247.621 379.471C247.374 379.97 247.25 380.505 247.25 381.077V381.994C247.25 382.777 247.385 383.44 247.655 383.985C247.929 384.525 248.309 384.936 248.795 385.219C249.281 385.498 249.845 385.638 250.489 385.638C250.907 385.638 251.285 385.579 251.622 385.462C251.964 385.341 252.259 385.161 252.506 384.923C252.753 384.68 252.945 384.378 253.08 384.018L254.618 384.45C254.456 384.972 254.184 385.431 253.801 385.827C253.419 386.218 252.947 386.524 252.385 386.744C251.822 386.96 251.19 387.068 250.489 387.068ZM257.202 386.852V376.489H258.74V378.054H258.848C259.037 377.541 259.379 377.125 259.874 376.806C260.369 376.486 260.926 376.327 261.547 376.327C261.664 376.327 261.81 376.329 261.986 376.333C262.161 376.338 262.294 376.345 262.384 376.354V377.973C262.33 377.96 262.206 377.939 262.013 377.912C261.824 377.881 261.624 377.865 261.412 377.865C260.908 377.865 260.459 377.971 260.063 378.182C259.671 378.389 259.361 378.677 259.132 379.046C258.907 379.41 258.794 379.826 258.794 380.294V386.852H257.202ZM269.831 373.034H271.828L276.524 384.504H276.686L281.382 373.034H283.379V386.852H281.814V376.354H281.679L277.361 386.852H275.849L271.531 376.354H271.396V386.852H269.831V373.034ZM289.568 387.095C288.911 387.095 288.315 386.971 287.78 386.724C287.245 386.472 286.82 386.11 286.505 385.638C286.19 385.161 286.033 384.585 286.033 383.911C286.033 383.317 286.15 382.835 286.383 382.467C286.617 382.093 286.93 381.801 287.321 381.59C287.713 381.378 288.144 381.221 288.617 381.117C289.094 381.009 289.573 380.924 290.054 380.861C290.684 380.78 291.194 380.719 291.586 380.679C291.981 380.634 292.269 380.559 292.449 380.456C292.634 380.353 292.726 380.173 292.726 379.916V379.862C292.726 379.197 292.544 378.679 292.179 378.31C291.819 377.942 291.273 377.757 290.54 377.757C289.78 377.757 289.184 377.924 288.752 378.256C288.32 378.589 288.016 378.945 287.841 379.322L286.33 378.783C286.599 378.153 286.959 377.663 287.409 377.312C287.863 376.956 288.358 376.709 288.893 376.57C289.433 376.426 289.964 376.354 290.486 376.354C290.819 376.354 291.201 376.394 291.633 376.475C292.069 376.552 292.49 376.711 292.894 376.954C293.304 377.197 293.643 377.564 293.913 378.054C294.183 378.544 294.318 379.201 294.318 380.024V386.852H292.726V385.449H292.645C292.537 385.674 292.357 385.914 292.105 386.171C291.853 386.427 291.518 386.645 291.1 386.825C290.681 387.005 290.171 387.095 289.568 387.095ZM289.811 385.665C290.441 385.665 290.972 385.541 291.403 385.294C291.84 385.046 292.168 384.727 292.388 384.336C292.613 383.944 292.726 383.533 292.726 383.101V381.643C292.658 381.724 292.51 381.799 292.28 381.866C292.056 381.929 291.795 381.985 291.498 382.035C291.205 382.08 290.92 382.12 290.641 382.156C290.367 382.188 290.144 382.215 289.973 382.237C289.559 382.291 289.172 382.379 288.812 382.5C288.457 382.617 288.169 382.795 287.949 383.033C287.733 383.267 287.625 383.587 287.625 383.991C287.625 384.545 287.83 384.963 288.239 385.246C288.653 385.525 289.177 385.665 289.811 385.665ZM297.224 386.852V376.489H298.817V386.852H297.224ZM298.034 374.761C297.724 374.761 297.456 374.656 297.231 374.444C297.011 374.233 296.901 373.979 296.901 373.682C296.901 373.385 297.011 373.131 297.231 372.919C297.456 372.708 297.724 372.602 298.034 372.602C298.345 372.602 298.61 372.708 298.83 372.919C299.055 373.131 299.168 373.385 299.168 373.682C299.168 373.979 299.055 374.233 298.83 374.444C298.61 374.656 298.345 374.761 298.034 374.761ZM303.326 380.618V386.852H301.733V376.489H303.272V378.108H303.407C303.649 377.582 304.018 377.159 304.513 376.84C305.008 376.516 305.647 376.354 306.429 376.354C307.131 376.354 307.745 376.498 308.271 376.786C308.798 377.069 309.207 377.501 309.499 378.081C309.792 378.657 309.938 379.385 309.938 380.267V386.852H308.345V380.375C308.345 379.561 308.134 378.927 307.711 378.472C307.288 378.014 306.708 377.784 305.97 377.784C305.462 377.784 305.008 377.894 304.608 378.115C304.212 378.335 303.899 378.657 303.67 379.08C303.44 379.502 303.326 380.015 303.326 380.618ZM317.355 376.489V377.838H311.984V376.489H317.355ZM313.549 374.006H315.142V383.884C315.142 384.333 315.207 384.671 315.337 384.896C315.472 385.116 315.643 385.264 315.85 385.341C316.061 385.413 316.284 385.449 316.518 385.449C316.693 385.449 316.837 385.44 316.95 385.422C317.062 385.399 317.152 385.381 317.22 385.368L317.544 386.798C317.436 386.839 317.285 386.879 317.091 386.92C316.898 386.965 316.653 386.987 316.356 386.987C315.906 386.987 315.465 386.891 315.034 386.697C314.606 386.504 314.251 386.209 313.968 385.813C313.689 385.417 313.549 384.918 313.549 384.315V374.006ZM323.984 387.068C322.985 387.068 322.124 386.848 321.4 386.407C320.68 385.962 320.124 385.341 319.733 384.545C319.346 383.744 319.153 382.813 319.153 381.751C319.153 380.69 319.346 379.754 319.733 378.945C320.124 378.13 320.669 377.496 321.366 377.042C322.068 376.583 322.886 376.354 323.822 376.354C324.362 376.354 324.895 376.444 325.421 376.624C325.947 376.804 326.426 377.096 326.858 377.501C327.29 377.901 327.634 378.432 327.89 379.093C328.147 379.754 328.275 380.568 328.275 381.536V382.21H320.286V380.834H326.656C326.656 380.249 326.539 379.727 326.305 379.268C326.075 378.81 325.747 378.448 325.32 378.182C324.897 377.917 324.398 377.784 323.822 377.784C323.188 377.784 322.639 377.942 322.175 378.256C321.717 378.567 321.364 378.972 321.116 379.471C320.869 379.97 320.745 380.505 320.745 381.077V381.994C320.745 382.777 320.88 383.44 321.15 383.985C321.424 384.525 321.804 384.936 322.29 385.219C322.776 385.498 323.34 385.638 323.984 385.638C324.402 385.638 324.78 385.579 325.117 385.462C325.459 385.341 325.754 385.161 326.001 384.923C326.249 384.68 326.44 384.378 326.575 384.018L328.113 384.45C327.951 384.972 327.679 385.431 327.297 385.827C326.914 386.218 326.442 386.524 325.88 386.744C325.317 386.96 324.685 387.068 323.984 387.068ZM332.289 380.618V386.852H330.697V376.489H332.235V378.108H332.37C332.613 377.582 332.982 377.159 333.477 376.84C333.972 376.516 334.61 376.354 335.393 376.354C336.095 376.354 336.709 376.498 337.235 376.786C337.761 377.069 338.171 377.501 338.463 378.081C338.755 378.657 338.902 379.385 338.902 380.267V386.852H337.309V380.375C337.309 379.561 337.098 378.927 336.675 378.472C336.252 378.014 335.672 377.784 334.934 377.784C334.426 377.784 333.972 377.894 333.571 378.115C333.176 378.335 332.863 378.657 332.634 379.08C332.404 379.502 332.289 380.015 332.289 380.618ZM344.861 387.095C344.204 387.095 343.608 386.971 343.073 386.724C342.538 386.472 342.113 386.11 341.798 385.638C341.483 385.161 341.326 384.585 341.326 383.911C341.326 383.317 341.443 382.835 341.676 382.467C341.91 382.093 342.223 381.801 342.614 381.59C343.006 381.378 343.437 381.221 343.91 381.117C344.387 381.009 344.866 380.924 345.347 380.861C345.977 380.78 346.487 380.719 346.879 380.679C347.274 380.634 347.562 380.559 347.742 380.456C347.927 380.353 348.019 380.173 348.019 379.916V379.862C348.019 379.197 347.837 378.679 347.472 378.31C347.112 377.942 346.566 377.757 345.833 377.757C345.073 377.757 344.477 377.924 344.045 378.256C343.613 378.589 343.309 378.945 343.134 379.322L341.622 378.783C341.892 378.153 342.252 377.663 342.702 377.312C343.156 376.956 343.651 376.709 344.186 376.57C344.726 376.426 345.257 376.354 345.779 376.354C346.112 376.354 346.494 376.394 346.926 376.475C347.362 376.552 347.783 376.711 348.187 376.954C348.597 377.197 348.936 377.564 349.206 378.054C349.476 378.544 349.611 379.201 349.611 380.024V386.852H348.019V385.449H347.938C347.83 385.674 347.65 385.914 347.398 386.171C347.146 386.427 346.811 386.645 346.393 386.825C345.974 387.005 345.464 387.095 344.861 387.095ZM345.104 385.665C345.734 385.665 346.265 385.541 346.696 385.294C347.133 385.046 347.461 384.727 347.681 384.336C347.906 383.944 348.019 383.533 348.019 383.101V381.643C347.951 381.724 347.803 381.799 347.573 381.866C347.349 381.929 347.088 381.985 346.791 382.035C346.498 382.08 346.213 382.12 345.934 382.156C345.66 382.188 345.437 382.215 345.266 382.237C344.852 382.291 344.465 382.379 344.105 382.5C343.75 382.617 343.462 382.795 343.242 383.033C343.026 383.267 342.918 383.587 342.918 383.991C342.918 384.545 343.123 384.963 343.532 385.246C343.946 385.525 344.47 385.665 345.104 385.665ZM354.11 380.618V386.852H352.517V376.489H354.056V378.108H354.191C354.434 377.582 354.802 377.159 355.297 376.84C355.792 376.516 356.431 376.354 357.213 376.354C357.915 376.354 358.529 376.498 359.055 376.786C359.582 377.069 359.991 377.501 360.283 378.081C360.576 378.657 360.722 379.385 360.722 380.267V386.852H359.13V380.375C359.13 379.561 358.918 378.927 358.495 378.472C358.073 378.014 357.492 377.784 356.755 377.784C356.246 377.784 355.792 377.894 355.392 378.115C354.996 378.335 354.683 378.657 354.454 379.08C354.224 379.502 354.11 380.015 354.11 380.618ZM367.842 387.068C366.87 387.068 366.034 386.839 365.332 386.38C364.63 385.921 364.091 385.289 363.713 384.484C363.335 383.679 363.146 382.759 363.146 381.724C363.146 380.672 363.339 379.743 363.726 378.938C364.117 378.128 364.662 377.496 365.359 377.042C366.061 376.583 366.879 376.354 367.815 376.354C368.544 376.354 369.2 376.489 369.785 376.759C370.37 377.028 370.849 377.406 371.222 377.892C371.596 378.378 371.827 378.945 371.917 379.592H370.325C370.203 379.12 369.934 378.702 369.515 378.337C369.101 377.969 368.544 377.784 367.842 377.784C367.221 377.784 366.677 377.946 366.209 378.27C365.746 378.589 365.384 379.041 365.123 379.626C364.866 380.206 364.738 380.888 364.738 381.67C364.738 382.471 364.864 383.168 365.116 383.762C365.372 384.356 365.732 384.817 366.196 385.145C366.663 385.474 367.212 385.638 367.842 385.638C368.256 385.638 368.631 385.566 368.969 385.422C369.306 385.278 369.592 385.071 369.826 384.801C370.059 384.531 370.226 384.207 370.325 383.83H371.917C371.827 384.441 371.605 384.992 371.249 385.483C370.898 385.968 370.433 386.355 369.853 386.643C369.277 386.927 368.607 387.068 367.842 387.068ZM378.59 387.068C377.592 387.068 376.73 386.848 376.006 386.407C375.286 385.962 374.731 385.341 374.339 384.545C373.953 383.744 373.759 382.813 373.759 381.751C373.759 380.69 373.953 379.754 374.339 378.945C374.731 378.13 375.275 377.496 375.972 377.042C376.674 376.583 377.493 376.354 378.428 376.354C378.968 376.354 379.501 376.444 380.027 376.624C380.554 376.804 381.033 377.096 381.464 377.501C381.896 377.901 382.24 378.432 382.497 379.093C382.753 379.754 382.881 380.568 382.881 381.536V382.21H374.893V380.834H381.262C381.262 380.249 381.145 379.727 380.911 379.268C380.682 378.81 380.353 378.448 379.926 378.182C379.503 377.917 379.004 377.784 378.428 377.784C377.794 377.784 377.245 377.942 376.782 378.256C376.323 378.567 375.97 378.972 375.723 379.471C375.475 379.97 375.352 380.505 375.352 381.077V381.994C375.352 382.777 375.486 383.44 375.756 383.985C376.031 384.525 376.411 384.936 376.897 385.219C377.382 385.498 377.947 385.638 378.59 385.638C379.008 385.638 379.386 385.579 379.724 385.462C380.066 385.341 380.36 385.161 380.608 384.923C380.855 384.68 381.046 384.378 381.181 384.018L382.719 384.45C382.557 384.972 382.285 385.431 381.903 385.827C381.521 386.218 381.048 386.524 380.486 386.744C379.924 386.96 379.292 387.068 378.59 387.068ZM386.464 386.96C386.131 386.96 385.846 386.841 385.607 386.603C385.369 386.364 385.25 386.079 385.25 385.746C385.25 385.413 385.369 385.127 385.607 384.889C385.846 384.65 386.131 384.531 386.464 384.531C386.797 384.531 387.083 384.65 387.321 384.889C387.559 385.127 387.679 385.413 387.679 385.746C387.679 385.966 387.622 386.169 387.51 386.353C387.402 386.537 387.256 386.686 387.071 386.798C386.891 386.906 386.689 386.96 386.464 386.96Z" fill="#575757"/>
<path d="M203.625 408.853L201.04 399.399H202.204L204.179 407.099H204.272L206.284 399.399H207.577L209.59 407.099H209.682L211.658 399.399H212.821L210.236 408.853H209.054L206.968 401.319H206.894L204.807 408.853H203.625ZM214.1 408.853V401.762H215.19V408.853H214.1ZM214.654 400.581C214.442 400.581 214.259 400.508 214.105 400.364C213.954 400.219 213.879 400.045 213.879 399.842C213.879 399.639 213.954 399.465 214.105 399.32C214.259 399.176 214.442 399.103 214.654 399.103C214.867 399.103 215.048 399.176 215.199 399.32C215.353 399.465 215.43 399.639 215.43 399.842C215.43 400.045 215.353 400.219 215.199 400.364C215.048 400.508 214.867 400.581 214.654 400.581ZM218.275 399.399V408.853H217.185V399.399H218.275ZM221.36 399.399V408.853H220.27V399.399H221.36ZM227.159 408.853V399.399H228.249V402.889H228.341C228.421 402.766 228.532 402.609 228.673 402.418C228.818 402.224 229.024 402.052 229.292 401.901C229.563 401.747 229.929 401.67 230.391 401.67C230.988 401.67 231.514 401.819 231.969 402.118C232.425 402.416 232.78 402.84 233.036 403.387C233.291 403.935 233.419 404.581 233.419 405.326C233.419 406.077 233.291 406.728 233.036 407.279C232.78 407.827 232.426 408.252 231.974 408.553C231.522 408.852 231 409.001 230.409 409.001C229.954 409.001 229.589 408.926 229.315 408.775C229.041 408.621 228.83 408.447 228.682 408.253C228.535 408.056 228.421 407.893 228.341 407.764H228.212V408.853H227.159ZM228.23 405.308C228.23 405.843 228.309 406.316 228.466 406.725C228.622 407.131 228.852 407.45 229.153 407.681C229.455 407.908 229.824 408.022 230.261 408.022C230.717 408.022 231.097 407.902 231.402 407.662C231.709 407.419 231.94 407.093 232.094 406.684C232.251 406.271 232.33 405.813 232.33 405.308C232.33 404.809 232.253 404.36 232.099 403.96C231.948 403.557 231.719 403.238 231.411 403.004C231.106 402.767 230.723 402.649 230.261 402.649C229.818 402.649 229.446 402.761 229.144 402.986C228.843 403.207 228.615 403.518 228.461 403.918C228.307 404.315 228.23 404.778 228.23 405.308ZM238.059 409.001C237.375 409.001 236.786 408.85 236.29 408.549C235.798 408.244 235.418 407.819 235.15 407.274C234.885 406.727 234.753 406.09 234.753 405.363C234.753 404.637 234.885 403.997 235.15 403.443C235.418 402.886 235.79 402.452 236.267 402.141C236.747 401.827 237.308 401.67 237.948 401.67C238.317 401.67 238.682 401.732 239.042 401.855C239.402 401.978 239.73 402.178 240.025 402.455C240.321 402.729 240.556 403.092 240.731 403.544C240.907 403.997 240.995 404.554 240.995 405.215V405.677H235.529V404.735H239.887C239.887 404.335 239.807 403.978 239.647 403.664C239.49 403.35 239.265 403.103 238.973 402.921C238.683 402.74 238.342 402.649 237.948 402.649C237.514 402.649 237.138 402.756 236.821 402.972C236.507 403.184 236.266 403.461 236.097 403.803C235.927 404.144 235.843 404.511 235.843 404.902V405.529C235.843 406.065 235.935 406.519 236.12 406.891C236.307 407.261 236.567 407.542 236.9 407.736C237.232 407.927 237.618 408.022 238.059 408.022C238.345 408.022 238.603 407.982 238.834 407.902C239.068 407.819 239.27 407.696 239.439 407.533C239.608 407.367 239.739 407.161 239.831 406.914L240.884 407.21C240.773 407.567 240.587 407.881 240.325 408.152C240.064 408.419 239.74 408.629 239.356 408.779C238.971 408.927 238.539 409.001 238.059 409.001ZM246.456 408.853V399.399H249.761C250.42 399.399 250.963 399.513 251.391 399.74C251.819 399.965 252.137 400.268 252.347 400.65C252.556 401.028 252.66 401.448 252.66 401.91C252.66 402.316 252.588 402.652 252.443 402.916C252.302 403.181 252.114 403.39 251.88 403.544C251.649 403.698 251.399 403.812 251.128 403.886V403.978C251.417 403.997 251.708 404.098 252 404.283C252.293 404.468 252.537 404.732 252.734 405.077C252.931 405.422 253.03 405.843 253.03 406.342C253.03 406.816 252.922 407.242 252.707 407.621C252.491 407.999 252.151 408.299 251.686 408.521C251.222 408.742 250.617 408.853 249.872 408.853H246.456ZM247.601 407.838H249.872C250.62 407.838 251.151 407.693 251.465 407.404C251.782 407.111 251.94 406.757 251.94 406.342C251.94 406.022 251.859 405.726 251.696 405.456C251.533 405.182 251.3 404.963 250.999 404.8C250.697 404.634 250.34 404.551 249.928 404.551H247.601V407.838ZM247.601 403.554H249.724C250.069 403.554 250.38 403.486 250.657 403.35C250.937 403.215 251.159 403.024 251.322 402.778C251.488 402.532 251.571 402.242 251.571 401.91C251.571 401.495 251.426 401.142 251.137 400.853C250.848 400.561 250.389 400.414 249.761 400.414H247.601V403.554ZM256.85 409.019C256.401 409.019 255.993 408.935 255.627 408.766C255.26 408.593 254.969 408.345 254.754 408.022C254.539 407.696 254.431 407.302 254.431 406.84C254.431 406.434 254.511 406.105 254.671 405.853C254.831 405.597 255.045 405.397 255.313 405.252C255.58 405.108 255.876 405 256.199 404.929C256.525 404.855 256.853 404.797 257.182 404.754C257.613 404.698 257.962 404.657 258.23 404.629C258.501 404.598 258.698 404.548 258.821 404.477C258.947 404.406 259.01 404.283 259.01 404.108V404.071C259.01 403.615 258.886 403.261 258.636 403.009C258.39 402.756 258.016 402.63 257.515 402.63C256.995 402.63 256.587 402.744 256.291 402.972C255.996 403.2 255.788 403.443 255.668 403.701L254.634 403.332C254.819 402.901 255.065 402.566 255.373 402.326C255.683 402.082 256.022 401.913 256.388 401.818C256.758 401.719 257.121 401.67 257.478 401.67C257.706 401.67 257.967 401.698 258.263 401.753C258.561 401.805 258.849 401.915 259.126 402.081C259.406 402.247 259.638 402.498 259.823 402.833C260.008 403.169 260.1 403.618 260.1 404.181V408.853H259.01V407.893H258.955C258.881 408.047 258.758 408.212 258.586 408.387C258.413 408.562 258.184 408.712 257.898 408.835C257.612 408.958 257.262 409.019 256.85 409.019ZM257.016 408.041C257.447 408.041 257.81 407.956 258.106 407.787C258.404 407.618 258.629 407.399 258.78 407.131C258.933 406.864 259.01 406.582 259.01 406.287V405.289C258.964 405.345 258.863 405.396 258.706 405.442C258.552 405.485 258.373 405.523 258.17 405.557C257.97 405.588 257.775 405.616 257.584 405.64C257.396 405.662 257.244 405.68 257.127 405.696C256.844 405.733 256.579 405.793 256.333 405.876C256.09 405.956 255.893 406.077 255.742 406.24C255.594 406.4 255.52 406.619 255.52 406.896C255.52 407.274 255.66 407.561 255.94 407.755C256.224 407.945 256.582 408.041 257.016 408.041ZM264.969 409.001C264.304 409.001 263.732 408.844 263.252 408.53C262.772 408.216 262.402 407.784 262.144 407.233C261.885 406.682 261.756 406.053 261.756 405.345C261.756 404.625 261.888 403.989 262.153 403.438C262.421 402.884 262.793 402.452 263.27 402.141C263.75 401.827 264.311 401.67 264.951 401.67C265.449 401.67 265.899 401.762 266.299 401.947C266.699 402.132 267.027 402.39 267.282 402.723C267.537 403.055 267.696 403.443 267.758 403.886H266.668C266.585 403.563 266.4 403.277 266.114 403.027C265.831 402.775 265.449 402.649 264.969 402.649C264.544 402.649 264.172 402.76 263.852 402.981C263.535 403.2 263.287 403.509 263.109 403.909C262.933 404.306 262.846 404.772 262.846 405.308C262.846 405.856 262.932 406.333 263.104 406.739C263.28 407.145 263.526 407.461 263.843 407.685C264.163 407.91 264.538 408.022 264.969 408.022C265.252 408.022 265.509 407.973 265.74 407.875C265.971 407.776 266.166 407.635 266.326 407.45C266.486 407.265 266.6 407.044 266.668 406.785H267.758C267.696 407.204 267.544 407.581 267.3 407.916C267.06 408.249 266.742 408.513 266.345 408.71C265.951 408.904 265.492 409.001 264.969 409.001ZM270.366 406.268L270.347 404.92H270.569L273.671 401.762H275.019L271.714 405.105H271.621L270.366 406.268ZM269.35 408.853V399.399H270.44V408.853H269.35ZM273.856 408.853L271.086 405.345L271.862 404.588L275.241 408.853H273.856ZM285.396 401.762C285.341 401.295 285.116 400.931 284.722 400.673C284.328 400.414 283.845 400.285 283.272 400.285C282.854 400.285 282.488 400.353 282.174 400.488C281.863 400.624 281.62 400.81 281.444 401.047C281.272 401.284 281.186 401.553 281.186 401.855C281.186 402.107 281.246 402.324 281.366 402.506C281.489 402.684 281.646 402.833 281.837 402.953C282.027 403.07 282.227 403.167 282.437 403.244C282.646 403.318 282.838 403.378 283.014 403.424L283.974 403.683C284.22 403.747 284.494 403.837 284.796 403.951C285.1 404.064 285.391 404.22 285.668 404.417C285.948 404.611 286.179 404.86 286.361 405.165C286.542 405.469 286.633 405.843 286.633 406.287C286.633 406.797 286.499 407.259 286.231 407.671C285.967 408.084 285.579 408.412 285.068 408.655C284.56 408.898 283.943 409.019 283.217 409.019C282.54 409.019 281.954 408.91 281.458 408.692C280.966 408.473 280.578 408.168 280.295 407.778C280.015 407.387 279.856 406.933 279.819 406.416H281.001C281.032 406.773 281.152 407.068 281.361 407.302C281.573 407.533 281.841 407.705 282.164 407.819C282.491 407.93 282.841 407.985 283.217 407.985C283.654 407.985 284.046 407.915 284.394 407.773C284.742 407.628 285.017 407.428 285.22 407.173C285.424 406.914 285.525 406.613 285.525 406.268C285.525 405.954 285.437 405.699 285.262 405.502C285.087 405.305 284.856 405.145 284.57 405.022C284.283 404.898 283.974 404.791 283.642 404.698L282.478 404.366C281.74 404.154 281.155 403.851 280.724 403.457C280.293 403.063 280.078 402.547 280.078 401.91C280.078 401.381 280.221 400.919 280.507 400.525C280.796 400.128 281.184 399.82 281.67 399.602C282.16 399.38 282.706 399.269 283.309 399.269C283.919 399.269 284.46 399.379 284.934 399.597C285.408 399.813 285.784 400.108 286.061 400.484C286.341 400.859 286.488 401.285 286.504 401.762H285.396ZM291.248 409.001C290.608 409.001 290.047 408.849 289.563 408.544C289.083 408.239 288.708 407.813 288.437 407.265C288.169 406.717 288.035 406.077 288.035 405.345C288.035 404.606 288.169 403.961 288.437 403.41C288.708 402.86 289.083 402.432 289.563 402.127C290.047 401.822 290.608 401.67 291.248 401.67C291.889 401.67 292.449 401.822 292.929 402.127C293.412 402.432 293.788 402.86 294.055 403.41C294.326 403.961 294.462 404.606 294.462 405.345C294.462 406.077 294.326 406.717 294.055 407.265C293.788 407.813 293.412 408.239 292.929 408.544C292.449 408.849 291.889 409.001 291.248 409.001ZM291.248 408.022C291.735 408.022 292.135 407.898 292.449 407.648C292.763 407.399 292.995 407.071 293.146 406.665C293.297 406.259 293.372 405.819 293.372 405.345C293.372 404.871 293.297 404.429 293.146 404.02C292.995 403.61 292.763 403.28 292.449 403.027C292.135 402.775 291.735 402.649 291.248 402.649C290.762 402.649 290.362 402.775 290.048 403.027C289.734 403.28 289.502 403.61 289.351 404.02C289.2 404.429 289.125 404.871 289.125 405.345C289.125 405.819 289.2 406.259 289.351 406.665C289.502 407.071 289.734 407.399 290.048 407.648C290.362 407.898 290.762 408.022 291.248 408.022ZM299.005 409.001C298.365 409.001 297.803 408.849 297.32 408.544C296.84 408.239 296.465 407.813 296.194 407.265C295.926 406.717 295.792 406.077 295.792 405.345C295.792 404.606 295.926 403.961 296.194 403.41C296.465 402.86 296.84 402.432 297.32 402.127C297.803 401.822 298.365 401.67 299.005 401.67C299.645 401.67 300.206 401.822 300.686 402.127C301.169 402.432 301.544 402.86 301.812 403.41C302.083 403.961 302.218 404.606 302.218 405.345C302.218 406.077 302.083 406.717 301.812 407.265C301.544 407.813 301.169 408.239 300.686 408.544C300.206 408.849 299.645 409.001 299.005 409.001ZM299.005 408.022C299.492 408.022 299.892 407.898 300.206 407.648C300.519 407.399 300.752 407.071 300.903 406.665C301.053 406.259 301.129 405.819 301.129 405.345C301.129 404.871 301.053 404.429 300.903 404.02C300.752 403.61 300.519 403.28 300.206 403.027C299.892 402.775 299.492 402.649 299.005 402.649C298.519 402.649 298.119 402.775 297.805 403.027C297.491 403.28 297.259 403.61 297.108 404.02C296.957 404.429 296.882 404.871 296.882 405.345C296.882 405.819 296.957 406.259 297.108 406.665C297.259 407.071 297.491 407.399 297.805 407.648C298.119 407.898 298.519 408.022 299.005 408.022ZM304.971 404.588V408.853H303.881V401.762H304.934V402.87H305.026C305.193 402.51 305.445 402.221 305.783 402.002C306.122 401.781 306.559 401.67 307.095 401.67C307.575 401.67 307.995 401.769 308.355 401.965C308.715 402.159 308.995 402.455 309.195 402.852C309.395 403.246 309.495 403.744 309.495 404.348V408.853H308.406V404.421C308.406 403.864 308.261 403.43 307.972 403.12C307.682 402.806 307.285 402.649 306.781 402.649C306.433 402.649 306.122 402.724 305.848 402.875C305.577 403.026 305.363 403.246 305.206 403.535C305.049 403.824 304.971 404.175 304.971 404.588ZM312.926 399.399L312.834 406.194H311.763L311.671 399.399H312.926ZM312.298 408.927C312.071 408.927 311.875 408.846 311.712 408.682C311.549 408.519 311.467 408.324 311.467 408.096C311.467 407.868 311.549 407.673 311.712 407.51C311.875 407.347 312.071 407.265 312.298 407.265C312.526 407.265 312.722 407.347 312.885 407.51C313.048 407.673 313.129 407.868 313.129 408.096C313.129 408.247 313.091 408.385 313.014 408.512C312.94 408.638 312.84 408.739 312.714 408.816C312.591 408.89 312.452 408.927 312.298 408.927Z" fill="#575757"/>
<path d="M317.66 333.88C317.12 332.12 315.88 330.47 314.13 329.9C312.37 329.33 310.15 330.19 309.6 331.95C307.98 330.6 305.51 331.67 304.21 333.33C302.11 336.01 303.73 340.39 304.08 340.68C304.46 340.99 305.48 340.93 305.48 340.93L321.19 340.84C321.19 340.84 324.07 340.63 325.4 340.1C328.08 339.03 329.9 334.43 328.17 332.12C327 330.55 324.68 330.21 322.81 330.81C320.95 331.41 319.13 332.58 317.66 333.88Z" fill="#C9C9C9"/>
<path d="M305.26 341.46C304.86 341.46 304.15 341.41 303.75 341.08C303.13 340.58 301.57 335.85 303.8 333.01C304.74 331.81 306.14 330.98 307.47 330.84C308.16 330.76 308.81 330.88 309.37 331.18C309.71 330.57 310.24 330.07 310.92 329.71C311.95 329.17 313.21 329.06 314.29 329.4C315.85 329.9 317.16 331.22 317.9 333C319.43 331.76 321.1 330.82 322.67 330.32C324.55 329.72 327.2 329.93 328.6 331.81C329.41 332.89 329.59 334.49 329.11 336.2C328.53 338.24 327.16 339.96 325.6 340.58C324.21 341.13 321.36 341.35 321.23 341.36L305.49 341.45C305.44 341.45 305.36 341.46 305.26 341.46ZM307.87 331.86C307.77 331.86 307.68 331.87 307.58 331.88C306.54 331.99 305.38 332.69 304.62 333.66C302.78 336.01 304.15 339.93 304.45 340.33C304.52 340.38 305.04 340.45 305.46 340.43L321.19 340.34C321.18 340.34 323.97 340.13 325.21 339.64C326.46 339.14 327.62 337.66 328.1 335.94C328.5 334.54 328.37 333.27 327.76 332.45C326.66 330.98 324.51 330.83 322.97 331.32C321.34 331.84 319.57 332.89 318 334.28C317.87 334.4 317.69 334.44 317.52 334.39C317.35 334.34 317.22 334.21 317.16 334.04C316.61 332.23 315.41 330.87 313.97 330.4C313.15 330.14 312.19 330.23 311.4 330.64C310.75 330.98 310.29 331.5 310.1 332.11C310.05 332.28 309.92 332.4 309.75 332.45C309.58 332.5 309.4 332.46 309.27 332.35C308.88 332.02 308.41 331.86 307.87 331.86Z" fill="#C2C2C2"/>
<path d="M301.14 333.28C300.69 334.15 300.5 335.1 300.6 336.08C300.65 336.57 301.43 336.58 301.38 336.08C301.29 335.23 301.42 334.43 301.81 333.67C302.04 333.23 301.37 332.84 301.14 333.28Z" fill="#C2C2C2"/>
<path d="M298.87 333.91C298.63 334.79 298.61 335.67 298.8 336.56C298.91 337.05 299.66 336.84 299.55 336.35C299.38 335.6 299.41 334.86 299.62 334.11C299.76 333.63 299.01 333.43 298.87 333.91Z" fill="#C2C2C2"/>
<path d="M303.24 332.33C303.74 332.33 303.74 331.55 303.24 331.55C302.74 331.55 302.74 332.33 303.24 332.33Z" fill="#C2C2C2"/>
<path d="M305.44 336.09C305.44 336.32 305.44 336.55 305.44 336.78C305.44 337.28 306.22 337.28 306.22 336.78C306.22 336.55 306.22 336.32 306.22 336.09C306.22 335.59 305.44 335.59 305.44 336.09Z" fill="#C2C2C2"/>
<path d="M318.58 337.3C318.58 337.42 318.58 337.53 318.58 337.65C318.58 338.15 319.36 338.15 319.36 337.65C319.36 337.53 319.36 337.42 319.36 337.3C319.35 336.8 318.58 336.8 318.58 337.3Z" fill="#C2C2C2"/>
<path d="M317.14 336.36C317.2 336.42 317.26 336.48 317.31 336.53C317.66 336.88 318.21 336.33 317.86 335.98C317.8 335.92 317.74 335.86 317.69 335.81C317.33 335.46 316.78 336.01 317.14 336.36Z" fill="#C2C2C2"/>
<path d="M96.12 319.22H69.79C69.22 319.22 68.75 318.76 68.75 318.18C68.75 317.61 69.21 317.14 69.79 317.14H96.12C96.69 317.14 97.16 317.6 97.16 318.18C97.15 318.76 96.69 319.22 96.12 319.22Z" fill="#575757"/>
<path d="M327.96 227.91H327.21C327.21 227.29 326.7 226.78 326.08 226.78C325.46 226.78 324.95 227.29 324.95 227.91H324.2C324.2 226.87 325.04 226.03 326.08 226.03C327.12 226.03 327.96 226.87 327.96 227.91Z" fill="white"/>
<path d="M330.65 184.12H329.9C329.9 183.5 329.39 182.99 328.77 182.99C328.15 182.99 327.64 183.5 327.64 184.12H326.89C326.89 183.08 327.73 182.24 328.77 182.24C329.81 182.24 330.65 183.08 330.65 184.12Z" fill="white"/>
<path d="M237.04 336.27H201.25L201.86 334.83C204.21 329.26 204.45 324.5 204.09 319.05L204.02 317.95L234.19 317.86L234.2 318.89C234.23 322.41 235.18 330.4 236.61 334.92L237.04 336.27ZM204.35 334.2H234.25C233.1 329.85 232.32 323.56 232.16 319.94L206.23 320.02C206.48 324.85 206.18 329.24 204.35 334.2Z" fill="#575757"/>
<path d="M190.97 319.92C163.8 319.92 141.79 319.77 140.83 319.43C138.5 318.6 135.47 315.38 135.42 313.09C135.33 308.14 135.12 301.4 134.87 293.59C134.13 270.05 133.11 237.82 134.43 219.98C134.67 216.73 137.36 214.22 140.56 214.22C140.59 214.22 140.63 214.22 140.66 214.22L297.29 214.45C300.6 214.51 303.26 217.18 303.34 220.54C303.46 225.75 303.63 231.08 303.8 236.47C304.52 259.07 305.26 282.44 302.76 304.53C302.66 305.4 302.62 306.36 302.57 307.36C302.36 312 302.1 317.77 296.12 318.95C293.21 319.53 235.24 319.92 190.97 319.92ZM140.58 215.89C138.23 215.89 136.27 217.73 136.09 220.11C134.78 237.86 135.79 270.05 136.53 293.55C136.78 301.36 136.99 308.11 137.08 313.07C137.11 314.51 139.52 317.2 141.38 317.87C144.71 318.55 291.97 318.05 295.8 317.33C300.49 316.4 300.7 311.78 300.91 307.3C300.96 306.26 301 305.26 301.11 304.36C303.6 282.38 302.86 259.08 302.14 236.54C301.97 231.14 301.8 225.81 301.68 220.59C301.62 218.13 299.69 216.18 297.28 216.13L140.66 215.9C140.63 215.89 140.61 215.89 140.58 215.89Z" fill="#575757"/>
<path fill-rule="evenodd" clip-rule="evenodd" d="M292.92 219.85L145.34 219.66C142.69 219.62 140.46 221.44 140.26 223.82C138.61 243.57 140.86 284.78 141.19 301.37C141.22 302.99 143.86 305.41 145.76 306.01C148 306.72 288.24 306.18 291.67 305.58C297.83 304.51 296.78 298.2 297.29 294.17C300.21 271.36 298.42 246.56 297.84 224.25C297.78 221.82 295.61 219.89 292.92 219.85Z" fill="#36AAB1"/>
<path d="M249.85 341.95H188.45C186.01 341.95 184.74 340.03 184.74 338.14C184.74 336.24 186.01 334.32 188.45 334.32H249.85C252.29 334.32 253.56 336.24 253.56 338.13C253.56 340.03 252.28 341.95 249.85 341.95ZM188.44 335.99C186.83 335.99 186.4 337.34 186.4 338.14C186.4 338.94 186.83 340.28 188.44 340.28H249.84C251.45 340.28 251.88 338.93 251.88 338.13C251.88 337.33 251.45 335.99 249.84 335.99H188.44Z" fill="#575757"/>
<path d="M145.68 314.11C148.44 314.11 148.44 309.82 145.68 309.82C142.92 309.83 142.92 314.11 145.68 314.11Z" fill="#575757"/>
<path d="M154.32 314.11C157.08 314.11 157.08 309.82 154.32 309.82C151.56 309.83 151.56 314.11 154.32 314.11Z" fill="#575757"/>
<path d="M162.96 314.11C165.72 314.11 165.72 309.82 162.96 309.82C160.2 309.83 160.2 314.11 162.96 314.11Z" fill="#575757"/>
<path d="M219.14 218.57C220.43 218.57 220.44 216.56 219.14 216.56C217.85 216.56 217.85 218.57 219.14 218.57Z" fill="#575757"/>
<path d="M392.32 337.88H371.16L379.3 311.15H384.18L392.32 337.88Z" fill="#36AAB1"/>
<path d="M394.06 337.88H369.41V340.93H394.06V337.88Z" fill="#36AAB1"/>
<path d="M373.19 331.2L371.16 337.88H392.32L390.28 331.2H373.19Z" fill="#575757"/>
<path d="M375.23 324.51H388.25L386.21 317.83H377.26L375.23 324.51Z" fill="#575757"/>
<path d="M400.97 340.76H405.66V322.58H429.76V340.76H434.45V322.58H439.42V308.06H435.45V306.72H428.61V308.06H407.26V306.72H400.42V308.06H396.07V322.58H400.96V340.76H400.97ZM437.91 309.58V309.64L435.02 321.06H429.86L432.77 309.58H437.91ZM424.45 321.07H419.29L422.2 309.59H427.36L424.45 321.07ZM413.87 321.07H408.71L411.62 309.59H416.78L413.87 321.07ZM401.04 309.58H406.2L403.29 321.06H398.13L401.04 309.58Z" fill="#36AAB1"/>
<path d="M170.05 163.05L171.46 161.64C171.75 161.36 171.75 160.89 171.46 160.61L170.23 159.39C169.95 159.1 169.87 158.59 170.07 158.23L171.07 155.81C171.18 155.42 171.61 155.11 172.01 155.11H173.74C174.14 155.11 174.47 154.78 174.47 154.38V152.39C174.47 151.99 174.14 151.66 173.74 151.66H172C171.6 151.66 171.18 151.34 171.06 150.96L170.06 148.54C169.87 148.19 169.94 147.67 170.22 147.38L171.45 146.16C171.74 145.87 171.74 145.41 171.45 145.13L170.04 143.72C169.75 143.44 169.29 143.44 169.01 143.72L167.78 144.95C167.49 145.23 166.98 145.31 166.63 145.12L164.2 144.12C163.81 144.01 163.5 143.59 163.5 143.18V141.45C163.5 141.05 163.17 140.72 162.77 140.72H160.78C160.38 140.72 160.05 141.05 160.05 141.45V143.18C160.05 143.58 159.74 144 159.35 144.12L156.92 145.12C156.57 145.31 156.05 145.24 155.77 144.95L154.54 143.73C154.26 143.44 153.79 143.44 153.51 143.73L152.1 145.14C151.81 145.42 151.81 145.88 152.1 146.17L153.32 147.39C153.6 147.68 153.68 148.2 153.49 148.55L152.49 150.97C152.38 151.36 151.95 151.67 151.55 151.67H149.81C149.41 151.67 149.08 151.99 149.08 152.4V154.39C149.08 154.79 149.41 155.12 149.81 155.12H151.55C151.95 155.12 152.37 155.44 152.49 155.82L153.49 158.24C153.68 158.59 153.61 159.11 153.32 159.4L152.1 160.62C151.81 160.91 151.81 161.37 152.1 161.65L153.51 163.06C153.79 163.35 154.25 163.35 154.54 163.06L155.77 161.84C156.05 161.56 156.57 161.48 156.93 161.68L159.35 162.68C159.74 162.79 160.05 163.21 160.05 163.62V165.36C160.05 165.76 160.38 166.09 160.78 166.09H162.77C163.17 166.09 163.5 165.76 163.5 165.36V163.62C163.5 163.22 163.81 162.8 164.2 162.68L166.63 161.68C166.98 161.49 167.5 161.56 167.78 161.84L169.01 163.06C169.3 163.34 169.76 163.34 170.05 163.05ZM161.78 159.2C158.57 159.2 155.96 156.59 155.96 153.38C155.96 150.17 158.57 147.56 161.78 147.56C164.99 147.56 167.6 150.16 167.6 153.38C167.6 156.59 165 159.2 161.78 159.2Z" fill="#36AAB1"/>
<path d="M183.5 168.55L183.14 167.37C183.07 167.13 182.81 167 182.58 167.07L181.55 167.38C181.31 167.45 181 167.34 180.87 167.13L179.84 165.88C179.67 165.71 179.62 165.38 179.73 165.16L180.24 164.21C180.36 163.99 180.27 163.71 180.06 163.6L178.97 163.02C178.75 162.9 178.48 162.99 178.36 163.21L177.85 164.16C177.73 164.38 177.44 164.52 177.19 164.47L175.57 164.31C175.32 164.31 175.06 164.12 174.99 163.88L174.68 162.85C174.61 162.61 174.36 162.48 174.12 162.55L172.94 162.9C172.7 162.97 172.57 163.23 172.64 163.47L172.95 164.5C173.02 164.74 172.91 165.04 172.7 165.18L171.45 166.21C171.28 166.39 170.95 166.43 170.73 166.32L169.78 165.81C169.56 165.69 169.29 165.77 169.17 166L168.58 167.08C168.47 167.3 168.55 167.58 168.76 167.69L169.71 168.2C169.93 168.32 170.07 168.61 170.02 168.85L169.86 170.47C169.86 170.72 169.67 170.98 169.43 171.05L168.4 171.36C168.16 171.43 168.02 171.69 168.1 171.92L168.46 173.1C168.53 173.34 168.78 173.47 169.02 173.4L170.05 173.09C170.29 173.02 170.59 173.13 170.73 173.34L171.76 174.6C171.94 174.77 171.98 175.1 171.87 175.32L171.36 176.27C171.24 176.49 171.33 176.76 171.55 176.88L172.64 177.46C172.86 177.58 173.13 177.49 173.25 177.28L173.76 176.33C173.87 176.11 174.17 175.97 174.41 176.02L176.02 176.18C176.27 176.18 176.53 176.37 176.61 176.61L176.92 177.64C176.99 177.88 177.25 178.02 177.48 177.94L178.66 177.58C178.9 177.51 179.03 177.25 178.97 177.02L178.66 175.99C178.59 175.75 178.7 175.44 178.91 175.31L180.17 174.28C180.34 174.1 180.67 174.05 180.89 174.17L181.84 174.68C182.06 174.8 182.34 174.72 182.45 174.5L183.03 173.41C183.15 173.19 183.06 172.92 182.84 172.8L181.89 172.29C181.67 172.17 181.53 171.88 181.58 171.64L181.74 170.02C181.74 169.77 181.93 169.51 182.17 169.44L183.2 169.13C183.44 169.04 183.57 168.79 183.5 168.55ZM178.98 171.93C178.04 173.69 175.85 174.35 174.1 173.41C172.34 172.47 171.68 170.28 172.62 168.53C173.56 166.77 175.75 166.11 177.5 167.05C179.26 168 179.92 170.18 178.98 171.93Z" fill="#36AAB1"/>
<path d="M242.39 191.33H209.79C209.22 191.33 208.75 190.87 208.75 190.29C208.75 189.72 209.21 189.25 209.79 189.25H242.39C242.96 189.25 243.43 189.71 243.43 190.29C243.43 190.87 242.96 191.33 242.39 191.33Z" fill="#575757"/>
<path d="M176.02 206.14H123.36C122.79 206.14 122.32 205.68 122.32 205.1C122.32 204.53 122.78 204.06 123.36 204.06H176.02C176.59 204.06 177.06 204.52 177.06 205.1C177.06 205.67 176.59 206.14 176.02 206.14Z" fill="#575757"/>
<path d="M428.5 234.18H375.84C375.27 234.18 374.8 233.72 374.8 233.14C374.8 232.57 375.26 232.1 375.84 232.1H428.5C429.07 232.1 429.54 232.56 429.54 233.14C429.54 233.71 429.07 234.18 428.5 234.18Z" fill="#575757"/>
<path d="M449.2 342.99H50.8C50.23 342.99 49.76 342.53 49.76 341.95C49.76 341.38 50.22 340.91 50.8 340.91H449.2C449.77 340.91 450.24 341.37 450.24 341.95C450.24 342.52 449.77 342.99 449.2 342.99Z" fill="#575757"/>
<path d="M303.06 178.3C300.83 178.3 298.73 179.17 297.15 180.75C294.46 183.44 293.92 187.62 295.85 190.9L295.99 191.13L287.52 199.6C287.51 199.61 287.11 200 287.1 200.56C287.1 200.99 287.31 201.42 287.74 201.85C288.2 202.3 288.67 202.53 289.16 202.53C289.74 202.53 290.15 202.19 290.16 202.19L298.61 193.74L298.84 193.88C300.12 194.63 301.58 195.03 303.07 195.03C305.3 195.03 307.4 194.16 308.98 192.58C312.24 189.32 312.24 184.01 308.98 180.75C307.4 179.17 305.3 178.3 303.06 178.3ZM303.06 192.55C299.82 192.55 297.18 189.91 297.18 186.67C297.18 183.43 299.82 180.79 303.06 180.79C306.3 180.79 308.94 183.43 308.94 186.67C308.94 189.91 306.31 192.55 303.06 192.55Z" fill="#36AAB1"/>
<path d="M299.96 187.89H306.02V186.34H299.96V187.89Z" fill="#36AAB1"/>
<path d="M147.75 341.07C147.18 341.07 146.71 340.61 146.71 340.03V260.16C146.71 259.59 147.17 259.12 147.75 259.12C148.32 259.12 148.79 259.58 148.79 260.16V340.03C148.79 340.6 148.32 341.07 147.75 341.07Z" fill="#575757"/>
<path d="M166.31 341.07C165.74 341.07 165.27 340.61 165.27 340.03V260.16C165.27 259.59 165.73 259.12 166.31 259.12C166.88 259.12 167.35 259.58 167.35 260.16V340.03C167.35 340.6 166.88 341.07 166.31 341.07Z" fill="#575757"/>
<path d="M166.31 266.65H147.75C147.18 266.65 146.71 266.19 146.71 265.61C146.71 265.03 147.17 264.57 147.75 264.57H166.31C166.88 264.57 167.35 265.03 167.35 265.61C167.35 266.19 166.88 266.65 166.31 266.65Z" fill="#575757"/>
<path d="M166.31 275.78H147.75C147.18 275.78 146.71 275.32 146.71 274.74C146.71 274.17 147.17 273.7 147.75 273.7H166.31C166.88 273.7 167.35 274.16 167.35 274.74C167.35 275.31 166.88 275.78 166.31 275.78Z" fill="#575757"/>
<path d="M166.31 284.9H147.75C147.18 284.9 146.71 284.44 146.71 283.86C146.71 283.29 147.17 282.82 147.75 282.82H166.31C166.88 282.82 167.35 283.28 167.35 283.86C167.35 284.44 166.88 284.9 166.31 284.9Z" fill="#575757"/>
<path d="M166.31 294.03H147.75C147.18 294.03 146.71 293.57 146.71 292.99C146.71 292.42 147.17 291.95 147.75 291.95H166.31C166.88 291.95 167.35 292.41 167.35 292.99C167.35 293.56 166.88 294.03 166.31 294.03Z" fill="#575757"/>
<path d="M166.31 303.15H147.75C147.18 303.15 146.71 302.69 146.71 302.11C146.71 301.54 147.17 301.07 147.75 301.07H166.31C166.88 301.07 167.35 301.53 167.35 302.11C167.35 302.69 166.88 303.15 166.31 303.15Z" fill="#575757"/>
<path d="M166.31 312.28H147.75C147.18 312.28 146.71 311.82 146.71 311.24C146.71 310.67 147.17 310.2 147.75 310.2H166.31C166.88 310.2 167.35 310.66 167.35 311.24C167.35 311.81 166.88 312.28 166.31 312.28Z" fill="#575757"/>
<path d="M166.31 321.4H147.75C147.18 321.4 146.71 320.94 146.71 320.36C146.71 319.79 147.17 319.32 147.75 319.32H166.31C166.88 319.32 167.35 319.78 167.35 320.36C167.35 320.94 166.88 321.4 166.31 321.4Z" fill="#575757"/>
<path d="M166.31 330.53H147.75C147.18 330.53 146.71 330.07 146.71 329.49C146.71 328.92 147.17 328.45 147.75 328.45H166.31C166.88 328.45 167.35 328.91 167.35 329.49C167.35 330.06 166.88 330.53 166.31 330.53Z" fill="#575757"/>
<path d="M122.47 264.03C121.9 264.03 121.43 263.57 121.43 262.99V258.95C121.43 258.38 121.89 257.91 122.47 257.91C123.04 257.91 123.51 258.37 123.51 258.95V262.99C123.51 263.57 123.04 264.03 122.47 264.03Z" fill="#575757"/>
<path d="M124.49 262.01H120.45C119.88 262.01 119.41 261.55 119.41 260.97C119.41 260.39 119.87 259.93 120.45 259.93H124.49C125.06 259.93 125.53 260.39 125.53 260.97C125.53 261.55 125.06 262.01 124.49 262.01Z" fill="#575757"/>
<path d="M215.74 119.6C215.17 119.6 214.7 119.14 214.7 118.56V114.52C214.7 113.95 215.16 113.48 215.74 113.48C216.31 113.48 216.78 113.94 216.78 114.52V118.56C216.77 119.13 216.31 119.6 215.74 119.6Z" fill="#575757"/>
<path d="M217.76 117.58H213.72C213.15 117.58 212.68 117.12 212.68 116.54C212.68 115.96 213.14 115.5 213.72 115.5H217.76C218.33 115.5 218.8 115.96 218.8 116.54C218.8 117.12 218.33 117.58 217.76 117.58Z" fill="#575757"/>
<path d="M248.43 328.66C248.34 328.66 248.24 328.65 248.14 328.62L244.26 327.51C243.71 327.35 243.39 326.78 243.55 326.23C243.71 325.68 244.28 325.37 244.83 325.52L248.71 326.63C249.26 326.79 249.58 327.36 249.42 327.91C249.3 328.36 248.88 328.66 248.43 328.66Z" fill="#575757"/>
<path d="M245.93 330.05C245.84 330.05 245.74 330.04 245.64 330.01C245.09 329.85 244.77 329.28 244.93 328.73L246.04 324.85C246.2 324.3 246.77 323.99 247.32 324.14C247.87 324.3 248.19 324.87 248.03 325.42L246.92 329.3C246.8 329.75 246.38 330.05 245.93 330.05Z" fill="#575757"/>
<path d="M228.03 206.69C227.94 206.69 227.84 206.68 227.74 206.65L223.86 205.54C223.31 205.38 222.99 204.81 223.15 204.26C223.31 203.71 223.88 203.39 224.43 203.55L228.31 204.66C228.86 204.82 229.18 205.39 229.02 205.94C228.9 206.4 228.48 206.69 228.03 206.69Z" fill="#575757"/>
<path d="M225.54 208.08C225.45 208.08 225.35 208.07 225.25 208.04C224.7 207.88 224.38 207.31 224.54 206.76L225.65 202.88C225.81 202.33 226.38 202.01 226.93 202.17C227.48 202.33 227.8 202.9 227.64 203.45L226.53 207.33C226.4 207.78 225.99 208.08 225.54 208.08Z" fill="#575757"/>
<path d="M235.494 178.661C241.121 173.034 241.121 163.91 235.494 158.282C229.867 152.655 220.743 152.655 215.115 158.282C209.488 163.91 209.488 173.034 215.115 178.661C220.743 184.288 229.867 184.288 235.494 178.661Z" fill="#36AAB1"/>
<path d="M225.31 179.26C231.269 179.26 236.1 174.429 236.1 168.47C236.1 162.511 231.269 157.68 225.31 157.68C219.351 157.68 214.52 162.511 214.52 168.47C214.52 174.429 219.351 179.26 225.31 179.26Z" fill="white"/>
<path d="M225.31 179.68C219.13 179.68 214.1 174.65 214.1 168.47C214.1 162.29 219.13 157.26 225.31 157.26C231.49 157.26 236.52 162.29 236.52 168.47C236.52 174.65 231.49 179.68 225.31 179.68ZM225.31 158.1C219.59 158.1 214.94 162.75 214.94 168.48C214.94 174.21 219.59 178.85 225.31 178.85C231.03 178.85 235.68 174.2 235.68 168.48C235.68 162.76 231.03 158.1 225.31 158.1Z" fill="#575757"/>
<path d="M225.31 168.89C225.08 168.89 224.89 168.7 224.89 168.47V162.98C224.89 162.75 225.08 162.56 225.31 162.56C225.54 162.56 225.73 162.75 225.73 162.98V168.47C225.73 168.7 225.54 168.89 225.31 168.89Z" fill="#575757"/>
<path d="M231.75 168.89H225.31C225.08 168.89 224.89 168.7 224.89 168.47C224.89 168.24 225.08 168.05 225.31 168.05H231.75C231.98 168.05 232.17 168.24 232.17 168.47C232.17 168.7 231.98 168.89 231.75 168.89Z" fill="#575757"/>
<path d="M225.74 158.9C225.74 159.14 225.55 159.33 225.31 159.33C225.07 159.33 224.88 159.14 224.88 158.9C224.88 158.66 225.07 158.47 225.31 158.47C225.55 158.47 225.74 158.66 225.74 158.9Z" fill="#575757"/>
<path d="M232.08 162.13C232.317 162.13 232.51 161.937 232.51 161.7C232.51 161.463 232.317 161.27 232.08 161.27C231.842 161.27 231.65 161.463 231.65 161.7C231.65 161.937 231.842 162.13 232.08 162.13Z" fill="#575757"/>
<path d="M234.88 168.9C234.64 168.9 234.45 168.71 234.45 168.47C234.45 168.23 234.64 168.04 234.88 168.04C235.12 168.04 235.31 168.23 235.31 168.47C235.31 168.71 235.12 168.9 234.88 168.9Z" fill="#575757"/>
<path d="M232.08 175.67C232.317 175.67 232.51 175.478 232.51 175.24C232.51 175.003 232.317 174.81 232.08 174.81C231.842 174.81 231.65 175.003 231.65 175.24C231.65 175.478 231.842 175.67 232.08 175.67Z" fill="#575757"/>
<path d="M224.88 178.05C224.88 177.81 225.07 177.62 225.31 177.62C225.55 177.62 225.74 177.81 225.74 178.05C225.74 178.29 225.55 178.48 225.31 178.48C225.07 178.48 224.88 178.28 224.88 178.05Z" fill="#575757"/>
<path d="M218.24 174.94C218.41 174.77 218.68 174.77 218.84 174.94C219.01 175.11 219.01 175.38 218.84 175.54C218.67 175.71 218.4 175.71 218.24 175.54C218.07 175.38 218.07 175.11 218.24 174.94Z" fill="#575757"/>
<path d="M215.74 168.9C215.977 168.9 216.17 168.708 216.17 168.47C216.17 168.233 215.977 168.04 215.74 168.04C215.502 168.04 215.31 168.233 215.31 168.47C215.31 168.708 215.502 168.9 215.74 168.9Z" fill="#575757"/>
<path d="M218.84 161.4C219.01 161.57 219.01 161.84 218.84 162C218.67 162.17 218.4 162.17 218.24 162C218.08 161.83 218.07 161.56 218.24 161.4C218.41 161.24 218.68 161.24 218.84 161.4Z" fill="#575757"/>
<path d="M246.39 162.97H240.34C240.11 162.97 239.92 162.78 239.92 162.55C239.92 162.32 240.11 162.13 240.34 162.13H246.39C246.62 162.13 246.81 162.32 246.81 162.55C246.8 162.79 246.62 162.97 246.39 162.97Z" fill="#575757"/>
<path d="M246.39 174.81H240.34C240.11 174.81 239.92 174.62 239.92 174.39C239.92 174.16 240.11 173.97 240.34 173.97H246.39C246.62 173.97 246.81 174.16 246.81 174.39C246.8 174.62 246.62 174.81 246.39 174.81Z" fill="#575757"/>
<path d="M253.91 168.89H242.61C242.38 168.89 242.19 168.7 242.19 168.47C242.19 168.24 242.38 168.05 242.61 168.05H253.91C254.14 168.05 254.33 168.24 254.33 168.47C254.32 168.71 254.14 168.89 253.91 168.89Z" fill="#575757"/>
<path d="M273.62 324.51H266.94V331.19H273.62V324.51Z" fill="white"/>
<path d="M274.14 331.72H266.42V324H274.14V331.72ZM267.46 330.68H273.11V325.03H267.46V330.68Z" fill="#575757"/>
<path d="M282.08 325.98H276.03C275.8 325.98 275.61 325.79 275.61 325.56C275.61 325.33 275.8 325.14 276.03 325.14H282.08C282.31 325.14 282.5 325.33 282.5 325.56C282.5 325.79 282.31 325.98 282.08 325.98Z" fill="#575757"/>
<path d="M284.35 330.56H276.17C275.86 330.56 275.61 330.37 275.61 330.14C275.61 329.91 275.86 329.72 276.17 329.72H284.35C284.66 329.72 284.91 329.91 284.91 330.14C284.92 330.38 284.66 330.56 284.35 330.56Z" fill="#575757"/>
<path d="M287.33 328.14H276.03C275.8 328.14 275.61 327.95 275.61 327.72C275.61 327.49 275.8 327.3 276.03 327.3H287.33C287.56 327.3 287.75 327.49 287.75 327.72C287.75 327.96 287.56 328.14 287.33 328.14Z" fill="#575757"/>
<path d="M120.221 233.14H126.901V226.46H120.221V233.14Z" fill="white"/>
<path d="M127.42 233.66H119.7V225.94H127.42V233.66ZM120.73 232.62H126.37V226.98H120.73V232.62Z" fill="#575757"/>
<path d="M111.76 227.93H117.81C118.04 227.93 118.23 227.74 118.23 227.51C118.23 227.28 118.04 227.09 117.81 227.09H111.76C111.53 227.09 111.34 227.28 111.34 227.51C111.34 227.74 111.53 227.93 111.76 227.93Z" fill="#575757"/>
<path d="M109.48 232.51H117.66C117.97 232.51 118.22 232.32 118.22 232.09C118.22 231.86 117.97 231.67 117.66 231.67H109.48C109.17 231.67 108.92 231.86 108.92 232.09C108.92 232.32 109.17 232.51 109.48 232.51Z" fill="#575757"/>
<path d="M106.51 230.09H117.81C118.04 230.09 118.23 229.9 118.23 229.67C118.23 229.44 118.04 229.25 117.81 229.25H106.51C106.28 229.25 106.09 229.44 106.09 229.67C106.09 229.9 106.28 230.09 106.51 230.09Z" fill="#575757"/>
<path d="M326.08 251.57H324.01V340.76H326.08V251.57Z" fill="#3F5B91"/>
<path d="M325.27 262.36H324.81C321.43 262.36 318.66 259.59 318.66 256.21V247.97C318.66 244.59 321.43 241.82 324.81 241.82H325.27C328.65 241.82 331.42 244.59 331.42 247.97V256.21C331.42 259.59 328.66 262.36 325.27 262.36Z" fill="#36AAB1"/>
<path d="M333.4 256.39C334.13 256.51 334.86 256.62 335.59 256.74C336.08 256.82 336.29 256.07 335.8 255.99C335.07 255.87 334.34 255.76 333.61 255.64C333.11 255.56 332.9 256.31 333.4 256.39Z" fill="#3F5B91"/>
<path d="M333.32 251.64C333.89 251.54 334.46 251.53 335.04 251.58C335.54 251.63 335.53 250.85 335.04 250.8C334.39 250.74 333.76 250.77 333.11 250.89C332.62 250.98 332.83 251.73 333.32 251.64Z" fill="#3F5B91"/>
<path d="M333.08 247.31C333.64 247.09 334.2 246.87 334.76 246.64C335.22 246.46 335.02 245.71 334.55 245.89C333.99 246.11 333.43 246.33 332.87 246.56C332.42 246.74 332.62 247.49 333.08 247.31Z" fill="#3F5B91"/>
<path d="M314.01 257.12C314.58 257.04 315.14 256.91 315.69 256.72C316.16 256.56 315.96 255.81 315.48 255.97C314.93 256.16 314.38 256.29 313.8 256.37C313.31 256.43 313.52 257.18 314.01 257.12Z" fill="#3F5B91"/>
<path d="M313 251.59C313.72 251.61 314.42 251.72 315.11 251.91C315.59 252.05 315.8 251.3 315.32 251.16C314.56 250.95 313.79 250.83 313 250.81C312.5 250.8 312.5 251.57 313 251.59Z" fill="#3F5B91"/>
<path d="M313.68 245.19C314.24 245.37 314.8 245.55 315.36 245.73C315.84 245.88 316.04 245.13 315.57 244.98C315.01 244.8 314.45 244.62 313.89 244.44C313.41 244.29 313.21 245.04 313.68 245.19Z" fill="#3F5B91"/>
<path d="M320.2 341.97L321.59 330.05H328.33L329.88 341.8L320.2 341.97Z" fill="#575757"/>
<path d="M129.87 284.89C129.56 282.99 128.22 278.1 125.27 279.65C120.49 282.16 126.26 291.67 120.5 293.35C120.19 289.56 119.38 286.95 117.66 287.1C114.13 287.42 115.07 295.63 115.01 297.48C114.95 299.32 114.86 301.21 114.78 303.11C110.62 303.86 111.45 293.02 108.92 291.52C104.99 289.19 104.16 294.38 104.26 296.78C104.44 300.86 105.54 305.75 109.38 307.91C110.64 308.63 112.87 309.43 114.61 309.29C114.59 312.55 114.73 315.8 115.27 318.9C115.28 318.93 115.33 318.93 115.34 318.9V318.89L117.67 319.02C117.67 319.03 117.67 319.05 117.67 319.06C117.65 320.08 119.25 320.09 119.26 319.06C119.29 317.09 120.5 307.42 120.64 299.22C122.5 299.5 124.84 298.63 126.17 297.65C130.13 294.75 130.6 289.4 129.87 284.89Z" fill="#C9C9C9"/>
<path d="M118.44 320.28C118.2 320.28 117.97 320.22 117.77 320.1C117.52 319.95 117.35 319.72 117.27 319.45L115.55 319.36L114.93 319.38L114.83 318.99C114.37 316.36 114.16 313.42 114.16 309.77C112.25 309.77 110.15 308.88 109.16 308.32C105.07 306.01 104 300.79 103.82 296.82C103.75 295.22 104.08 291.92 105.87 290.85C106.78 290.31 107.88 290.41 109.14 291.16C110.36 291.88 110.83 294.11 111.37 296.69C112.1 300.18 112.76 302.69 114.36 302.73L114.4 301.87C114.47 300.39 114.53 298.92 114.58 297.48C114.59 297.2 114.57 296.76 114.55 296.23C114.44 293 114.23 286.98 117.63 286.67C118.15 286.62 118.63 286.77 119.05 287.12C120 287.92 120.6 289.76 120.9 292.74C123.05 291.78 122.93 289.3 122.81 286.45C122.68 283.57 122.55 280.59 125.08 279.26C125.9 278.83 126.69 278.79 127.41 279.16C129.52 280.22 130.25 284.35 130.32 284.82C130.88 288.28 131.12 294.59 126.44 298.02C125.14 298.98 122.94 299.82 121.08 299.72C120.96 305.07 120.41 310.97 120.04 314.91C119.86 316.88 119.71 318.44 119.7 319.08C119.69 319.53 119.47 319.91 119.09 320.12C118.88 320.23 118.66 320.28 118.44 320.28ZM115.64 318.48L118.11 318.61L118.1 319.04C118.09 319.25 118.17 319.31 118.22 319.34C118.34 319.41 118.52 319.41 118.65 319.34C118.75 319.28 118.8 319.19 118.8 319.06C118.81 318.39 118.95 316.89 119.14 314.82C119.52 310.78 120.09 304.67 120.18 299.22L120.19 298.72L120.69 298.79C122.41 299.05 124.65 298.21 125.9 297.3C130.2 294.15 129.96 288.21 129.43 284.96C129.2 283.53 128.39 280.65 127 279.95C126.54 279.72 126.04 279.75 125.47 280.04C123.43 281.11 123.55 283.68 123.67 286.41C123.8 289.41 123.95 292.8 120.61 293.78L120.09 293.93L120.05 293.39C119.74 289.61 119.02 288.26 118.46 287.8C118.23 287.6 117.98 287.52 117.69 287.55C115.13 287.78 115.32 293.47 115.42 296.2C115.44 296.76 115.45 297.21 115.45 297.51C115.4 298.95 115.34 300.42 115.27 301.91L115.2 303.5L114.85 303.56C112.01 304.07 111.21 300.24 110.5 296.86C110.04 294.69 109.57 292.44 108.69 291.91C107.73 291.34 106.93 291.23 106.32 291.6C105 292.39 104.63 295.19 104.7 296.77C104.87 300.52 105.85 305.43 109.59 307.54C110.88 308.27 112.99 308.99 114.56 308.86L115.04 308.82V309.3C115.02 312.95 115.21 315.88 115.64 318.48Z" fill="#C2C2C2"/>
<path d="M125.29 340.95H108.41C107.51 340.95 106.79 340.36 106.62 339.49L102.79 319.81L104.38 319.5L108.21 339.18C108.24 339.33 108.37 339.33 108.41 339.33H125.29C125.33 339.33 125.46 339.33 125.49 339.18L129.29 319.5L130.88 319.81L127.08 339.49C126.92 340.36 126.2 340.95 125.29 340.95Z" fill="#575757"/>
<path d="M102.96 313.48H130.98C131.46 313.48 131.85 314.01 131.85 314.65V318.91C131.85 319.56 131.46 320.08 130.98 320.08H102.96C102.48 320.08 102.09 319.55 102.09 318.91V314.65C102.09 314 102.48 313.48 102.96 313.48Z" fill="#36AAB1"/>
<path d="M130.98 320.53H102.96C102.24 320.53 101.65 319.8 101.65 318.91V314.65C101.65 313.76 102.24 313.03 102.96 313.03H130.98C131.7 313.03 132.29 313.76 132.29 314.65V318.91C132.29 319.8 131.71 320.53 130.98 320.53ZM102.96 313.92C102.76 313.92 102.53 314.23 102.53 314.65V318.91C102.53 319.33 102.76 319.64 102.96 319.64H130.98C131.18 319.64 131.41 319.33 131.41 318.91V314.65C131.41 314.23 131.18 313.92 130.98 313.92H102.96Z" fill="#575757"/>
<path d="M130.98 320.45H102.96C102.28 320.45 101.72 319.76 101.72 318.91V314.65C101.72 313.8 102.28 313.11 102.96 313.11H130.98C131.66 313.11 132.22 313.8 132.22 314.65V318.91C132.22 319.76 131.67 320.45 130.98 320.45ZM102.96 313.85C102.72 313.85 102.46 314.18 102.46 314.66V318.92C102.46 319.39 102.72 319.73 102.96 319.73H130.98C131.22 319.73 131.48 319.4 131.48 318.92V314.66C131.48 314.18 131.22 313.85 130.98 313.85H102.96Z" fill="#36AAB1"/>
<path d="M130.98 320.9H102.96C102.03 320.9 101.28 320.01 101.28 318.92V314.66C101.28 313.57 102.03 312.67 102.96 312.67H130.98C131.91 312.67 132.66 313.56 132.66 314.66V318.92C132.66 320.01 131.91 320.9 130.98 320.9ZM103.01 314.29C102.97 314.33 102.9 314.46 102.9 314.65V318.91C102.9 319.14 102.99 319.27 103.02 319.29L130.98 319.28C130.95 319.27 131.04 319.14 131.04 318.92V314.66C131.04 314.43 130.95 314.3 130.92 314.28L103.01 314.29Z" fill="#575757"/>
<path d="M106.02 296.75C106.48 296.81 106.94 296.87 107.4 296.93C107.9 296.99 107.89 296.21 107.4 296.15C106.94 296.09 106.48 296.03 106.02 295.97C105.52 295.91 105.53 296.69 106.02 296.75Z" fill="#C2C2C2"/>
<path d="M108.05 290.63C108.05 290.86 108.05 291.09 108.05 291.32C108.05 291.82 108.83 291.82 108.83 291.32C108.83 291.09 108.83 290.86 108.83 290.63C108.83 290.13 108.05 290.13 108.05 290.63Z" fill="#C2C2C2"/>
<path d="M110.74 297.76C111.08 297.57 111.41 297.38 111.75 297.2C112.19 296.96 111.8 296.28 111.36 296.53C111.02 296.72 110.69 296.91 110.35 297.09C109.91 297.34 110.3 298.01 110.74 297.76Z" fill="#C2C2C2"/>
<path d="M106.75 306.71C107.16 306.43 107.56 306.14 107.97 305.86C108.38 305.58 107.99 304.9 107.58 305.19C107.17 305.47 106.77 305.76 106.36 306.04C105.95 306.33 106.33 307 106.75 306.71Z" fill="#C2C2C2"/>
<path d="M103.83 300.02C104.12 300.13 104.41 300.25 104.7 300.36C105.17 300.54 105.37 299.79 104.91 299.61C104.62 299.5 104.33 299.38 104.04 299.27C103.57 299.09 103.37 299.84 103.83 300.02Z" fill="#C2C2C2"/>
<path d="M109.48 303.64C109.67 303.65 109.78 303.74 109.89 303.88C110.21 304.27 110.76 303.71 110.44 303.33C110.19 303.03 109.87 302.89 109.48 302.86C108.98 302.82 108.98 303.6 109.48 303.64Z" fill="#C2C2C2"/>
<path d="M111.18 307.3C111.1 307.84 111.16 308.31 111.37 308.82C111.56 309.28 112.23 308.88 112.04 308.43C111.91 308.13 111.88 307.83 111.93 307.51C112.01 307.01 111.26 306.8 111.18 307.3Z" fill="#C2C2C2"/>
<path d="M115.25 307.44C115.48 307.5 115.71 307.56 115.94 307.62C116.42 307.75 116.63 307 116.15 306.87C115.92 306.81 115.69 306.75 115.46 306.69C114.97 306.56 114.76 307.31 115.25 307.44Z" fill="#C2C2C2"/>
<path d="M117.73 299.79C117.69 300.23 117.86 300.64 118.2 300.92C118.58 301.24 119.13 300.69 118.75 300.37C118.55 300.2 118.49 300.04 118.51 299.79C118.55 299.29 117.77 299.3 117.73 299.79Z" fill="#C2C2C2"/>
<path d="M116.74 294.23C116.51 294.54 116.47 294.85 116.54 295.22C116.63 295.71 117.38 295.5 117.29 295.01C117.27 294.85 117.31 294.72 117.41 294.62C117.71 294.22 117.04 293.83 116.74 294.23Z" fill="#C2C2C2"/>
<path d="M121.01 296.51C121.01 296.74 121.01 296.97 121.01 297.2C121.01 297.7 121.79 297.7 121.79 297.2C121.79 296.97 121.79 296.74 121.79 296.51C121.79 296.01 121.01 296.01 121.01 296.51Z" fill="#C2C2C2"/>
<path d="M113.77 295.29C113.94 295.41 114.12 295.52 114.29 295.64C114.71 295.92 115.1 295.25 114.68 294.97C114.51 294.85 114.33 294.74 114.16 294.62C113.75 294.34 113.36 295.01 113.77 295.29Z" fill="#C2C2C2"/>
<path d="M115.07 288.83C115.22 289.01 115.29 289.19 115.31 289.42C115.35 289.92 116.13 289.92 116.09 289.42C116.06 288.97 115.91 288.62 115.62 288.28C115.3 287.9 114.75 288.46 115.07 288.83Z" fill="#C2C2C2"/>
<path d="M117.04 286.48C117.04 286.83 117.04 287.17 117.04 287.52C117.04 288.02 117.82 288.02 117.82 287.52C117.82 287.17 117.82 286.83 117.82 286.48C117.82 285.98 117.04 285.98 117.04 286.48Z" fill="#C2C2C2"/>
<path d="M121.85 291.05C121.96 291.17 122.07 291.29 122.19 291.4C122.54 291.76 123.09 291.21 122.74 290.85C122.63 290.73 122.52 290.61 122.4 290.5C122.05 290.14 121.5 290.69 121.85 291.05Z" fill="#C2C2C2"/>
<path d="M122.62 286.42C122.96 286.44 123.31 286.46 123.65 286.48C124.15 286.51 124.15 285.73 123.65 285.7C123.31 285.68 122.96 285.66 122.62 285.64C122.12 285.61 122.12 286.39 122.62 286.42Z" fill="#C2C2C2"/>
<path d="M123.72 280.19C123.95 280.42 124.18 280.65 124.41 280.88C124.76 281.23 125.31 280.68 124.96 280.33C124.73 280.1 124.5 279.87 124.27 279.64C123.92 279.29 123.37 279.83 123.72 280.19Z" fill="#C2C2C2"/>
<path d="M126.72 278.19C126.72 278.59 126.72 279 126.72 279.4C126.72 279.9 127.5 279.9 127.5 279.4C127.5 279 127.5 278.59 127.5 278.19C127.5 277.69 126.72 277.68 126.72 278.19Z" fill="#C2C2C2"/>
<path d="M128.13 285.46C128.24 285.29 128.36 285.11 128.47 284.94C128.75 284.52 128.07 284.13 127.8 284.55C127.69 284.72 127.57 284.9 127.46 285.07C127.18 285.49 127.85 285.88 128.13 285.46Z" fill="#C2C2C2"/>
<path d="M125.49 293.1C125.78 292.99 126.07 292.88 126.36 292.76C126.82 292.58 126.62 291.83 126.15 292.01C125.86 292.12 125.57 292.23 125.28 292.35C124.82 292.53 125.02 293.29 125.49 293.1Z" fill="#C2C2C2"/>
<path d="M128.93 292.02C129.22 291.96 129.51 291.9 129.79 291.84C130.28 291.74 130.07 290.99 129.58 291.09C129.29 291.15 129 291.21 128.72 291.27C128.24 291.37 128.44 292.12 128.93 292.02Z" fill="#C2C2C2"/>
<path d="M126.72 295.64C126.72 295.7 126.72 295.76 126.72 295.81C126.72 296.31 127.5 296.31 127.5 295.81C127.5 295.75 127.5 295.69 127.5 295.64C127.5 295.14 126.72 295.14 126.72 295.64Z" fill="#C2C2C2"/>
<path d="M120.04 307.55C120.21 307.43 120.39 307.32 120.56 307.2C120.97 306.92 120.59 306.25 120.17 306.53C120 306.65 119.82 306.76 119.65 306.88C119.23 307.16 119.62 307.83 120.04 307.55Z" fill="#C2C2C2"/>
<path d="M119.58 310.42C119.89 310.12 120.22 309.95 120.64 309.85C121.13 309.74 120.92 308.99 120.43 309.1C119.89 309.23 119.43 309.48 119.03 309.87C118.67 310.22 119.22 310.77 119.58 310.42Z" fill="#C2C2C2"/>
<path d="M116.38 310.89C116.44 311 116.5 311.12 116.56 311.23C116.79 311.68 117.46 311.28 117.23 310.84C117.17 310.73 117.11 310.61 117.05 310.5C116.82 310.05 116.15 310.44 116.38 310.89Z" fill="#C2C2C2"/>
<path d="M113.42 311.72C113.86 311.95 114.28 312 114.76 311.91C115.25 311.81 115.04 311.06 114.55 311.16C114.28 311.22 114.05 311.18 113.81 311.05C113.37 310.82 112.97 311.49 113.42 311.72Z" fill="#C2C2C2"/>
<path d="M119.85 304.35C120.37 304.29 120.89 304.22 121.4 304.16C121.89 304.1 121.9 303.32 121.4 303.38C120.88 303.44 120.36 303.51 119.85 303.57C119.36 303.63 119.35 304.41 119.85 304.35Z" fill="#C2C2C2"/>
<path d="M189.51 270.26C197.88 262.69 206.25 255.12 214.62 247.56C215.86 246.44 214.02 244.61 212.79 245.73C204.42 253.3 196.05 260.87 187.68 268.43C186.44 269.55 188.27 271.38 189.51 270.26Z" fill="#D7E7FF"/>
<path d="M217.89 281.84C226.26 274.27 234.63 266.7 243 259.14C244.24 258.02 242.4 256.19 241.17 257.31C232.8 264.88 224.43 272.45 216.06 280.01C214.82 281.13 216.66 282.96 217.89 281.84Z" fill="#D7E7FF"/>
<path d="M187.05 290.42C204.6 273.31 222.14 256.2 239.69 239.09C240.89 237.92 239.05 236.09 237.86 237.26C220.31 254.37 202.77 271.48 185.22 288.59C184.02 289.75 185.86 291.59 187.05 290.42Z" fill="#D7E7FF"/>
<path d="M267.5 130.81H266.37V203.25H267.5V130.81Z" fill="#575757"/>
<path d="M271.54 203.25C271.54 205.79 269.48 207.85 266.94 207.85C264.4 207.85 262.34 205.79 262.34 203.25C262.34 200.71 264.4 198.65 266.94 198.65C269.48 198.65 271.54 200.71 271.54 203.25Z" fill="#575757"/>
<path d="M267 218.68C266.92 218.68 265.42 218.67 264.33 217.57C263.6 216.84 263.23 215.83 263.23 214.56C263.23 214.22 263.5 213.95 263.84 213.95C264.18 213.95 264.45 214.22 264.45 214.56C264.45 215.49 264.7 216.22 265.19 216.71C265.93 217.44 266.99 217.46 267 217.46C268.72 217.46 270.11 216.06 270.11 214.35C270.11 212.63 268.71 211.24 267 211.24C266.66 211.24 266.39 210.97 266.39 210.63V207.25C266.39 206.91 266.66 206.64 267 206.64C267.34 206.64 267.61 206.91 267.61 207.25V210.06C269.71 210.36 271.33 212.17 271.33 214.35C271.33 216.74 269.39 218.68 267 218.68Z" fill="#575757"/>
<path d="M242.86 221.51C242.63 221.47 242.43 221.28 242.4 221.04C242.35 220.73 242.57 220.44 242.88 220.4L267.77 216.73C268.08 216.68 268.37 216.9 268.41 217.21C268.46 217.52 268.24 217.8 267.93 217.85L243.04 221.52C242.97 221.52 242.91 221.52 242.86 221.51Z" fill="#575757"/>
<path d="M290.63 229.79C290.57 229.78 290.52 229.76 290.47 229.73L267.58 217.78C267.3 217.64 267.2 217.29 267.34 217.02C267.48 216.74 267.82 216.64 268.1 216.78L290.99 228.73C291.27 228.87 291.37 229.22 291.23 229.49C291.11 229.72 290.87 229.83 290.63 229.79Z" fill="#575757"/>
<path d="M288.76 277.57L227.8 266.98C224.61 266.43 222.47 263.39 223.02 260.19L229.12 225.09C229.67 221.9 232.71 219.76 235.91 220.31L296.87 230.9C300.06 231.45 302.2 234.49 301.65 237.69L295.55 272.79C295 275.99 291.96 278.13 288.76 277.57Z" fill="white"/>
<path d="M289.6 278.4C289.21 278.4 288.82 278.37 288.42 278.3L227.89 267.78C226.08 267.47 224.51 266.47 223.45 264.97C222.39 263.47 221.99 261.65 222.3 259.84L228.32 225.17C228.97 221.44 232.53 218.93 236.26 219.58L296.79 230.1C298.6 230.41 300.17 231.41 301.23 232.91C302.29 234.41 302.69 236.23 302.38 238.04L296.36 272.71C295.78 276.05 292.87 278.4 289.6 278.4ZM235.09 221.04C232.56 221.04 230.31 222.86 229.86 225.44L223.84 260.11C223.6 261.51 223.91 262.92 224.73 264.07C225.55 265.23 226.77 266 228.16 266.25L288.69 276.77C291.57 277.28 294.33 275.33 294.83 272.45L300.85 237.78C301.09 236.38 300.78 234.97 299.96 233.82C299.14 232.66 297.92 231.89 296.53 231.64L236 221.12C235.69 221.07 235.39 221.04 235.09 221.04Z" fill="#575757"/>
<path d="M288.31 273.77L229.52 263.56C227.48 263.21 226.11 261.26 226.47 259.22L232.04 227.17C232.39 225.13 234.34 223.76 236.38 224.12L295.17 234.33C297.21 234.68 298.58 236.63 298.22 238.67L292.65 270.72C292.29 272.76 290.35 274.13 288.31 273.77Z" fill="#36AAB1"/>
<path d="M288.85 274.58C288.58 274.58 288.31 274.56 288.04 274.51L229.53 264.34C228.3 264.13 227.23 263.45 226.51 262.43C225.79 261.41 225.51 260.17 225.73 258.94L231.25 227.16C231.69 224.63 234.11 222.92 236.65 223.36L295.16 233.53C297.7 233.97 299.4 236.39 298.96 238.93L293.44 270.71C293.23 271.94 292.55 273.01 291.53 273.73C290.73 274.29 289.8 274.58 288.85 274.58ZM288.3 272.98C289.12 273.12 289.94 272.94 290.62 272.46C291.3 271.98 291.75 271.27 291.89 270.45L297.41 238.67C297.7 236.98 296.57 235.37 294.88 235.07L236.37 224.9C234.68 224.61 233.07 225.74 232.77 227.43L227.25 259.21C227.11 260.03 227.29 260.85 227.77 261.53C228.25 262.21 228.96 262.66 229.78 262.8L288.3 272.98Z" fill="#575757"/>
<path d="M260.42 268.93L275.63 254.98L284.05 273.03L260.42 268.93Z" fill="white"/>
<path d="M284.94 273.71L259.29 269.25L275.8 254.12L284.94 273.71ZM261.55 268.6L283.16 272.36L275.46 255.85L261.55 268.6Z" fill="#575757"/>
<path d="M230.34 263.7L257.31 238.98L272.24 270.98L230.34 263.7Z" fill="white"/>
<path d="M273.13 271.66L229.22 264.03L257.49 238.12L273.13 271.66ZM231.47 263.37L271.34 270.3L257.13 239.85L231.47 263.37Z" fill="#575757"/>
<path d="M289.38 243.67C289.02 245.72 287.07 247.1 285.02 246.74C282.97 246.38 281.59 244.43 281.95 242.38C282.31 240.33 284.26 238.95 286.31 239.31C288.36 239.66 289.73 241.62 289.38 243.67Z" fill="white"/>
<path d="M285.67 247.31C285.42 247.31 285.17 247.29 284.93 247.25C282.6 246.84 281.03 244.62 281.44 242.29C281.64 241.16 282.26 240.18 283.2 239.52C284.14 238.86 285.27 238.6 286.4 238.8C287.53 239 288.51 239.62 289.17 240.56C289.83 241.5 290.08 242.63 289.89 243.76C289.69 244.89 289.07 245.87 288.13 246.53C287.4 247.05 286.55 247.31 285.67 247.31ZM285.65 239.77C284.99 239.77 284.34 239.97 283.78 240.36C283.07 240.86 282.6 241.61 282.45 242.46C282.3 243.32 282.5 244.18 282.99 244.89C283.49 245.6 284.24 246.07 285.09 246.22C285.94 246.37 286.81 246.18 287.52 245.68C288.23 245.18 288.7 244.43 288.85 243.58C289.16 241.81 287.97 240.13 286.2 239.82C286.03 239.79 285.84 239.77 285.65 239.77Z" fill="#575757"/>
<path d="M313.57 128.38H257.04V134.6H313.57V128.38Z" fill="#36AAB1"/>
<path d="M362.69 256.98H343.92V91.0601H362.69V256.98ZM345.78 255.12H360.83V92.9201H345.78V255.12Z" fill="#575757"/>
<path d="M362.46 109.27H344.16V90.98H362.46V109.27ZM346.04 107.39H360.57V92.86H346.04V107.39Z" fill="#575757"/>
<path d="M345.765 91.2554L344.436 92.5847L360.847 108.997L362.177 107.667L345.765 91.2554Z" fill="#575757"/>
<path d="M360.841 91.2562L344.429 107.668L345.758 108.997L362.17 92.5855L360.841 91.2562Z" fill="#575757"/>
<path d="M362.46 125.69H344.16V107.4H362.46V125.69ZM346.04 123.81H360.57V109.28H346.04V123.81Z" fill="#575757"/>
<path d="M345.762 107.667L344.433 108.997L360.845 125.408L362.174 124.079L345.762 107.667Z" fill="#575757"/>
<path d="M360.845 107.674L344.433 124.086L345.762 125.416L362.174 109.004L360.845 107.674Z" fill="#575757"/>
<path d="M362.46 142.1H344.16V123.8H362.46V142.1ZM346.04 140.22H360.57V125.69H346.04V140.22Z" fill="#575757"/>
<path d="M345.765 124.083L344.436 125.413L360.848 141.825L362.177 140.495L345.765 124.083Z" fill="#575757"/>
<path d="M360.847 124.099L344.436 140.51L345.765 141.84L362.177 125.428L360.847 124.099Z" fill="#575757"/>
<path d="M362.46 158.52H344.16V140.23H362.46V158.52ZM346.04 156.63H360.57V142.1H346.04V156.63Z" fill="#575757"/>
<path d="M345.762 140.496L344.433 141.825L360.845 158.237L362.174 156.907L345.762 140.496Z" fill="#575757"/>
<path d="M360.846 140.504L344.434 156.916L345.763 158.245L362.175 141.833L360.846 140.504Z" fill="#575757"/>
<path d="M362.46 174.93H344.16V156.64H362.46V174.93ZM346.04 173.05H360.57V158.52H346.04V173.05Z" fill="#575757"/>
<path d="M345.767 156.915L344.438 158.244L360.849 174.656L362.179 173.327L345.767 156.915Z" fill="#575757"/>
<path d="M360.847 156.929L344.436 173.341L345.765 174.67L362.177 158.258L360.847 156.929Z" fill="#575757"/>
<path d="M362.46 191.34H344.16V173.04H362.46V191.34ZM346.04 189.46H360.57V174.93H346.04V189.46Z" fill="#575757"/>
<path d="M345.763 173.324L344.434 174.653L360.845 191.065L362.175 189.736L345.763 173.324Z" fill="#575757"/>
<path d="M360.851 173.347L344.439 189.759L345.768 191.089L362.18 174.677L360.851 173.347Z" fill="#575757"/>
<path d="M362.46 207.76H344.16V189.47H362.46V207.76ZM346.04 205.88H360.57V191.35H346.04V205.88Z" fill="#575757"/>
<path d="M345.761 189.737L344.431 191.067L360.843 207.478L362.173 206.149L345.761 189.737Z" fill="#575757"/>
<path d="M360.847 189.759L344.436 206.171L345.765 207.5L362.177 191.088L360.847 189.759Z" fill="#575757"/>
<path d="M362.46 224.17H344.16V205.88H362.46V224.17ZM346.04 222.29H360.57V207.76H346.04V222.29Z" fill="#575757"/>
<path d="M345.764 206.154L344.435 207.483L360.847 223.895L362.176 222.566L345.764 206.154Z" fill="#575757"/>
<path d="M360.844 206.17L344.432 222.582L345.761 223.912L362.173 207.5L360.844 206.17Z" fill="#575757"/>
<path d="M362.46 240.59H344.16V222.3H362.46V240.59ZM346.04 238.71H360.57V224.18H346.04V238.71Z" fill="#575757"/>
<path d="M345.761 222.567L344.432 223.896L360.844 240.308L362.173 238.978L345.761 222.567Z" fill="#575757"/>
<path d="M360.847 222.589L344.436 239.001L345.765 240.331L362.177 223.919L360.847 222.589Z" fill="#575757"/>
<path d="M362.46 257H344.16V238.71H362.46V257ZM346.04 255.12H360.57V240.59H346.04V255.12Z" fill="#575757"/>
<path d="M345.765 238.981L344.436 240.31L360.847 256.722L362.177 255.393L345.765 238.981Z" fill="#575757"/>
<path d="M360.839 238.966L344.425 255.375L345.754 256.705L362.168 240.296L360.839 238.966Z" fill="#575757"/>
<path d="M395.12 125.44H376.83V107.14H395.12V125.44ZM378.7 123.56H393.23V109.03H378.7V123.56Z" fill="#575757"/>
<path d="M393.511 107.442L377.101 123.856L378.431 125.185L394.84 108.771L393.511 107.442Z" fill="#575757"/>
<path d="M378.427 107.425L377.098 108.754L393.51 125.166L394.839 123.837L378.427 107.425Z" fill="#575757"/>
<path d="M378.7 125.44H360.41V107.14H378.7V125.44ZM362.29 123.56H376.82V109.03H362.29V123.56Z" fill="#575757"/>
<path d="M377.099 107.438L360.689 123.852L362.019 125.181L378.428 108.767L377.099 107.438Z" fill="#575757"/>
<path d="M362.015 107.421L360.686 108.75L377.098 125.162L378.427 123.833L362.015 107.421Z" fill="#575757"/>
<path d="M362.29 125.44H344V107.14H362.29V125.44ZM345.88 123.56H360.41V109.03H345.88V123.56Z" fill="#575757"/>
<path d="M345.88 125.44H327.59V107.14H345.88V125.44ZM329.46 123.56H344V109.03H329.47V123.56H329.46Z" fill="#575757"/>
<path d="M344.263 107.424L327.851 123.836L329.18 125.165L345.592 108.753L344.263 107.424Z" fill="#575757"/>
<path d="M329.187 107.422L327.857 108.751L344.269 125.163L345.598 123.834L329.187 107.422Z" fill="#575757"/>
<path d="M329.46 125.44H311.17V107.14H329.46V125.44ZM313.05 123.56H327.58V109.03H313.05V123.56Z" fill="#575757"/>
<path d="M327.851 107.42L311.439 123.832L312.769 125.161L329.18 108.749L327.851 107.42Z" fill="#575757"/>
<path d="M312.769 107.429L311.44 108.758L327.852 125.17L329.181 123.84L312.769 107.429Z" fill="#575757"/>
<path d="M313.05 125.44H294.76V107.14H313.05V125.44ZM296.63 123.56H311.16V109.03H296.63V123.56Z" fill="#575757"/>
<path d="M295.69 125.44H279.28C278.9 125.44 278.56 125.21 278.41 124.86C278.26 124.51 278.35 124.1 278.61 123.84L295.02 107.43L296.35 108.76L281.54 123.57H295.29L311.43 107.43L312.76 108.76L296.35 125.17C296.18 125.34 295.94 125.44 295.69 125.44Z" fill="#575757"/>
<path d="M296.357 107.423L295.028 108.752L311.44 125.164L312.769 123.835L296.357 107.423Z" fill="#575757"/>
<path d="M362.73 275.28H343.92V256.99H362.73V275.28ZM345.86 273.39H360.8V258.86H345.86V273.39Z" fill="#575757"/>
<path d="M361.08 275L344.21 258.59L345.58 257.26L362.45 273.67L361.08 275Z" fill="#575757"/>
<path d="M345.58 275L344.21 273.67L361.08 257.26L362.45 258.59L345.58 275Z" fill="#575757"/>
<path d="M362.73 340.93H343.92V322.64H362.73V340.93ZM345.86 339.05H360.8V324.52H345.86V339.05Z" fill="#575757"/>
<path d="M361.08 340.66L344.21 324.24L345.58 322.91L362.45 339.33L361.08 340.66Z" fill="#575757"/>
<path d="M345.58 340.66L344.21 339.33L361.08 322.91L362.45 324.24L345.58 340.66Z" fill="#575757"/>
<path d="M362.73 290.13H343.92V271.84H362.73V290.13ZM345.86 288.25H360.8V273.72H345.86V288.25Z" fill="#575757"/>
<path d="M361.08 289.86L344.21 273.44L345.58 272.11L362.45 288.53L361.08 289.86Z" fill="#575757"/>
<path d="M345.58 289.86L344.21 288.53L361.08 272.11L362.45 273.44L345.58 289.86Z" fill="#575757"/>
<path d="M362.73 306.55H343.92V288.26H362.73V306.55ZM345.86 304.67H360.8V290.14H345.86V304.67Z" fill="#575757"/>
<path d="M361.08 306.27L344.21 289.86L345.58 288.53L362.45 304.94L361.08 306.27Z" fill="#575757"/>
<path d="M345.58 306.27L344.21 304.94L361.08 288.53L362.45 289.86L345.58 306.27Z" fill="#575757"/>
<path d="M362.73 322.96H343.92V304.67H362.73V322.96ZM345.86 321.08H360.8V306.55H345.86V321.08Z" fill="#575757"/>
<path d="M361.08 322.69L344.21 306.27L345.58 304.94L362.45 321.36L361.08 322.69Z" fill="#575757"/>
<path d="M345.58 322.69L344.21 321.36L361.08 304.94L362.45 306.27L345.58 322.69Z" fill="#575757"/>
<path d="M152.86 190.53C154.86 190.53 154.87 187.42 152.86 187.42C150.86 187.42 150.86 190.53 152.86 190.53Z" fill="#575757"/>
<path d="M321.56 158.04C323.56 158.04 323.57 154.93 321.56 154.93C319.56 154.93 319.55 158.04 321.56 158.04Z" fill="#575757"/>
<path d="M391.39 269.35C391.62 269.35 391.85 269.35 392.08 269.35C392.89 269.35 393.67 268.63 393.64 267.79C393.6 266.95 392.96 266.23 392.08 266.23C391.85 266.23 391.62 266.23 391.39 266.23C390.58 266.23 389.8 266.95 389.83 267.79C389.87 268.64 390.52 269.35 391.39 269.35Z" fill="#575757"/>
<path d="M91.3299 292.17C93.3299 292.17 93.3399 289.06 91.3299 289.06C89.3299 289.05 89.3199 292.17 91.3299 292.17Z" fill="#575757"/>
<path d="M239.97 142.83C241.97 142.83 241.98 139.72 239.97 139.72C237.97 139.72 237.97 142.83 239.97 142.83Z" fill="#575757"/>
</g>
<defs>
<clipPath id="clip0_127_4">
<rect width="500" height="500" fill="white"/>
</clipPath>
</defs>
</svg>
