<svg width="30" height="30" viewBox="0 0 30 30" fill="none" xmlns="http://www.w3.org/2000/svg">
<path fill-rule="evenodd" clip-rule="evenodd" d="M16.1009 2.65198C19.0102 2.88321 21.7469 4.12516 23.8366 6.16254C25.4454 7.77071 26.585 9.78742 27.1323 11.9954C27.6797 14.2033 27.6142 16.5187 26.9429 18.6922C26.2715 20.8657 25.0198 22.8147 23.3227 24.3294C21.6255 25.844 19.5471 26.8668 17.3116 27.2875C16.5485 27.4258 15.7747 27.497 14.9991 27.5C13.153 27.4862 11.3335 27.0591 9.67411 26.25L3.99911 27.5C3.79051 27.5437 3.5742 27.5334 3.37073 27.4699C3.16727 27.4065 2.9834 27.2921 2.83661 27.1375C2.69052 26.9907 2.5832 26.8099 2.52429 26.6114C2.46538 26.4128 2.45673 26.2028 2.49911 26L3.74911 20.325C2.53212 17.6724 2.2817 14.6775 3.04125 11.8595C3.8008 9.04159 5.52243 6.57825 7.90771 4.89654C10.293 3.21482 13.1915 2.42075 16.1009 2.65198ZM15.849 20.325C17.0145 20.9088 18.2957 21.2249 19.599 21.25C19.8196 21.264 20.0409 21.264 20.2615 21.25C20.5573 21.2021 20.826 21.0495 21.0187 20.8201C21.2115 20.5907 21.3154 20.2996 21.3115 20V17.8C21.3226 17.5211 21.24 17.2465 21.0769 17.0199C20.9138 16.7934 20.6796 16.628 20.4115 16.55L18.6615 16.05C18.4444 15.9837 18.2134 15.9777 17.9931 16.0328C17.7729 16.0879 17.5719 16.2018 17.4115 16.3625L16.1615 17.6125C15.4143 17.1416 14.7225 16.5881 14.099 15.9625C13.4763 15.3365 12.9231 14.645 12.449 13.9L13.699 12.65C13.8597 12.4897 13.9737 12.2886 14.0287 12.0684C14.0838 11.8482 14.0778 11.6171 14.0115 11.4L13.5115 9.65001C13.4336 9.38196 13.2681 9.14772 13.0416 8.98461C12.8151 8.8215 12.5404 8.73891 12.2615 8.75001H9.99901C9.6994 8.74616 9.40837 8.85005 9.17893 9.04278C8.9495 9.2355 8.79693 9.50423 8.74901 9.80001C8.63582 11.3031 8.95229 12.8074 9.66151 14.1375L9.76151 14.3375C10.4075 15.5936 11.2517 16.7374 12.2615 17.725C13.2515 18.7321 14.3948 19.5759 15.649 20.225L15.849 20.325Z" fill="black"/>
</svg>
